<svg width="222" height="256" viewBox="0 0 222 256" fill="none" xmlns="http://www.w3.org/2000/svg">
<g clip-path="url(#clip0_153_659)">
<rect width="42.3383" height="42.3383" transform="matrix(0.866025 0.5 -0.866025 0.5 110.998 85.3239)" fill="#111111"/>
<rect width="42.3383" height="42.3383" transform="matrix(0.866025 0.5 -0.866025 0.5 110.998 85.3239)" fill="white" fill-opacity="0.08"/>
</g>
<rect width="42.3383" height="42.3383" transform="matrix(0.866025 0.5 -0.866025 0.5 110.998 85.3239)" stroke="black" stroke-opacity="0.16"/>
<g clip-path="url(#clip1_153_659)">
<rect width="42.3383" height="42.3383" transform="matrix(2.20305e-08 1 -0.866025 0.5 147.664 106.493)" fill="#111111"/>
<rect width="42.3383" height="42.3383" transform="matrix(2.20305e-08 1 -0.866025 0.5 147.664 106.493)" fill="#373737" fill-opacity="0.36" style="mix-blend-mode:overlay"/>
<rect width="42.3383" height="42.3383" transform="matrix(2.20305e-08 1 -0.866025 0.5 147.664 106.493)" fill="black" fill-opacity="0.16" style="mix-blend-mode:darken"/>
</g>
<rect width="42.3383" height="42.3383" transform="matrix(2.20305e-08 1 -0.866025 0.5 147.664 106.493)" stroke="black" stroke-opacity="0.16"/>
<g clip-path="url(#clip2_153_659)">
<rect width="42.3383" height="42.3383" transform="matrix(0.866025 0.5 -2.20305e-08 1 74.3332 106.493)" fill="#111111"/>
<rect width="42.3383" height="42.3383" transform="matrix(0.866025 0.5 -2.20305e-08 1 74.3332 106.493)" fill="black" fill-opacity="0.16" style="mix-blend-mode:darken"/>
</g>
<rect width="42.3383" height="42.3383" transform="matrix(0.866025 0.5 -2.20305e-08 1 74.3332 106.493)" stroke="black" stroke-opacity="0.16"/>
<g clip-path="url(#clip3_153_659)">
<rect width="42.3383" height="42.3383" transform="matrix(0.866025 0.5 -0.866025 0.5 147.664 64.1547)" fill="#C4DCDC"/>
<rect width="42.3383" height="42.3383" transform="matrix(0.866025 0.5 -0.866025 0.5 147.664 64.1547)" fill="white" fill-opacity="0.08"/>
</g>
<rect width="42.3383" height="42.3383" transform="matrix(0.866025 0.5 -0.866025 0.5 147.664 64.1547)" stroke="black" stroke-opacity="0.16"/>
<g clip-path="url(#clip4_153_659)">
<rect width="42.3383" height="42.3383" transform="matrix(2.20305e-08 1 -0.866025 0.5 184.33 85.3237)" fill="#111111"/>
<rect width="42.3383" height="42.3383" transform="matrix(2.20305e-08 1 -0.866025 0.5 184.33 85.3237)" fill="#373737" fill-opacity="0.36" style="mix-blend-mode:overlay"/>
<rect width="42.3383" height="42.3383" transform="matrix(2.20305e-08 1 -0.866025 0.5 184.33 85.3237)" fill="black" fill-opacity="0.16" style="mix-blend-mode:darken"/>
</g>
<rect width="42.3383" height="42.3383" transform="matrix(2.20305e-08 1 -0.866025 0.5 184.33 85.3237)" stroke="black" stroke-opacity="0.16"/>
<g clip-path="url(#clip5_153_659)">
<rect width="42.3383" height="42.3383" transform="matrix(0.866025 0.5 -0.866025 0.5 184.33 42.9854)" fill="#111111"/>
<rect width="42.3383" height="42.3383" transform="matrix(0.866025 0.5 -0.866025 0.5 184.33 42.9854)" fill="white" fill-opacity="0.08"/>
</g>
<rect width="42.3383" height="42.3383" transform="matrix(0.866025 0.5 -0.866025 0.5 184.33 42.9854)" stroke="black" stroke-opacity="0.16"/>
<g clip-path="url(#clip6_153_659)">
<rect width="42.3383" height="42.3383" transform="matrix(2.20305e-08 1 -0.866025 0.5 220.996 64.1545)" fill="#111111"/>
<rect width="42.3383" height="42.3383" transform="matrix(2.20305e-08 1 -0.866025 0.5 220.996 64.1545)" fill="#373737" fill-opacity="0.36" style="mix-blend-mode:overlay"/>
<rect width="42.3383" height="42.3383" transform="matrix(2.20305e-08 1 -0.866025 0.5 220.996 64.1545)" fill="black" fill-opacity="0.16" style="mix-blend-mode:darken"/>
</g>
<rect width="42.3383" height="42.3383" transform="matrix(2.20305e-08 1 -0.866025 0.5 220.996 64.1545)" stroke="black" stroke-opacity="0.16"/>
<g clip-path="url(#clip7_153_659)">
<rect width="42.3383" height="42.3383" transform="matrix(0.866025 0.5 -0.866025 0.5 74.3321 64.1547)" fill="#C4DCDC"/>
<rect width="42.3383" height="42.3383" transform="matrix(0.866025 0.5 -0.866025 0.5 74.3321 64.1547)" fill="white" fill-opacity="0.08"/>
</g>
<rect width="42.3383" height="42.3383" transform="matrix(0.866025 0.5 -0.866025 0.5 74.3321 64.1547)" stroke="black" stroke-opacity="0.16"/>
<g clip-path="url(#clip8_153_659)">
<rect width="42.3383" height="42.3383" transform="matrix(0.866025 0.5 -2.20305e-08 1 37.6673 85.3237)" fill="#111111"/>
<rect width="42.3383" height="42.3383" transform="matrix(0.866025 0.5 -2.20305e-08 1 37.6673 85.3237)" fill="black" fill-opacity="0.16" style="mix-blend-mode:darken"/>
</g>
<rect width="42.3383" height="42.3383" transform="matrix(0.866025 0.5 -2.20305e-08 1 37.6673 85.3237)" stroke="black" stroke-opacity="0.16"/>
<g clip-path="url(#clip9_153_659)">
<rect width="42.3383" height="42.3383" transform="matrix(0.866025 0.5 -0.866025 0.5 37.6663 42.9852)" fill="#111111"/>
<rect width="42.3383" height="42.3383" transform="matrix(0.866025 0.5 -0.866025 0.5 37.6663 42.9852)" fill="white" fill-opacity="0.08"/>
</g>
<rect width="42.3383" height="42.3383" transform="matrix(0.866025 0.5 -0.866025 0.5 37.6663 42.9852)" stroke="black" stroke-opacity="0.16"/>
<g clip-path="url(#clip10_153_659)">
<rect width="42.3383" height="42.3383" transform="matrix(0.866025 0.5 -2.20305e-08 1 1.00104 64.1544)" fill="#111111"/>
<rect width="42.3383" height="42.3383" transform="matrix(0.866025 0.5 -2.20305e-08 1 1.00104 64.1544)" fill="black" fill-opacity="0.16" style="mix-blend-mode:darken"/>
</g>
<rect width="42.3383" height="42.3383" transform="matrix(0.866025 0.5 -2.20305e-08 1 1.00104 64.1544)" stroke="black" stroke-opacity="0.16"/>
<g clip-path="url(#clip11_153_659)">
<rect width="42.3383" height="42.3383" transform="matrix(2.20305e-08 1 -0.866025 0.5 147.664 148.832)" fill="#111111"/>
<rect width="42.3383" height="42.3383" transform="matrix(2.20305e-08 1 -0.866025 0.5 147.664 148.832)" fill="#373737" fill-opacity="0.36" style="mix-blend-mode:overlay"/>
<rect width="42.3383" height="42.3383" transform="matrix(2.20305e-08 1 -0.866025 0.5 147.664 148.832)" fill="black" fill-opacity="0.16" style="mix-blend-mode:darken"/>
</g>
<rect width="42.3383" height="42.3383" transform="matrix(2.20305e-08 1 -0.866025 0.5 147.664 148.832)" stroke="black" stroke-opacity="0.16"/>
<g clip-path="url(#clip12_153_659)">
<rect width="42.3383" height="42.3383" transform="matrix(0.866025 0.5 -2.20305e-08 1 74.3334 148.832)" fill="#111111"/>
<rect width="42.3383" height="42.3383" transform="matrix(0.866025 0.5 -2.20305e-08 1 74.3334 148.832)" fill="black" fill-opacity="0.16" style="mix-blend-mode:darken"/>
</g>
<rect width="42.3383" height="42.3383" transform="matrix(0.866025 0.5 -2.20305e-08 1 74.3334 148.832)" stroke="black" stroke-opacity="0.16"/>
<g clip-path="url(#clip13_153_659)">
<rect width="42.3383" height="42.3383" transform="matrix(2.20305e-08 1 -0.866025 0.5 147.664 191.171)" fill="#111111"/>
<rect width="42.3383" height="42.3383" transform="matrix(2.20305e-08 1 -0.866025 0.5 147.664 191.171)" fill="#373737" fill-opacity="0.36" style="mix-blend-mode:overlay"/>
<rect width="42.3383" height="42.3383" transform="matrix(2.20305e-08 1 -0.866025 0.5 147.664 191.171)" fill="black" fill-opacity="0.16" style="mix-blend-mode:darken"/>
</g>
<rect width="42.3383" height="42.3383" transform="matrix(2.20305e-08 1 -0.866025 0.5 147.664 191.171)" stroke="black" stroke-opacity="0.16"/>
<g clip-path="url(#clip14_153_659)">
<rect width="42.3383" height="42.3383" transform="matrix(0.866025 0.5 -2.20305e-08 1 74.3324 191.171)" fill="#111111"/>
<rect width="42.3383" height="42.3383" transform="matrix(0.866025 0.5 -2.20305e-08 1 74.3324 191.171)" fill="black" fill-opacity="0.16" style="mix-blend-mode:darken"/>
</g>
<rect width="42.3383" height="42.3383" transform="matrix(0.866025 0.5 -2.20305e-08 1 74.3324 191.171)" stroke="black" stroke-opacity="0.16"/>
<g clip-path="url(#clip15_153_659)">
<rect width="42.3383" height="42.3383" transform="matrix(2.20305e-08 1 -0.866025 0.5 184.329 170.001)" fill="#111111"/>
<rect width="42.3383" height="42.3383" transform="matrix(2.20305e-08 1 -0.866025 0.5 184.329 170.001)" fill="#373737" fill-opacity="0.36" style="mix-blend-mode:overlay"/>
<rect width="42.3383" height="42.3383" transform="matrix(2.20305e-08 1 -0.866025 0.5 184.329 170.001)" fill="black" fill-opacity="0.16" style="mix-blend-mode:darken"/>
</g>
<rect width="42.3383" height="42.3383" transform="matrix(2.20305e-08 1 -0.866025 0.5 184.329 170.001)" stroke="black" stroke-opacity="0.16"/>
<g clip-path="url(#clip16_153_659)">
<rect width="42.3383" height="42.3383" transform="matrix(2.20305e-08 1 -0.866025 0.5 184.33 127.662)" fill="#111111"/>
<rect width="42.3383" height="42.3383" transform="matrix(2.20305e-08 1 -0.866025 0.5 184.33 127.662)" fill="#373737" fill-opacity="0.36" style="mix-blend-mode:overlay"/>
<rect width="42.3383" height="42.3383" transform="matrix(2.20305e-08 1 -0.866025 0.5 184.33 127.662)" fill="black" fill-opacity="0.16" style="mix-blend-mode:darken"/>
</g>
<rect width="42.3383" height="42.3383" transform="matrix(2.20305e-08 1 -0.866025 0.5 184.33 127.662)" stroke="black" stroke-opacity="0.16"/>
<g clip-path="url(#clip17_153_659)">
<rect width="42.3383" height="42.3383" transform="matrix(0.866025 0.5 -2.20305e-08 1 37.6663 170.001)" fill="#111111"/>
<rect width="42.3383" height="42.3383" transform="matrix(0.866025 0.5 -2.20305e-08 1 37.6663 170.001)" fill="black" fill-opacity="0.16" style="mix-blend-mode:darken"/>
</g>
<rect width="42.3383" height="42.3383" transform="matrix(0.866025 0.5 -2.20305e-08 1 37.6663 170.001)" stroke="black" stroke-opacity="0.16"/>
<g clip-path="url(#clip18_153_659)">
<rect width="42.3383" height="42.3383" transform="matrix(0.866025 0.5 -2.20305e-08 1 37.6663 127.662)" fill="#111111"/>
<rect width="42.3383" height="42.3383" transform="matrix(0.866025 0.5 -2.20305e-08 1 37.6663 127.662)" fill="black" fill-opacity="0.16" style="mix-blend-mode:darken"/>
</g>
<rect width="42.3383" height="42.3383" transform="matrix(0.866025 0.5 -2.20305e-08 1 37.6663 127.662)" stroke="black" stroke-opacity="0.16"/>
<g clip-path="url(#clip19_153_659)">
<rect width="42.3383" height="42.3383" transform="matrix(0.866025 0.5 -0.866025 0.5 74.3321 21.816)" fill="#C4DCDC"/>
<rect width="42.3383" height="42.3383" transform="matrix(0.866025 0.5 -0.866025 0.5 74.3321 21.816)" fill="white" fill-opacity="0.08"/>
</g>
<rect width="42.3383" height="42.3383" transform="matrix(0.866025 0.5 -0.866025 0.5 74.3321 21.816)" stroke="black" stroke-opacity="0.16"/>
<g clip-path="url(#clip20_153_659)">
<rect width="42.3383" height="42.3383" transform="matrix(0.866025 0.5 -0.866025 0.5 110.998 0.646729)" fill="#111111"/>
<rect width="42.3383" height="42.3383" transform="matrix(0.866025 0.5 -0.866025 0.5 110.998 0.646729)" fill="white" fill-opacity="0.08"/>
</g>
<rect width="42.3383" height="42.3383" transform="matrix(0.866025 0.5 -0.866025 0.5 110.998 0.646729)" stroke="black" stroke-opacity="0.16"/>
<g clip-path="url(#clip21_153_659)">
<rect width="42.3383" height="42.3383" transform="matrix(0.866025 0.5 -0.866025 0.5 147.664 21.816)" fill="#C4DCDC"/>
<rect width="42.3383" height="42.3383" transform="matrix(0.866025 0.5 -0.866025 0.5 147.664 21.816)" fill="white" fill-opacity="0.08"/>
</g>
<rect width="42.3383" height="42.3383" transform="matrix(0.866025 0.5 -0.866025 0.5 147.664 21.816)" stroke="black" stroke-opacity="0.16"/>
<g clip-path="url(#clip22_153_659)">
<rect width="42.3383" height="42.3383" transform="matrix(0.866025 0.5 -2.20305e-08 1 1 106.493)" fill="#111111"/>
<rect width="42.3383" height="42.3383" transform="matrix(0.866025 0.5 -2.20305e-08 1 1 106.493)" fill="black" fill-opacity="0.16" style="mix-blend-mode:darken"/>
</g>
<rect width="42.3383" height="42.3383" transform="matrix(0.866025 0.5 -2.20305e-08 1 1 106.493)" stroke="black" stroke-opacity="0.16"/>
<g clip-path="url(#clip23_153_659)">
<rect width="42.3383" height="42.3383" transform="matrix(0.866025 0.5 -2.20305e-08 1 1 148.832)" fill="#111111"/>
<rect width="42.3383" height="42.3383" transform="matrix(0.866025 0.5 -2.20305e-08 1 1 148.832)" fill="black" fill-opacity="0.16" style="mix-blend-mode:darken"/>
</g>
<rect width="42.3383" height="42.3383" transform="matrix(0.866025 0.5 -2.20305e-08 1 1 148.832)" stroke="black" stroke-opacity="0.16"/>
<g clip-path="url(#clip24_153_659)">
<rect width="42.3383" height="42.3383" transform="matrix(2.20305e-08 1 -0.866025 0.5 220.996 106.493)" fill="#111111"/>
<rect width="42.3383" height="42.3383" transform="matrix(2.20305e-08 1 -0.866025 0.5 220.996 106.493)" fill="#373737" fill-opacity="0.36" style="mix-blend-mode:overlay"/>
<rect width="42.3383" height="42.3383" transform="matrix(2.20305e-08 1 -0.866025 0.5 220.996 106.493)" fill="black" fill-opacity="0.16" style="mix-blend-mode:darken"/>
</g>
<rect width="42.3383" height="42.3383" transform="matrix(2.20305e-08 1 -0.866025 0.5 220.996 106.493)" stroke="black" stroke-opacity="0.16"/>
<g clip-path="url(#clip25_153_659)">
<rect width="42.3383" height="42.3383" transform="matrix(2.20305e-08 1 -0.866025 0.5 220.996 148.832)" fill="#111111"/>
<rect width="42.3383" height="42.3383" transform="matrix(2.20305e-08 1 -0.866025 0.5 220.996 148.832)" fill="#373737" fill-opacity="0.36" style="mix-blend-mode:overlay"/>
<rect width="42.3383" height="42.3383" transform="matrix(2.20305e-08 1 -0.866025 0.5 220.996 148.832)" fill="black" fill-opacity="0.16" style="mix-blend-mode:darken"/>
</g>
<rect width="42.3383" height="42.3383" transform="matrix(2.20305e-08 1 -0.866025 0.5 220.996 148.832)" stroke="black" stroke-opacity="0.16"/>
<g clip-path="url(#clip26_153_659)">
<rect width="42.3383" height="42.3383" transform="matrix(0.866025 0.5 -0.866025 0.5 110.998 42.9854)" fill="#111111"/>
<rect width="42.3383" height="42.3383" transform="matrix(0.866025 0.5 -0.866025 0.5 110.998 42.9854)" fill="white" fill-opacity="0.08"/>
</g>
<rect width="42.3383" height="42.3383" transform="matrix(0.866025 0.5 -0.866025 0.5 110.998 42.9854)" stroke="black" stroke-opacity="0.16"/>
<defs>
<clipPath id="clip0_153_659">
<rect width="42.3383" height="42.3383" transform="matrix(0.866025 0.5 -0.866025 0.5 110.998 85.3239)" fill="white"/>
</clipPath>
<clipPath id="clip1_153_659">
<rect width="42.3383" height="42.3383" transform="matrix(2.20305e-08 1 -0.866025 0.5 147.664 106.493)" fill="white"/>
</clipPath>
<clipPath id="clip2_153_659">
<rect width="42.3383" height="42.3383" transform="matrix(0.866025 0.5 -2.20305e-08 1 74.3332 106.493)" fill="white"/>
</clipPath>
<clipPath id="clip3_153_659">
<rect width="42.3383" height="42.3383" transform="matrix(0.866025 0.5 -0.866025 0.5 147.664 64.1547)" fill="white"/>
</clipPath>
<clipPath id="clip4_153_659">
<rect width="42.3383" height="42.3383" transform="matrix(2.20305e-08 1 -0.866025 0.5 184.33 85.3237)" fill="white"/>
</clipPath>
<clipPath id="clip5_153_659">
<rect width="42.3383" height="42.3383" transform="matrix(0.866025 0.5 -0.866025 0.5 184.33 42.9854)" fill="white"/>
</clipPath>
<clipPath id="clip6_153_659">
<rect width="42.3383" height="42.3383" transform="matrix(2.20305e-08 1 -0.866025 0.5 220.996 64.1545)" fill="white"/>
</clipPath>
<clipPath id="clip7_153_659">
<rect width="42.3383" height="42.3383" transform="matrix(0.866025 0.5 -0.866025 0.5 74.3321 64.1547)" fill="white"/>
</clipPath>
<clipPath id="clip8_153_659">
<rect width="42.3383" height="42.3383" transform="matrix(0.866025 0.5 -2.20305e-08 1 37.6673 85.3237)" fill="white"/>
</clipPath>
<clipPath id="clip9_153_659">
<rect width="42.3383" height="42.3383" transform="matrix(0.866025 0.5 -0.866025 0.5 37.6663 42.9852)" fill="white"/>
</clipPath>
<clipPath id="clip10_153_659">
<rect width="42.3383" height="42.3383" transform="matrix(0.866025 0.5 -2.20305e-08 1 1.00104 64.1544)" fill="white"/>
</clipPath>
<clipPath id="clip11_153_659">
<rect width="42.3383" height="42.3383" transform="matrix(2.20305e-08 1 -0.866025 0.5 147.664 148.832)" fill="white"/>
</clipPath>
<clipPath id="clip12_153_659">
<rect width="42.3383" height="42.3383" transform="matrix(0.866025 0.5 -2.20305e-08 1 74.3334 148.832)" fill="white"/>
</clipPath>
<clipPath id="clip13_153_659">
<rect width="42.3383" height="42.3383" transform="matrix(2.20305e-08 1 -0.866025 0.5 147.664 191.171)" fill="white"/>
</clipPath>
<clipPath id="clip14_153_659">
<rect width="42.3383" height="42.3383" transform="matrix(0.866025 0.5 -2.20305e-08 1 74.3324 191.171)" fill="white"/>
</clipPath>
<clipPath id="clip15_153_659">
<rect width="42.3383" height="42.3383" transform="matrix(2.20305e-08 1 -0.866025 0.5 184.329 170.001)" fill="white"/>
</clipPath>
<clipPath id="clip16_153_659">
<rect width="42.3383" height="42.3383" transform="matrix(2.20305e-08 1 -0.866025 0.5 184.33 127.662)" fill="white"/>
</clipPath>
<clipPath id="clip17_153_659">
<rect width="42.3383" height="42.3383" transform="matrix(0.866025 0.5 -2.20305e-08 1 37.6663 170.001)" fill="white"/>
</clipPath>
<clipPath id="clip18_153_659">
<rect width="42.3383" height="42.3383" transform="matrix(0.866025 0.5 -2.20305e-08 1 37.6663 127.662)" fill="white"/>
</clipPath>
<clipPath id="clip19_153_659">
<rect width="42.3383" height="42.3383" transform="matrix(0.866025 0.5 -0.866025 0.5 74.3321 21.816)" fill="white"/>
</clipPath>
<clipPath id="clip20_153_659">
<rect width="42.3383" height="42.3383" transform="matrix(0.866025 0.5 -0.866025 0.5 110.998 0.646729)" fill="white"/>
</clipPath>
<clipPath id="clip21_153_659">
<rect width="42.3383" height="42.3383" transform="matrix(0.866025 0.5 -0.866025 0.5 147.664 21.816)" fill="white"/>
</clipPath>
<clipPath id="clip22_153_659">
<rect width="42.3383" height="42.3383" transform="matrix(0.866025 0.5 -2.20305e-08 1 1 106.493)" fill="white"/>
</clipPath>
<clipPath id="clip23_153_659">
<rect width="42.3383" height="42.3383" transform="matrix(0.866025 0.5 -2.20305e-08 1 1 148.832)" fill="white"/>
</clipPath>
<clipPath id="clip24_153_659">
<rect width="42.3383" height="42.3383" transform="matrix(2.20305e-08 1 -0.866025 0.5 220.996 106.493)" fill="white"/>
</clipPath>
<clipPath id="clip25_153_659">
<rect width="42.3383" height="42.3383" transform="matrix(2.20305e-08 1 -0.866025 0.5 220.996 148.832)" fill="white"/>
</clipPath>
<clipPath id="clip26_153_659">
<rect width="42.3383" height="42.3383" transform="matrix(0.866025 0.5 -0.866025 0.5 110.998 42.9854)" fill="white"/>
</clipPath>
</defs>
</svg>
