<svg width="222" height="256" viewBox="0 0 222 256" fill="none" xmlns="http://www.w3.org/2000/svg">
<g clip-path="url(#clip0_153_827)">
<rect width="42.3383" height="42.3383" transform="matrix(0.866025 0.5 -0.866025 0.5 110.998 85.4438)" fill="#111111"/>
<rect width="42.3383" height="42.3383" transform="matrix(0.866025 0.5 -0.866025 0.5 110.998 85.4438)" fill="white" fill-opacity="0.08"/>
</g>
<rect width="42.3383" height="42.3383" transform="matrix(0.866025 0.5 -0.866025 0.5 110.998 85.4438)" stroke="black" stroke-opacity="0.16"/>
<g clip-path="url(#clip1_153_827)">
<rect width="42.3383" height="42.3383" transform="matrix(2.20305e-08 1 -0.866025 0.5 147.664 106.613)" fill="#111111"/>
<rect width="42.3383" height="42.3383" transform="matrix(2.20305e-08 1 -0.866025 0.5 147.664 106.613)" fill="#373737" fill-opacity="0.36" style="mix-blend-mode:overlay"/>
<rect width="42.3383" height="42.3383" transform="matrix(2.20305e-08 1 -0.866025 0.5 147.664 106.613)" fill="black" fill-opacity="0.16" style="mix-blend-mode:darken"/>
</g>
<rect width="42.3383" height="42.3383" transform="matrix(2.20305e-08 1 -0.866025 0.5 147.664 106.613)" stroke="black" stroke-opacity="0.16"/>
<g clip-path="url(#clip2_153_827)">
<rect width="42.3383" height="42.3383" transform="matrix(0.866025 0.5 -2.20305e-08 1 74.3332 106.613)" fill="#111111"/>
<rect width="42.3383" height="42.3383" transform="matrix(0.866025 0.5 -2.20305e-08 1 74.3332 106.613)" fill="black" fill-opacity="0.16" style="mix-blend-mode:darken"/>
</g>
<rect width="42.3383" height="42.3383" transform="matrix(0.866025 0.5 -2.20305e-08 1 74.3332 106.613)" stroke="black" stroke-opacity="0.16"/>
<g clip-path="url(#clip3_153_827)">
<rect width="42.3383" height="42.3383" transform="matrix(0.866025 0.5 -0.866025 0.5 147.664 64.2744)" fill="#111111"/>
<rect width="42.3383" height="42.3383" transform="matrix(0.866025 0.5 -0.866025 0.5 147.664 64.2744)" fill="white" fill-opacity="0.08"/>
</g>
<rect width="42.3383" height="42.3383" transform="matrix(0.866025 0.5 -0.866025 0.5 147.664 64.2744)" stroke="black" stroke-opacity="0.16"/>
<g clip-path="url(#clip4_153_827)">
<rect width="42.3383" height="42.3383" transform="matrix(2.20305e-08 1 -0.866025 0.5 184.33 85.4436)" fill="#111111"/>
<rect width="42.3383" height="42.3383" transform="matrix(2.20305e-08 1 -0.866025 0.5 184.33 85.4436)" fill="#373737" fill-opacity="0.36" style="mix-blend-mode:overlay"/>
<rect width="42.3383" height="42.3383" transform="matrix(2.20305e-08 1 -0.866025 0.5 184.33 85.4436)" fill="black" fill-opacity="0.16" style="mix-blend-mode:darken"/>
</g>
<rect width="42.3383" height="42.3383" transform="matrix(2.20305e-08 1 -0.866025 0.5 184.33 85.4436)" stroke="black" stroke-opacity="0.16"/>
<g clip-path="url(#clip5_153_827)">
<rect width="42.3383" height="42.3383" transform="matrix(0.866025 0.5 -0.866025 0.5 184.33 43.1052)" fill="#111111"/>
<rect width="42.3383" height="42.3383" transform="matrix(0.866025 0.5 -0.866025 0.5 184.33 43.1052)" fill="white" fill-opacity="0.08"/>
</g>
<rect width="42.3383" height="42.3383" transform="matrix(0.866025 0.5 -0.866025 0.5 184.33 43.1052)" stroke="black" stroke-opacity="0.16"/>
<g clip-path="url(#clip6_153_827)">
<rect width="42.3383" height="42.3383" transform="matrix(2.20305e-08 1 -0.866025 0.5 220.996 64.2744)" fill="#111111"/>
<rect width="42.3383" height="42.3383" transform="matrix(2.20305e-08 1 -0.866025 0.5 220.996 64.2744)" fill="#373737" fill-opacity="0.36" style="mix-blend-mode:overlay"/>
<rect width="42.3383" height="42.3383" transform="matrix(2.20305e-08 1 -0.866025 0.5 220.996 64.2744)" fill="black" fill-opacity="0.16" style="mix-blend-mode:darken"/>
</g>
<rect width="42.3383" height="42.3383" transform="matrix(2.20305e-08 1 -0.866025 0.5 220.996 64.2744)" stroke="black" stroke-opacity="0.16"/>
<g clip-path="url(#clip7_153_827)">
<rect width="42.3383" height="42.3383" transform="matrix(0.866025 0.5 -0.866025 0.5 74.3321 64.2744)" fill="#111111"/>
<rect width="42.3383" height="42.3383" transform="matrix(0.866025 0.5 -0.866025 0.5 74.3321 64.2744)" fill="white" fill-opacity="0.08"/>
</g>
<rect width="42.3383" height="42.3383" transform="matrix(0.866025 0.5 -0.866025 0.5 74.3321 64.2744)" stroke="black" stroke-opacity="0.16"/>
<g clip-path="url(#clip8_153_827)">
<rect width="42.3383" height="42.3383" transform="matrix(0.866025 0.5 -2.20305e-08 1 37.6673 85.4436)" fill="#111111"/>
<rect width="42.3383" height="42.3383" transform="matrix(0.866025 0.5 -2.20305e-08 1 37.6673 85.4436)" fill="black" fill-opacity="0.16" style="mix-blend-mode:darken"/>
</g>
<rect width="42.3383" height="42.3383" transform="matrix(0.866025 0.5 -2.20305e-08 1 37.6673 85.4436)" stroke="black" stroke-opacity="0.16"/>
<g clip-path="url(#clip9_153_827)">
<rect width="42.3383" height="42.3383" transform="matrix(0.866025 0.5 -0.866025 0.5 37.6663 43.1052)" fill="#111111"/>
<rect width="42.3383" height="42.3383" transform="matrix(0.866025 0.5 -0.866025 0.5 37.6663 43.1052)" fill="white" fill-opacity="0.08"/>
</g>
<rect width="42.3383" height="42.3383" transform="matrix(0.866025 0.5 -0.866025 0.5 37.6663 43.1052)" stroke="black" stroke-opacity="0.16"/>
<g clip-path="url(#clip10_153_827)">
<rect width="42.3383" height="42.3383" transform="matrix(0.866025 0.5 -2.20305e-08 1 1.00104 64.2744)" fill="#111111"/>
<rect width="42.3383" height="42.3383" transform="matrix(0.866025 0.5 -2.20305e-08 1 1.00104 64.2744)" fill="black" fill-opacity="0.16" style="mix-blend-mode:darken"/>
</g>
<rect width="42.3383" height="42.3383" transform="matrix(0.866025 0.5 -2.20305e-08 1 1.00104 64.2744)" stroke="black" stroke-opacity="0.16"/>
<g clip-path="url(#clip11_153_827)">
<rect width="42.3383" height="42.3383" transform="matrix(2.20305e-08 1 -0.866025 0.5 147.664 148.952)" fill="#75C37D"/>
<rect width="42.3383" height="42.3383" transform="matrix(2.20305e-08 1 -0.866025 0.5 147.664 148.952)" fill="#373737" fill-opacity="0.36" style="mix-blend-mode:overlay"/>
<rect width="42.3383" height="42.3383" transform="matrix(2.20305e-08 1 -0.866025 0.5 147.664 148.952)" fill="black" fill-opacity="0.16" style="mix-blend-mode:darken"/>
</g>
<rect width="42.3383" height="42.3383" transform="matrix(2.20305e-08 1 -0.866025 0.5 147.664 148.952)" stroke="black" stroke-opacity="0.16"/>
<g clip-path="url(#clip12_153_827)">
<rect width="42.3383" height="42.3383" transform="matrix(0.866025 0.5 -2.20305e-08 1 74.3334 148.952)" fill="#D63B41"/>
<rect width="42.3383" height="42.3383" transform="matrix(0.866025 0.5 -2.20305e-08 1 74.3334 148.952)" fill="black" fill-opacity="0.16" style="mix-blend-mode:darken"/>
</g>
<rect width="42.3383" height="42.3383" transform="matrix(0.866025 0.5 -2.20305e-08 1 74.3334 148.952)" stroke="black" stroke-opacity="0.16"/>
<g clip-path="url(#clip13_153_827)">
<rect width="42.3383" height="42.3383" transform="matrix(2.20305e-08 1 -0.866025 0.5 147.664 191.29)" fill="#75C37D"/>
<rect width="42.3383" height="42.3383" transform="matrix(2.20305e-08 1 -0.866025 0.5 147.664 191.29)" fill="black" fill-opacity="0.5"/>
<rect width="42.3383" height="42.3383" transform="matrix(2.20305e-08 1 -0.866025 0.5 147.664 191.29)" fill="#373737" fill-opacity="0.36" style="mix-blend-mode:overlay"/>
<rect width="42.3383" height="42.3383" transform="matrix(2.20305e-08 1 -0.866025 0.5 147.664 191.29)" fill="black" fill-opacity="0.16" style="mix-blend-mode:darken"/>
</g>
<rect width="42.3383" height="42.3383" transform="matrix(2.20305e-08 1 -0.866025 0.5 147.664 191.29)" stroke="black" stroke-opacity="0.16"/>
<g clip-path="url(#clip14_153_827)">
<rect width="42.3383" height="42.3383" transform="matrix(0.866025 0.5 -2.20305e-08 1 74.3324 191.29)" fill="#D63B41"/>
<rect width="42.3383" height="42.3383" transform="matrix(0.866025 0.5 -2.20305e-08 1 74.3324 191.29)" fill="black" fill-opacity="0.5"/>
<rect width="42.3383" height="42.3383" transform="matrix(0.866025 0.5 -2.20305e-08 1 74.3324 191.29)" fill="black" fill-opacity="0.16" style="mix-blend-mode:darken"/>
</g>
<rect width="42.3383" height="42.3383" transform="matrix(0.866025 0.5 -2.20305e-08 1 74.3324 191.29)" stroke="black" stroke-opacity="0.16"/>
<g clip-path="url(#clip15_153_827)">
<rect width="42.3383" height="42.3383" transform="matrix(2.20305e-08 1 -0.866025 0.5 184.329 170.121)" fill="#75C37D"/>
<rect width="42.3383" height="42.3383" transform="matrix(2.20305e-08 1 -0.866025 0.5 184.329 170.121)" fill="black" fill-opacity="0.5"/>
<rect width="42.3383" height="42.3383" transform="matrix(2.20305e-08 1 -0.866025 0.5 184.329 170.121)" fill="#373737" fill-opacity="0.36" style="mix-blend-mode:overlay"/>
<rect width="42.3383" height="42.3383" transform="matrix(2.20305e-08 1 -0.866025 0.5 184.329 170.121)" fill="black" fill-opacity="0.16" style="mix-blend-mode:darken"/>
</g>
<rect width="42.3383" height="42.3383" transform="matrix(2.20305e-08 1 -0.866025 0.5 184.329 170.121)" stroke="black" stroke-opacity="0.16"/>
<g clip-path="url(#clip16_153_827)">
<rect width="42.3383" height="42.3383" transform="matrix(2.20305e-08 1 -0.866025 0.5 184.33 127.782)" fill="#75C37D"/>
<rect width="42.3383" height="42.3383" transform="matrix(2.20305e-08 1 -0.866025 0.5 184.33 127.782)" fill="black" fill-opacity="0.5"/>
<rect width="42.3383" height="42.3383" transform="matrix(2.20305e-08 1 -0.866025 0.5 184.33 127.782)" fill="#373737" fill-opacity="0.36" style="mix-blend-mode:overlay"/>
<rect width="42.3383" height="42.3383" transform="matrix(2.20305e-08 1 -0.866025 0.5 184.33 127.782)" fill="black" fill-opacity="0.16" style="mix-blend-mode:darken"/>
</g>
<rect width="42.3383" height="42.3383" transform="matrix(2.20305e-08 1 -0.866025 0.5 184.33 127.782)" stroke="black" stroke-opacity="0.16"/>
<g clip-path="url(#clip17_153_827)">
<rect width="42.3383" height="42.3383" transform="matrix(0.866025 0.5 -2.20305e-08 1 37.6663 170.121)" fill="#D63B41"/>
<rect width="42.3383" height="42.3383" transform="matrix(0.866025 0.5 -2.20305e-08 1 37.6663 170.121)" fill="black" fill-opacity="0.5"/>
<rect width="42.3383" height="42.3383" transform="matrix(0.866025 0.5 -2.20305e-08 1 37.6663 170.121)" fill="black" fill-opacity="0.16" style="mix-blend-mode:darken"/>
</g>
<rect width="42.3383" height="42.3383" transform="matrix(0.866025 0.5 -2.20305e-08 1 37.6663 170.121)" stroke="black" stroke-opacity="0.16"/>
<g clip-path="url(#clip18_153_827)">
<rect width="42.3383" height="42.3383" transform="matrix(0.866025 0.5 -2.20305e-08 1 37.6663 127.782)" fill="#D63B41"/>
<rect width="42.3383" height="42.3383" transform="matrix(0.866025 0.5 -2.20305e-08 1 37.6663 127.782)" fill="black" fill-opacity="0.5"/>
<rect width="42.3383" height="42.3383" transform="matrix(0.866025 0.5 -2.20305e-08 1 37.6663 127.782)" fill="black" fill-opacity="0.16" style="mix-blend-mode:darken"/>
</g>
<rect width="42.3383" height="42.3383" transform="matrix(0.866025 0.5 -2.20305e-08 1 37.6663 127.782)" stroke="black" stroke-opacity="0.16"/>
<g clip-path="url(#clip19_153_827)">
<rect width="42.3383" height="42.3383" transform="matrix(0.866025 0.5 -0.866025 0.5 74.3321 21.936)" fill="#111111"/>
<rect width="42.3383" height="42.3383" transform="matrix(0.866025 0.5 -0.866025 0.5 74.3321 21.936)" fill="white" fill-opacity="0.08"/>
</g>
<rect width="42.3383" height="42.3383" transform="matrix(0.866025 0.5 -0.866025 0.5 74.3321 21.936)" stroke="black" stroke-opacity="0.16"/>
<g clip-path="url(#clip20_153_827)">
<rect width="42.3383" height="42.3383" transform="matrix(0.866025 0.5 -0.866025 0.5 110.998 0.766602)" fill="#111111"/>
<rect width="42.3383" height="42.3383" transform="matrix(0.866025 0.5 -0.866025 0.5 110.998 0.766602)" fill="white" fill-opacity="0.08"/>
</g>
<rect width="42.3383" height="42.3383" transform="matrix(0.866025 0.5 -0.866025 0.5 110.998 0.766602)" stroke="black" stroke-opacity="0.16"/>
<g clip-path="url(#clip21_153_827)">
<rect width="42.3383" height="42.3383" transform="matrix(0.866025 0.5 -0.866025 0.5 147.664 21.936)" fill="#111111"/>
<rect width="42.3383" height="42.3383" transform="matrix(0.866025 0.5 -0.866025 0.5 147.664 21.936)" fill="white" fill-opacity="0.08"/>
</g>
<rect width="42.3383" height="42.3383" transform="matrix(0.866025 0.5 -0.866025 0.5 147.664 21.936)" stroke="black" stroke-opacity="0.16"/>
<g clip-path="url(#clip22_153_827)">
<rect width="42.3383" height="42.3383" transform="matrix(0.866025 0.5 -2.20305e-08 1 1 106.613)" fill="#D63B41"/>
<rect width="42.3383" height="42.3383" transform="matrix(0.866025 0.5 -2.20305e-08 1 1 106.613)" fill="black" fill-opacity="0.16" style="mix-blend-mode:darken"/>
</g>
<rect width="42.3383" height="42.3383" transform="matrix(0.866025 0.5 -2.20305e-08 1 1 106.613)" stroke="black" stroke-opacity="0.16"/>
<g clip-path="url(#clip23_153_827)">
<rect width="42.3383" height="42.3383" transform="matrix(0.866025 0.5 -2.20305e-08 1 1 148.952)" fill="#D63B41"/>
<rect width="42.3383" height="42.3383" transform="matrix(0.866025 0.5 -2.20305e-08 1 1 148.952)" fill="black" fill-opacity="0.5"/>
<rect width="42.3383" height="42.3383" transform="matrix(0.866025 0.5 -2.20305e-08 1 1 148.952)" fill="black" fill-opacity="0.16" style="mix-blend-mode:darken"/>
</g>
<rect width="42.3383" height="42.3383" transform="matrix(0.866025 0.5 -2.20305e-08 1 1 148.952)" stroke="black" stroke-opacity="0.16"/>
<g clip-path="url(#clip24_153_827)">
<rect width="42.3383" height="42.3383" transform="matrix(2.20305e-08 1 -0.866025 0.5 220.996 106.613)" fill="#75C37D"/>
<rect width="42.3383" height="42.3383" transform="matrix(2.20305e-08 1 -0.866025 0.5 220.996 106.613)" fill="#373737" fill-opacity="0.36" style="mix-blend-mode:overlay"/>
<rect width="42.3383" height="42.3383" transform="matrix(2.20305e-08 1 -0.866025 0.5 220.996 106.613)" fill="black" fill-opacity="0.16" style="mix-blend-mode:darken"/>
</g>
<rect width="42.3383" height="42.3383" transform="matrix(2.20305e-08 1 -0.866025 0.5 220.996 106.613)" stroke="black" stroke-opacity="0.16"/>
<g clip-path="url(#clip25_153_827)">
<rect width="42.3383" height="42.3383" transform="matrix(2.20305e-08 1 -0.866025 0.5 220.996 148.952)" fill="#75C37D"/>
<rect width="42.3383" height="42.3383" transform="matrix(2.20305e-08 1 -0.866025 0.5 220.996 148.952)" fill="black" fill-opacity="0.5"/>
<rect width="42.3383" height="42.3383" transform="matrix(2.20305e-08 1 -0.866025 0.5 220.996 148.952)" fill="#373737" fill-opacity="0.36" style="mix-blend-mode:overlay"/>
<rect width="42.3383" height="42.3383" transform="matrix(2.20305e-08 1 -0.866025 0.5 220.996 148.952)" fill="black" fill-opacity="0.16" style="mix-blend-mode:darken"/>
</g>
<rect width="42.3383" height="42.3383" transform="matrix(2.20305e-08 1 -0.866025 0.5 220.996 148.952)" stroke="black" stroke-opacity="0.16"/>
<g clip-path="url(#clip26_153_827)">
<rect width="42.3383" height="42.3383" transform="matrix(0.866025 0.5 -0.866025 0.5 110.998 43.1052)" fill="#111111"/>
<rect width="42.3383" height="42.3383" transform="matrix(0.866025 0.5 -0.866025 0.5 110.998 43.1052)" fill="white" fill-opacity="0.08"/>
</g>
<rect width="42.3383" height="42.3383" transform="matrix(0.866025 0.5 -0.866025 0.5 110.998 43.1052)" stroke="black" stroke-opacity="0.16"/>
<defs>
<clipPath id="clip0_153_827">
<rect width="42.3383" height="42.3383" transform="matrix(0.866025 0.5 -0.866025 0.5 110.998 85.4438)" fill="white"/>
</clipPath>
<clipPath id="clip1_153_827">
<rect width="42.3383" height="42.3383" transform="matrix(2.20305e-08 1 -0.866025 0.5 147.664 106.613)" fill="white"/>
</clipPath>
<clipPath id="clip2_153_827">
<rect width="42.3383" height="42.3383" transform="matrix(0.866025 0.5 -2.20305e-08 1 74.3332 106.613)" fill="white"/>
</clipPath>
<clipPath id="clip3_153_827">
<rect width="42.3383" height="42.3383" transform="matrix(0.866025 0.5 -0.866025 0.5 147.664 64.2744)" fill="white"/>
</clipPath>
<clipPath id="clip4_153_827">
<rect width="42.3383" height="42.3383" transform="matrix(2.20305e-08 1 -0.866025 0.5 184.33 85.4436)" fill="white"/>
</clipPath>
<clipPath id="clip5_153_827">
<rect width="42.3383" height="42.3383" transform="matrix(0.866025 0.5 -0.866025 0.5 184.33 43.1052)" fill="white"/>
</clipPath>
<clipPath id="clip6_153_827">
<rect width="42.3383" height="42.3383" transform="matrix(2.20305e-08 1 -0.866025 0.5 220.996 64.2744)" fill="white"/>
</clipPath>
<clipPath id="clip7_153_827">
<rect width="42.3383" height="42.3383" transform="matrix(0.866025 0.5 -0.866025 0.5 74.3321 64.2744)" fill="white"/>
</clipPath>
<clipPath id="clip8_153_827">
<rect width="42.3383" height="42.3383" transform="matrix(0.866025 0.5 -2.20305e-08 1 37.6673 85.4436)" fill="white"/>
</clipPath>
<clipPath id="clip9_153_827">
<rect width="42.3383" height="42.3383" transform="matrix(0.866025 0.5 -0.866025 0.5 37.6663 43.1052)" fill="white"/>
</clipPath>
<clipPath id="clip10_153_827">
<rect width="42.3383" height="42.3383" transform="matrix(0.866025 0.5 -2.20305e-08 1 1.00104 64.2744)" fill="white"/>
</clipPath>
<clipPath id="clip11_153_827">
<rect width="42.3383" height="42.3383" transform="matrix(2.20305e-08 1 -0.866025 0.5 147.664 148.952)" fill="white"/>
</clipPath>
<clipPath id="clip12_153_827">
<rect width="42.3383" height="42.3383" transform="matrix(0.866025 0.5 -2.20305e-08 1 74.3334 148.952)" fill="white"/>
</clipPath>
<clipPath id="clip13_153_827">
<rect width="42.3383" height="42.3383" transform="matrix(2.20305e-08 1 -0.866025 0.5 147.664 191.29)" fill="white"/>
</clipPath>
<clipPath id="clip14_153_827">
<rect width="42.3383" height="42.3383" transform="matrix(0.866025 0.5 -2.20305e-08 1 74.3324 191.29)" fill="white"/>
</clipPath>
<clipPath id="clip15_153_827">
<rect width="42.3383" height="42.3383" transform="matrix(2.20305e-08 1 -0.866025 0.5 184.329 170.121)" fill="white"/>
</clipPath>
<clipPath id="clip16_153_827">
<rect width="42.3383" height="42.3383" transform="matrix(2.20305e-08 1 -0.866025 0.5 184.33 127.782)" fill="white"/>
</clipPath>
<clipPath id="clip17_153_827">
<rect width="42.3383" height="42.3383" transform="matrix(0.866025 0.5 -2.20305e-08 1 37.6663 170.121)" fill="white"/>
</clipPath>
<clipPath id="clip18_153_827">
<rect width="42.3383" height="42.3383" transform="matrix(0.866025 0.5 -2.20305e-08 1 37.6663 127.782)" fill="white"/>
</clipPath>
<clipPath id="clip19_153_827">
<rect width="42.3383" height="42.3383" transform="matrix(0.866025 0.5 -0.866025 0.5 74.3321 21.936)" fill="white"/>
</clipPath>
<clipPath id="clip20_153_827">
<rect width="42.3383" height="42.3383" transform="matrix(0.866025 0.5 -0.866025 0.5 110.998 0.766602)" fill="white"/>
</clipPath>
<clipPath id="clip21_153_827">
<rect width="42.3383" height="42.3383" transform="matrix(0.866025 0.5 -0.866025 0.5 147.664 21.936)" fill="white"/>
</clipPath>
<clipPath id="clip22_153_827">
<rect width="42.3383" height="42.3383" transform="matrix(0.866025 0.5 -2.20305e-08 1 1 106.613)" fill="white"/>
</clipPath>
<clipPath id="clip23_153_827">
<rect width="42.3383" height="42.3383" transform="matrix(0.866025 0.5 -2.20305e-08 1 1 148.952)" fill="white"/>
</clipPath>
<clipPath id="clip24_153_827">
<rect width="42.3383" height="42.3383" transform="matrix(2.20305e-08 1 -0.866025 0.5 220.996 106.613)" fill="white"/>
</clipPath>
<clipPath id="clip25_153_827">
<rect width="42.3383" height="42.3383" transform="matrix(2.20305e-08 1 -0.866025 0.5 220.996 148.952)" fill="white"/>
</clipPath>
<clipPath id="clip26_153_827">
<rect width="42.3383" height="42.3383" transform="matrix(0.866025 0.5 -0.866025 0.5 110.998 43.1052)" fill="white"/>
</clipPath>
</defs>
</svg>
