<svg width="29" height="29" viewBox="0 0 29 29" fill="none" xmlns="http://www.w3.org/2000/svg">
<path fill-rule="evenodd" clip-rule="evenodd" d="M9.91511 8.669V7.5C9.91511 6.33968 10.376 5.22688 11.1965 4.40641C12.017 3.58594 13.1298 3.125 14.2901 3.125C15.4504 3.125 16.5632 3.58594 17.3837 4.40641C18.2042 5.22688 18.6651 6.33968 18.6651 7.5V8.669C21.7964 8.683 23.4601 8.809 24.3934 9.94767C25.4434 11.2287 25.0573 13.1653 24.2826 17.0398L23.5826 20.5398C23.0436 23.2337 22.7741 24.58 21.8058 25.3733C20.8386 26.1667 19.4654 26.1667 16.7191 26.1667H11.8611C9.11361 26.1667 7.74044 26.1667 6.77211 25.3733C5.80494 24.58 5.53544 23.2337 4.99644 20.5398L4.29644 17.0398C3.52178 13.1665 3.13444 11.2298 4.18444 9.94767C5.11778 8.809 6.78261 8.683 9.91394 8.669M11.6651 7.5C11.6651 6.80381 11.9417 6.13613 12.434 5.64385C12.9262 5.15156 13.5939 4.875 14.2901 4.875C14.9863 4.875 15.654 5.15156 16.1463 5.64385C16.6385 6.13613 16.9151 6.80381 16.9151 7.5V8.66667H11.6651V7.5ZM17.7901 13.3333C18.0995 13.3333 18.3963 13.2104 18.6151 12.9916C18.8339 12.7728 18.9568 12.4761 18.9568 12.1667C18.9568 11.8572 18.8339 11.5605 18.6151 11.3417C18.3963 11.1229 18.0995 11 17.7901 11C17.4807 11 17.1839 11.1229 16.9652 11.3417C16.7464 11.5605 16.6234 11.8572 16.6234 12.1667C16.6234 12.4761 16.7464 12.7728 16.9652 12.9916C17.1839 13.2104 17.4807 13.3333 17.7901 13.3333ZM11.9568 12.1667C11.9568 12.4761 11.8339 12.7728 11.6151 12.9916C11.3963 13.2104 11.0995 13.3333 10.7901 13.3333C10.4807 13.3333 10.1839 13.2104 9.96515 12.9916C9.74636 12.7728 9.62344 12.4761 9.62344 12.1667C9.62344 11.8572 9.74636 11.5605 9.96515 11.3417C10.1839 11.1229 10.4807 11 10.7901 11C11.0995 11 11.3963 11.1229 11.6151 11.3417C11.8339 11.5605 11.9568 11.8572 11.9568 12.1667Z" fill="#111111"/>
</svg>
