<svg width="296" height="187" viewBox="0 0 296 187" fill="none" xmlns="http://www.w3.org/2000/svg">
<path d="M59.1944 0L0 33.4416H42.2125H91.4275L59.1944 0Z" fill="url(#paint0_linear_38_564)"/>
<path d="M296 33.4416L236.8 0L204.569 33.4416H250.284H296Z" fill="url(#paint1_linear_38_564)"/>
<path d="M236.8 0H59.1944L91.4275 33.4416C59.1944 11.9434 236.8 11.6022 204.569 33.4416L236.8 0Z" fill="url(#paint2_linear_38_564)"/>
<path fill-rule="evenodd" clip-rule="evenodd" d="M296 33.4416L275.773 54.4279C216.9 58.3745 195.239 80.3783 178.587 155.265L148 187V92.135L204.569 33.4416H250.284H296Z" fill="url(#paint3_linear_38_564)"/>
<path d="M0 33.4416L20.2267 54.4279C76.8639 52.7962 97.9398 75.3297 117.413 155.265L148 187V92.135L91.4275 33.4416H42.2125H0Z" fill="url(#paint4_linear_38_564)"/>
<defs>
<linearGradient id="paint0_linear_38_564" x1="60.6697" y1="93.5" x2="147.936" y2="46.8016" gradientUnits="userSpaceOnUse">
<stop stop-color="white" stop-opacity="0.03"/>
<stop offset="1" stop-color="white" stop-opacity="0"/>
</linearGradient>
<linearGradient id="paint1_linear_38_564" x1="191.238" y1="141.444" x2="148.119" y2="43.1148" gradientUnits="userSpaceOnUse">
<stop stop-color="white" stop-opacity="0.03"/>
<stop offset="1" stop-color="white" stop-opacity="0"/>
</linearGradient>
<linearGradient id="paint2_linear_38_564" x1="148" y1="39.4133" x2="148" y2="-11.7728" gradientUnits="userSpaceOnUse">
<stop stop-color="white" stop-opacity="0.03"/>
<stop offset="1" stop-color="white" stop-opacity="0"/>
</linearGradient>
<linearGradient id="paint3_linear_38_564" x1="191.238" y1="142.468" x2="148.119" y2="43.1152" gradientUnits="userSpaceOnUse">
<stop stop-color="white" stop-opacity="0.03"/>
<stop offset="1" stop-color="white" stop-opacity="0"/>
</linearGradient>
<linearGradient id="paint4_linear_38_564" x1="55.7136" y1="93.5" x2="147.946" y2="50.7295" gradientUnits="userSpaceOnUse">
<stop stop-color="white" stop-opacity="0.03"/>
<stop offset="1" stop-color="white" stop-opacity="0"/>
</linearGradient>
</defs>
</svg>
