<svg width="281" height="323" viewBox="0 0 281 323" fill="none" xmlns="http://www.w3.org/2000/svg">
<g clip-path="url(#clip0_20_361)">
<rect width="53.4997" height="53.4997" transform="matrix(0.866025 0.5 -0.866025 0.5 140.5 108)" fill="#01F26D"/>
<rect width="53.4997" height="53.4997" transform="matrix(0.866025 0.5 -0.866025 0.5 140.5 108)" fill="white" fill-opacity="0.08"/>
</g>
<rect width="53.4997" height="53.4997" transform="matrix(0.866025 0.5 -0.866025 0.5 140.5 108)" stroke="black" stroke-opacity="0.16"/>
<g clip-path="url(#clip1_20_361)">
<rect width="53.4997" height="53.4997" transform="matrix(2.20305e-08 1 -0.866025 0.5 186.832 134.75)" fill="#01F26D"/>
<rect width="53.4997" height="53.4997" transform="matrix(2.20305e-08 1 -0.866025 0.5 186.832 134.75)" fill="#373737" fill-opacity="0.36" style="mix-blend-mode:overlay"/>
<rect width="53.4997" height="53.4997" transform="matrix(2.20305e-08 1 -0.866025 0.5 186.832 134.75)" fill="black" fill-opacity="0.16" style="mix-blend-mode:darken"/>
</g>
<rect width="53.4997" height="53.4997" transform="matrix(2.20305e-08 1 -0.866025 0.5 186.832 134.75)" stroke="black" stroke-opacity="0.16"/>
<g clip-path="url(#clip2_20_361)">
<rect width="53.4997" height="53.4997" transform="matrix(0.866025 0.5 -2.20305e-08 1 94.1692 134.75)" fill="#01F26D"/>
<rect width="53.4997" height="53.4997" transform="matrix(0.866025 0.5 -2.20305e-08 1 94.1692 134.75)" fill="black" fill-opacity="0.16" style="mix-blend-mode:darken"/>
</g>
<rect width="53.4997" height="53.4997" transform="matrix(0.866025 0.5 -2.20305e-08 1 94.1692 134.75)" stroke="black" stroke-opacity="0.16"/>
<g clip-path="url(#clip3_20_361)">
<rect width="53.4997" height="53.4997" transform="matrix(0.866025 0.5 -0.866025 0.5 186.832 81.2501)" fill="#111111"/>
<rect width="53.4997" height="53.4997" transform="matrix(0.866025 0.5 -0.866025 0.5 186.832 81.2501)" fill="white" fill-opacity="0.08"/>
</g>
<rect width="53.4997" height="53.4997" transform="matrix(0.866025 0.5 -0.866025 0.5 186.832 81.2501)" stroke="black" stroke-opacity="0.16"/>
<g clip-path="url(#clip4_20_361)">
<rect width="53.4997" height="53.4997" transform="matrix(2.20305e-08 1 -0.866025 0.5 233.164 108)" fill="#111111"/>
<rect width="53.4997" height="53.4997" transform="matrix(2.20305e-08 1 -0.866025 0.5 233.164 108)" fill="#373737" fill-opacity="0.36" style="mix-blend-mode:overlay"/>
<rect width="53.4997" height="53.4997" transform="matrix(2.20305e-08 1 -0.866025 0.5 233.164 108)" fill="black" fill-opacity="0.16" style="mix-blend-mode:darken"/>
</g>
<rect width="53.4997" height="53.4997" transform="matrix(2.20305e-08 1 -0.866025 0.5 233.164 108)" stroke="black" stroke-opacity="0.16"/>
<g clip-path="url(#clip5_20_361)">
<rect width="53.4997" height="53.4997" transform="matrix(0.866025 0.5 -0.866025 0.5 233.164 54.5001)" fill="#01F26D"/>
<rect width="53.4997" height="53.4997" transform="matrix(0.866025 0.5 -0.866025 0.5 233.164 54.5001)" fill="white" fill-opacity="0.08"/>
</g>
<rect width="53.4997" height="53.4997" transform="matrix(0.866025 0.5 -0.866025 0.5 233.164 54.5001)" stroke="black" stroke-opacity="0.16"/>
<g clip-path="url(#clip6_20_361)">
<rect width="53.4997" height="53.4997" transform="matrix(2.20305e-08 1 -0.866025 0.5 279.496 81.25)" fill="#01F26D"/>
<rect width="53.4997" height="53.4997" transform="matrix(2.20305e-08 1 -0.866025 0.5 279.496 81.25)" fill="#373737" fill-opacity="0.36" style="mix-blend-mode:overlay"/>
<rect width="53.4997" height="53.4997" transform="matrix(2.20305e-08 1 -0.866025 0.5 279.496 81.25)" fill="black" fill-opacity="0.16" style="mix-blend-mode:darken"/>
</g>
<rect width="53.4997" height="53.4997" transform="matrix(2.20305e-08 1 -0.866025 0.5 279.496 81.25)" stroke="black" stroke-opacity="0.16"/>
<g clip-path="url(#clip7_20_361)">
<rect width="53.4997" height="53.4997" transform="matrix(0.866025 0.5 -0.866025 0.5 94.1675 81.2501)" fill="#111111"/>
<rect width="53.4997" height="53.4997" transform="matrix(0.866025 0.5 -0.866025 0.5 94.1675 81.2501)" fill="white" fill-opacity="0.08"/>
</g>
<rect width="53.4997" height="53.4997" transform="matrix(0.866025 0.5 -0.866025 0.5 94.1675 81.2501)" stroke="black" stroke-opacity="0.16"/>
<g clip-path="url(#clip8_20_361)">
<rect width="53.4997" height="53.4997" transform="matrix(0.866025 0.5 -2.20305e-08 1 47.8372 108)" fill="#111111"/>
<rect width="53.4997" height="53.4997" transform="matrix(0.866025 0.5 -2.20305e-08 1 47.8372 108)" fill="black" fill-opacity="0.16" style="mix-blend-mode:darken"/>
</g>
<rect width="53.4997" height="53.4997" transform="matrix(0.866025 0.5 -2.20305e-08 1 47.8372 108)" stroke="black" stroke-opacity="0.16"/>
<g clip-path="url(#clip9_20_361)">
<rect width="53.4997" height="53.4997" transform="matrix(0.866025 0.5 -0.866025 0.5 47.8357 54.5)" fill="#01F26D"/>
<rect width="53.4997" height="53.4997" transform="matrix(0.866025 0.5 -0.866025 0.5 47.8357 54.5)" fill="white" fill-opacity="0.08"/>
</g>
<rect width="53.4997" height="53.4997" transform="matrix(0.866025 0.5 -0.866025 0.5 47.8357 54.5)" stroke="black" stroke-opacity="0.16"/>
<g clip-path="url(#clip10_20_361)">
<rect width="53.4997" height="53.4997" transform="matrix(0.866025 0.5 -2.20305e-08 1 1.50464 81.2499)" fill="#01F26D"/>
<rect width="53.4997" height="53.4997" transform="matrix(0.866025 0.5 -2.20305e-08 1 1.50464 81.2499)" fill="black" fill-opacity="0.16" style="mix-blend-mode:darken"/>
</g>
<rect width="53.4997" height="53.4997" transform="matrix(0.866025 0.5 -2.20305e-08 1 1.50464 81.2499)" stroke="black" stroke-opacity="0.16"/>
<g clip-path="url(#clip11_20_361)">
<rect width="53.4997" height="53.4997" transform="matrix(2.20305e-08 1 -0.866025 0.5 186.832 188.25)" fill="#111111"/>
<rect width="53.4997" height="53.4997" transform="matrix(2.20305e-08 1 -0.866025 0.5 186.832 188.25)" fill="#373737" fill-opacity="0.36" style="mix-blend-mode:overlay"/>
<rect width="53.4997" height="53.4997" transform="matrix(2.20305e-08 1 -0.866025 0.5 186.832 188.25)" fill="black" fill-opacity="0.16" style="mix-blend-mode:darken"/>
</g>
<rect width="53.4997" height="53.4997" transform="matrix(2.20305e-08 1 -0.866025 0.5 186.832 188.25)" stroke="black" stroke-opacity="0.16"/>
<g clip-path="url(#clip12_20_361)">
<rect width="53.4997" height="53.4997" transform="matrix(0.866025 0.5 -2.20305e-08 1 94.1694 188.25)" fill="#111111"/>
<rect width="53.4997" height="53.4997" transform="matrix(0.866025 0.5 -2.20305e-08 1 94.1694 188.25)" fill="black" fill-opacity="0.16" style="mix-blend-mode:darken"/>
</g>
<rect width="53.4997" height="53.4997" transform="matrix(0.866025 0.5 -2.20305e-08 1 94.1694 188.25)" stroke="black" stroke-opacity="0.16"/>
<g clip-path="url(#clip13_20_361)">
<rect width="53.4997" height="53.4997" transform="matrix(2.20305e-08 1 -0.866025 0.5 186.831 241.75)" fill="#01F26D"/>
<rect width="53.4997" height="53.4997" transform="matrix(2.20305e-08 1 -0.866025 0.5 186.831 241.75)" fill="#373737" fill-opacity="0.36" style="mix-blend-mode:overlay"/>
<rect width="53.4997" height="53.4997" transform="matrix(2.20305e-08 1 -0.866025 0.5 186.831 241.75)" fill="black" fill-opacity="0.16" style="mix-blend-mode:darken"/>
</g>
<rect width="53.4997" height="53.4997" transform="matrix(2.20305e-08 1 -0.866025 0.5 186.831 241.75)" stroke="black" stroke-opacity="0.16"/>
<g clip-path="url(#clip14_20_361)">
<rect width="53.4997" height="53.4997" transform="matrix(0.866025 0.5 -2.20305e-08 1 94.168 241.75)" fill="#01F26D"/>
<rect width="53.4997" height="53.4997" transform="matrix(0.866025 0.5 -2.20305e-08 1 94.168 241.75)" fill="black" fill-opacity="0.16" style="mix-blend-mode:darken"/>
</g>
<rect width="53.4997" height="53.4997" transform="matrix(0.866025 0.5 -2.20305e-08 1 94.168 241.75)" stroke="black" stroke-opacity="0.16"/>
<g clip-path="url(#clip15_20_361)">
<rect width="53.4997" height="53.4997" transform="matrix(2.20305e-08 1 -0.866025 0.5 233.163 215)" fill="#111111"/>
<rect width="53.4997" height="53.4997" transform="matrix(2.20305e-08 1 -0.866025 0.5 233.163 215)" fill="#373737" fill-opacity="0.36" style="mix-blend-mode:overlay"/>
<rect width="53.4997" height="53.4997" transform="matrix(2.20305e-08 1 -0.866025 0.5 233.163 215)" fill="black" fill-opacity="0.16" style="mix-blend-mode:darken"/>
</g>
<rect width="53.4997" height="53.4997" transform="matrix(2.20305e-08 1 -0.866025 0.5 233.163 215)" stroke="black" stroke-opacity="0.16"/>
<g clip-path="url(#clip16_20_361)">
<rect width="53.4997" height="53.4997" transform="matrix(2.20305e-08 1 -0.866025 0.5 233.164 161.5)" fill="#01F26D"/>
<rect width="53.4997" height="53.4997" transform="matrix(2.20305e-08 1 -0.866025 0.5 233.164 161.5)" fill="#373737" fill-opacity="0.36" style="mix-blend-mode:overlay"/>
<rect width="53.4997" height="53.4997" transform="matrix(2.20305e-08 1 -0.866025 0.5 233.164 161.5)" fill="black" fill-opacity="0.16" style="mix-blend-mode:darken"/>
</g>
<rect width="53.4997" height="53.4997" transform="matrix(2.20305e-08 1 -0.866025 0.5 233.164 161.5)" stroke="black" stroke-opacity="0.16"/>
<g clip-path="url(#clip17_20_361)">
<rect width="53.4997" height="53.4997" transform="matrix(0.866025 0.5 -2.20305e-08 1 47.8359 215)" fill="#111111"/>
<rect width="53.4997" height="53.4997" transform="matrix(0.866025 0.5 -2.20305e-08 1 47.8359 215)" fill="black" fill-opacity="0.16" style="mix-blend-mode:darken"/>
</g>
<rect width="53.4997" height="53.4997" transform="matrix(0.866025 0.5 -2.20305e-08 1 47.8359 215)" stroke="black" stroke-opacity="0.16"/>
<g clip-path="url(#clip18_20_361)">
<rect width="53.4997" height="53.4997" transform="matrix(0.866025 0.5 -2.20305e-08 1 47.8359 161.5)" fill="#01F26D"/>
<rect width="53.4997" height="53.4997" transform="matrix(0.866025 0.5 -2.20305e-08 1 47.8359 161.5)" fill="black" fill-opacity="0.16" style="mix-blend-mode:darken"/>
</g>
<rect width="53.4997" height="53.4997" transform="matrix(0.866025 0.5 -2.20305e-08 1 47.8359 161.5)" stroke="black" stroke-opacity="0.16"/>
<g clip-path="url(#clip19_20_361)">
<rect width="53.4997" height="53.4997" transform="matrix(0.866025 0.5 -0.866025 0.5 94.1675 27.7501)" fill="#111111"/>
<rect width="53.4997" height="53.4997" transform="matrix(0.866025 0.5 -0.866025 0.5 94.1675 27.7501)" fill="white" fill-opacity="0.08"/>
</g>
<rect width="53.4997" height="53.4997" transform="matrix(0.866025 0.5 -0.866025 0.5 94.1675 27.7501)" stroke="black" stroke-opacity="0.16"/>
<g clip-path="url(#clip20_20_361)">
<rect width="53.4997" height="53.4997" transform="matrix(0.866025 0.5 -0.866025 0.5 140.5 1)" fill="#01F26D"/>
<rect width="53.4997" height="53.4997" transform="matrix(0.866025 0.5 -0.866025 0.5 140.5 1)" fill="white" fill-opacity="0.08"/>
</g>
<rect width="53.4997" height="53.4997" transform="matrix(0.866025 0.5 -0.866025 0.5 140.5 1)" stroke="black" stroke-opacity="0.16"/>
<g clip-path="url(#clip21_20_361)">
<rect width="53.4997" height="53.4997" transform="matrix(0.866025 0.5 -0.866025 0.5 186.832 27.7501)" fill="#111111"/>
<rect width="53.4997" height="53.4997" transform="matrix(0.866025 0.5 -0.866025 0.5 186.832 27.7501)" fill="white" fill-opacity="0.08"/>
</g>
<rect width="53.4997" height="53.4997" transform="matrix(0.866025 0.5 -0.866025 0.5 186.832 27.7501)" stroke="black" stroke-opacity="0.16"/>
<g clip-path="url(#clip22_20_361)">
<rect width="53.4997" height="53.4997" transform="matrix(0.866025 0.5 -2.20305e-08 1 1.50342 134.75)" fill="#111111"/>
<rect width="53.4997" height="53.4997" transform="matrix(0.866025 0.5 -2.20305e-08 1 1.50342 134.75)" fill="black" fill-opacity="0.16" style="mix-blend-mode:darken"/>
</g>
<rect width="53.4997" height="53.4997" transform="matrix(0.866025 0.5 -2.20305e-08 1 1.50342 134.75)" stroke="black" stroke-opacity="0.16"/>
<g clip-path="url(#clip23_20_361)">
<rect width="53.4997" height="53.4997" transform="matrix(0.866025 0.5 -2.20305e-08 1 1.50342 188.25)" fill="#01F26D"/>
<rect width="53.4997" height="53.4997" transform="matrix(0.866025 0.5 -2.20305e-08 1 1.50342 188.25)" fill="black" fill-opacity="0.16" style="mix-blend-mode:darken"/>
</g>
<rect width="53.4997" height="53.4997" transform="matrix(0.866025 0.5 -2.20305e-08 1 1.50342 188.25)" stroke="black" stroke-opacity="0.16"/>
<g clip-path="url(#clip24_20_361)">
<rect width="53.4997" height="53.4997" transform="matrix(2.20305e-08 1 -0.866025 0.5 279.496 134.75)" fill="#111111"/>
<rect width="53.4997" height="53.4997" transform="matrix(2.20305e-08 1 -0.866025 0.5 279.496 134.75)" fill="#373737" fill-opacity="0.36" style="mix-blend-mode:overlay"/>
<rect width="53.4997" height="53.4997" transform="matrix(2.20305e-08 1 -0.866025 0.5 279.496 134.75)" fill="black" fill-opacity="0.16" style="mix-blend-mode:darken"/>
</g>
<rect width="53.4997" height="53.4997" transform="matrix(2.20305e-08 1 -0.866025 0.5 279.496 134.75)" stroke="black" stroke-opacity="0.16"/>
<g clip-path="url(#clip25_20_361)">
<rect width="53.4997" height="53.4997" transform="matrix(2.20305e-08 1 -0.866025 0.5 279.496 188.25)" fill="#01F26D"/>
<rect width="53.4997" height="53.4997" transform="matrix(2.20305e-08 1 -0.866025 0.5 279.496 188.25)" fill="#373737" fill-opacity="0.36" style="mix-blend-mode:overlay"/>
<rect width="53.4997" height="53.4997" transform="matrix(2.20305e-08 1 -0.866025 0.5 279.496 188.25)" fill="black" fill-opacity="0.16" style="mix-blend-mode:darken"/>
</g>
<rect width="53.4997" height="53.4997" transform="matrix(2.20305e-08 1 -0.866025 0.5 279.496 188.25)" stroke="black" stroke-opacity="0.16"/>
<g clip-path="url(#clip26_20_361)">
<rect width="53.4997" height="53.4997" transform="matrix(0.866025 0.5 -0.866025 0.5 140.5 54.5001)" fill="#01F26D"/>
<g clip-path="url(#clip27_20_361)">
<path d="M151.174 71.8546C149.733 71.4394 148.325 71.218 146.791 71.1651C146.51 71.1555 145.834 71.1581 145.54 71.1699C144.024 71.2303 142.584 71.4552 141.286 71.834C140.443 72.0799 139.725 72.3621 138.964 72.7467C138.772 72.8442 138.226 73.1597 138.051 73.2743C137.34 73.7402 136.805 74.1952 136.378 74.6962C136.313 74.7732 136.258 74.8357 136.255 74.8357C136.252 74.8357 136.166 74.8038 136.063 74.7644C134.34 74.1047 132.564 73.7463 130.645 73.6707C130.363 73.6602 129.592 73.658 129.314 73.668C127.955 73.7162 126.712 73.885 125.516 74.1834C124.413 74.459 123.478 74.8125 122.491 75.3283C122.281 75.4377 121.718 75.7685 121.57 75.8687C121.395 75.9881 121.252 76.0896 121.124 76.1889C120.992 76.2904 120.761 76.4851 120.773 76.4855C120.776 76.4851 120.837 76.4466 120.908 76.3993C121.076 76.2869 121.649 75.9557 121.827 75.8682C122.688 75.4452 123.567 75.1542 124.574 74.9573C125.289 74.8178 126.001 74.7351 126.748 74.7049C127.013 74.694 127.699 74.697 127.965 74.7102C129.542 74.7872 131.044 75.1157 132.334 75.6661C133.343 76.0966 134.234 76.7165 134.821 77.3977C135.707 78.4263 135.918 79.6027 135.422 80.7442C135.359 80.8898 135.211 81.1611 135.123 81.2875C134.815 81.7412 134.376 82.1835 133.876 82.5449C133.671 82.6932 133.584 82.7505 133.325 82.905C132.774 83.2348 132.244 83.4785 131.6 83.6982C130.241 84.1623 128.776 84.3916 127.223 84.3824C124.654 84.3675 122.389 83.7362 120.748 82.5782C119.783 81.8957 119.214 81.1086 118.979 80.1277C118.965 80.0695 118.949 80.0218 118.944 80.0218C118.932 80.0218 118.934 80.0774 118.953 80.2502C119.059 81.2035 119.419 82.0322 120.055 82.7772C120.484 83.2795 121.009 83.7244 121.714 84.182C121.896 84.3006 122.422 84.6042 122.635 84.7136C123.687 85.2557 124.79 85.635 126.139 85.9189C127.534 86.212 128.977 86.3323 130.593 86.2908C130.715 86.2882 130.816 86.2864 130.819 86.2882C130.821 86.2895 130.818 86.3183 130.814 86.3525C130.794 86.475 130.781 86.667 130.781 86.835C130.781 87.885 131.249 88.9451 132.111 89.8472C132.496 90.2497 132.949 90.619 133.531 91.0053C133.701 91.1177 134.319 91.4756 134.504 91.5675C135.251 91.9398 135.983 92.225 136.793 92.46C138.086 92.8349 139.569 93.069 140.987 93.1228C141.214 93.1315 141.652 93.1381 141.748 93.1342L141.845 93.1307L141.763 93.1254C141.014 93.0769 140.455 93.009 139.841 92.8922C138.235 92.5855 136.921 92.0492 135.855 91.2647C134.988 90.6273 134.428 89.8783 134.226 89.0899C134.117 88.6629 134.098 88.1795 134.176 87.7564C134.338 86.8683 134.926 86.0383 135.889 85.3348C136.145 85.148 136.228 85.0947 136.601 84.8794C136.884 84.7162 136.991 84.658 137.119 84.5963C138.337 84.0118 139.712 83.661 141.295 83.5297C143.12 83.3792 144.916 83.5665 146.532 84.0766C147.557 84.3999 148.467 84.8589 149.191 85.4158C149.925 85.9806 150.435 86.6329 150.682 87.3224C150.931 88.0211 150.905 88.7443 150.602 89.4587C150.166 90.4886 149.201 91.3767 147.768 92.064C147.69 92.1021 147.622 92.1358 147.619 92.1393C147.611 92.1489 147.853 92.0575 148.043 91.98C148.538 91.7775 149.026 91.5325 149.526 91.235C150.316 90.7651 150.865 90.3385 151.352 89.817C151.666 89.481 151.896 89.1748 152.109 88.8104C152.42 88.2784 152.591 87.7779 152.658 87.2025C152.677 87.0402 152.68 86.6027 152.664 86.447C152.604 85.89 152.439 85.3987 152.138 84.8733C151.829 84.3325 151.398 83.8167 150.815 83.2904C150.781 83.2594 150.762 83.2357 150.767 83.2327C150.771 83.23 150.841 83.2099 150.92 83.1889C152.058 82.8809 153.251 82.3752 154.165 81.8134C155.482 81.0027 156.398 80.0341 156.85 78.974C157.146 78.281 157.229 77.5495 157.095 76.8404C156.931 75.9802 156.515 75.1918 155.872 74.5242C155.785 74.4345 155.754 74.41 155.797 74.4634C155.883 74.5715 156.075 74.8856 156.159 75.0532C156.544 75.8223 156.596 76.601 156.315 77.3824C156.157 77.8221 155.889 78.2526 155.521 78.6538C155.231 78.9701 154.964 79.1994 154.55 79.4881C154.389 79.6005 153.743 79.9764 153.554 80.0678C153.201 80.2384 152.912 80.3614 152.585 80.4817C151.051 81.0447 149.36 81.2884 147.502 81.2154C146.405 81.172 145.328 81.0062 144.367 80.7323C143.726 80.5499 143.177 80.3382 142.578 80.0415C142.406 79.9562 141.918 79.6745 141.768 79.5734C140.524 78.7382 139.87 77.8077 139.741 76.6877C139.715 76.4562 139.73 76.0563 139.775 75.8183C139.904 75.1341 140.287 74.4862 140.915 73.8881C141.287 73.535 141.655 73.2651 142.179 72.9623C142.864 72.5668 143.515 72.2934 144.337 72.0558C145.51 71.7172 146.768 71.5457 148.081 71.5448C149.129 71.544 150.218 71.6652 151.244 71.8953C151.548 71.964 151.543 71.9609 151.174 71.8546ZM140.623 80.8925C140.849 81.0627 140.949 81.2412 140.951 81.4757C140.952 81.6734 140.86 81.8563 140.675 82.0217C140.597 82.0912 140.34 82.2369 140.209 82.2855C139.924 82.3922 139.651 82.4386 139.314 82.4382C138.973 82.4382 138.669 82.3852 138.365 82.2728C138.283 82.2417 138.247 82.2238 138.11 82.1446C137.974 82.0663 137.942 82.0453 137.893 82.0011C137.71 81.834 137.631 81.6765 137.632 81.48C137.632 81.3182 137.676 81.193 137.778 81.064C137.957 80.8365 138.306 80.6514 138.714 80.5678C139.017 80.5053 139.436 80.4987 139.755 80.5499C140.098 80.6055 140.399 80.724 140.623 80.8925Z" fill="#111111"/>
<path d="M146.323 77.1006C145.636 76.7467 144.962 76.4667 144.242 76.2357C143.21 75.9054 142.011 75.6669 140.93 75.579C140.7 75.5602 140.34 75.5414 140.33 75.5471C140.32 75.5528 140.263 75.7886 140.239 75.9242C140.184 76.2248 140.183 76.5551 140.235 76.7891L140.244 76.8289L140.413 76.8443C141.787 76.9672 142.932 77.2271 143.955 77.6462C144.305 77.7897 144.562 77.9131 144.912 78.1082C146.238 78.848 146.986 79.688 147.309 80.8041L147.346 80.9301L147.505 80.9375C148.157 80.9699 148.854 80.9493 149.446 80.8819C149.554 80.8701 149.577 80.8658 149.576 80.8557C149.575 80.8277 149.536 80.6466 149.51 80.5521C149.371 80.031 149.104 79.5183 148.713 79.0186C148.294 78.4823 147.787 78.0189 147.131 77.5749C147.009 77.4922 146.478 77.1803 146.323 77.1006Z" fill="#111111"/>
<path d="M147.588 84.8229C147.173 84.6273 146.776 84.4668 146.385 84.3386C146.26 84.2975 145.909 84.1911 145.897 84.1911C145.894 84.1911 145.846 84.2275 145.791 84.2716C145.128 84.801 144.065 85.3168 142.984 85.634C142.429 85.7968 141.894 85.9114 141.246 86.0063C139.562 86.2526 137.864 86.18 136.19 85.7906C136.107 85.771 136.021 85.7504 135.999 85.7447C135.961 85.7338 135.959 85.7338 135.933 85.7539C135.864 85.8099 135.657 86.0037 135.549 86.1157C135.339 86.3349 135.183 86.5375 135.043 86.7693C135.001 86.8398 134.968 86.8984 134.97 86.8993C134.977 86.9036 135.378 86.9995 135.53 87.0336C135.748 87.0826 136.183 87.1675 136.408 87.2046C138.164 87.496 139.909 87.521 141.691 87.2799C142.069 87.2287 142.581 87.139 142.939 87.0598C143.643 86.9054 144.368 86.6923 144.968 86.4622C145.989 86.0715 147.039 85.4988 147.615 85.0171C147.653 84.9856 147.695 84.9537 147.708 84.9458C147.754 84.9196 147.752 84.9082 147.703 84.8806C147.679 84.8675 147.627 84.8413 147.588 84.8229Z" fill="#111111"/>
<path d="M133.269 76.6224C132.839 76.7974 132.45 76.9886 132.015 77.2397C131.355 77.6208 130.846 77.9962 130.413 78.4201C129.889 78.9333 129.505 79.4771 129.248 80.0695C128.775 81.158 128.858 82.2614 129.496 83.3665C129.616 83.573 129.814 83.8661 129.834 83.8661C129.84 83.8661 129.932 83.8473 130.037 83.8241C130.518 83.7191 130.956 83.5962 131.391 83.4461C131.547 83.3919 131.823 83.2882 131.821 83.2842C131.82 83.2829 131.795 83.2435 131.763 83.1972C131.466 82.7579 131.273 82.26 131.217 81.7867C131.2 81.6484 131.197 81.3745 131.212 81.2297C131.313 80.1732 132.016 79.173 133.218 78.3759C133.384 78.2652 133.778 78.0404 133.979 77.9406C134.139 77.8614 134.45 77.7188 134.503 77.7004C134.531 77.6904 134.532 77.693 134.415 77.5534C134.146 77.2371 133.832 76.9501 133.474 76.695C133.323 76.5879 133.34 76.594 133.269 76.6224Z" fill="#111111"/>
<path d="M120.757 76.4971C120.744 76.505 120.744 76.5093 120.757 76.5057C120.77 76.5029 120.78 76.4957 120.78 76.4914C120.781 76.4864 120.77 76.4885 120.757 76.4971Z" fill="#111111"/>
<path d="M147.587 92.1493C147.572 92.1574 147.569 92.1615 147.579 92.1592C147.588 92.1568 147.6 92.1499 147.605 92.1446C147.608 92.1394 147.601 92.1412 147.587 92.1493Z" fill="#111111"/>
</g>
<rect width="53.4997" height="53.4997" transform="matrix(0.866025 0.5 -0.866025 0.5 140.5 54.5001)" fill="white" fill-opacity="0.08"/>
</g>
<rect width="53.4997" height="53.4997" transform="matrix(0.866025 0.5 -0.866025 0.5 140.5 54.5001)" stroke="black" stroke-opacity="0.16"/>
<defs>
<clipPath id="clip0_20_361">
<rect width="53.4997" height="53.4997" transform="matrix(0.866025 0.5 -0.866025 0.5 140.5 108)" fill="white"/>
</clipPath>
<clipPath id="clip1_20_361">
<rect width="53.4997" height="53.4997" transform="matrix(2.20305e-08 1 -0.866025 0.5 186.832 134.75)" fill="white"/>
</clipPath>
<clipPath id="clip2_20_361">
<rect width="53.4997" height="53.4997" transform="matrix(0.866025 0.5 -2.20305e-08 1 94.1692 134.75)" fill="white"/>
</clipPath>
<clipPath id="clip3_20_361">
<rect width="53.4997" height="53.4997" transform="matrix(0.866025 0.5 -0.866025 0.5 186.832 81.2501)" fill="white"/>
</clipPath>
<clipPath id="clip4_20_361">
<rect width="53.4997" height="53.4997" transform="matrix(2.20305e-08 1 -0.866025 0.5 233.164 108)" fill="white"/>
</clipPath>
<clipPath id="clip5_20_361">
<rect width="53.4997" height="53.4997" transform="matrix(0.866025 0.5 -0.866025 0.5 233.164 54.5001)" fill="white"/>
</clipPath>
<clipPath id="clip6_20_361">
<rect width="53.4997" height="53.4997" transform="matrix(2.20305e-08 1 -0.866025 0.5 279.496 81.25)" fill="white"/>
</clipPath>
<clipPath id="clip7_20_361">
<rect width="53.4997" height="53.4997" transform="matrix(0.866025 0.5 -0.866025 0.5 94.1675 81.2501)" fill="white"/>
</clipPath>
<clipPath id="clip8_20_361">
<rect width="53.4997" height="53.4997" transform="matrix(0.866025 0.5 -2.20305e-08 1 47.8372 108)" fill="white"/>
</clipPath>
<clipPath id="clip9_20_361">
<rect width="53.4997" height="53.4997" transform="matrix(0.866025 0.5 -0.866025 0.5 47.8357 54.5)" fill="white"/>
</clipPath>
<clipPath id="clip10_20_361">
<rect width="53.4997" height="53.4997" transform="matrix(0.866025 0.5 -2.20305e-08 1 1.50464 81.2499)" fill="white"/>
</clipPath>
<clipPath id="clip11_20_361">
<rect width="53.4997" height="53.4997" transform="matrix(2.20305e-08 1 -0.866025 0.5 186.832 188.25)" fill="white"/>
</clipPath>
<clipPath id="clip12_20_361">
<rect width="53.4997" height="53.4997" transform="matrix(0.866025 0.5 -2.20305e-08 1 94.1694 188.25)" fill="white"/>
</clipPath>
<clipPath id="clip13_20_361">
<rect width="53.4997" height="53.4997" transform="matrix(2.20305e-08 1 -0.866025 0.5 186.831 241.75)" fill="white"/>
</clipPath>
<clipPath id="clip14_20_361">
<rect width="53.4997" height="53.4997" transform="matrix(0.866025 0.5 -2.20305e-08 1 94.168 241.75)" fill="white"/>
</clipPath>
<clipPath id="clip15_20_361">
<rect width="53.4997" height="53.4997" transform="matrix(2.20305e-08 1 -0.866025 0.5 233.163 215)" fill="white"/>
</clipPath>
<clipPath id="clip16_20_361">
<rect width="53.4997" height="53.4997" transform="matrix(2.20305e-08 1 -0.866025 0.5 233.164 161.5)" fill="white"/>
</clipPath>
<clipPath id="clip17_20_361">
<rect width="53.4997" height="53.4997" transform="matrix(0.866025 0.5 -2.20305e-08 1 47.8359 215)" fill="white"/>
</clipPath>
<clipPath id="clip18_20_361">
<rect width="53.4997" height="53.4997" transform="matrix(0.866025 0.5 -2.20305e-08 1 47.8359 161.5)" fill="white"/>
</clipPath>
<clipPath id="clip19_20_361">
<rect width="53.4997" height="53.4997" transform="matrix(0.866025 0.5 -0.866025 0.5 94.1675 27.7501)" fill="white"/>
</clipPath>
<clipPath id="clip20_20_361">
<rect width="53.4997" height="53.4997" transform="matrix(0.866025 0.5 -0.866025 0.5 140.5 1)" fill="white"/>
</clipPath>
<clipPath id="clip21_20_361">
<rect width="53.4997" height="53.4997" transform="matrix(0.866025 0.5 -0.866025 0.5 186.832 27.7501)" fill="white"/>
</clipPath>
<clipPath id="clip22_20_361">
<rect width="53.4997" height="53.4997" transform="matrix(0.866025 0.5 -2.20305e-08 1 1.50342 134.75)" fill="white"/>
</clipPath>
<clipPath id="clip23_20_361">
<rect width="53.4997" height="53.4997" transform="matrix(0.866025 0.5 -2.20305e-08 1 1.50342 188.25)" fill="white"/>
</clipPath>
<clipPath id="clip24_20_361">
<rect width="53.4997" height="53.4997" transform="matrix(2.20305e-08 1 -0.866025 0.5 279.496 134.75)" fill="white"/>
</clipPath>
<clipPath id="clip25_20_361">
<rect width="53.4997" height="53.4997" transform="matrix(2.20305e-08 1 -0.866025 0.5 279.496 188.25)" fill="white"/>
</clipPath>
<clipPath id="clip26_20_361">
<rect width="53.4997" height="53.4997" transform="matrix(0.866025 0.5 -0.866025 0.5 140.5 54.5001)" fill="white"/>
</clipPath>
<clipPath id="clip27_20_361">
<rect width="35" height="35" fill="white" transform="matrix(0.866025 0.5 -0.866025 0.5 140.814 63)"/>
</clipPath>
</defs>
</svg>
