<svg width="28" height="29" viewBox="0 0 28 29" fill="none" xmlns="http://www.w3.org/2000/svg">
<path d="M24.4383 10.6398C24.4265 9.75619 24.2611 8.88137 23.9494 8.05447C23.6792 7.35698 23.2664 6.72353 22.7375 6.1946C22.2085 5.66567 21.5751 5.25289 20.8776 4.98263C20.0613 4.67622 19.199 4.51053 18.3273 4.49263C17.2049 4.44247 16.8491 4.42847 14.0001 4.42847C11.1511 4.42847 10.7859 4.42847 9.67175 4.49263C8.80044 4.51066 7.93849 4.67635 7.12258 4.98263C6.42498 5.2527 5.79144 5.66542 5.26249 6.19437C4.73353 6.72332 4.32082 7.35687 4.05075 8.05447C3.74372 8.87012 3.57839 9.73226 3.56192 10.6036C3.51175 11.7271 3.49658 12.083 3.49658 14.932C3.49658 17.781 3.49658 18.145 3.56192 19.2603C3.57942 20.133 3.74392 20.994 4.05075 21.8118C4.32127 22.5092 4.73429 23.1425 5.26342 23.6712C5.79255 24.1999 6.42616 24.6125 7.12375 24.8825C7.93742 25.2012 8.79952 25.3787 9.67292 25.4075C10.7964 25.4576 11.1523 25.4728 14.0013 25.4728C16.8503 25.4728 17.2154 25.4728 18.3296 25.4075C19.2013 25.3903 20.0637 25.225 20.8799 24.9186C21.5772 24.6481 22.2105 24.2352 22.7394 23.7063C23.2683 23.1774 23.6812 22.5441 23.9518 21.8468C24.2586 21.0301 24.4231 20.1691 24.4406 19.2953C24.4908 18.173 24.5059 17.8171 24.5059 14.967C24.5036 12.118 24.5036 11.7563 24.4383 10.6398ZM13.9931 20.3196C11.0134 20.3196 8.59958 17.9058 8.59958 14.9261C8.59958 11.9465 11.0134 9.53263 13.9931 9.53263C15.4235 9.53263 16.7954 10.1009 17.8069 11.1124C18.8183 12.1238 19.3866 13.4957 19.3866 14.9261C19.3866 16.3566 18.8183 17.7284 17.8069 18.7399C16.7954 19.7514 15.4235 20.3196 13.9931 20.3196ZM19.6013 10.5908C19.4361 10.591 19.2724 10.5585 19.1198 10.4954C18.9671 10.4322 18.8284 10.3396 18.7116 10.2228C18.5948 10.106 18.5022 9.96726 18.439 9.8146C18.3759 9.66195 18.3434 9.49833 18.3436 9.33313C18.3436 9.16805 18.3761 9.00458 18.4393 8.85207C18.5025 8.69955 18.595 8.56097 18.7118 8.44424C18.8285 8.32751 18.9671 8.23491 19.1196 8.17174C19.2721 8.10857 19.4356 8.07605 19.6007 8.07605C19.7658 8.07605 19.9292 8.10857 20.0817 8.17174C20.2343 8.23491 20.3728 8.32751 20.4896 8.44424C20.6063 8.56097 20.6989 8.69955 20.7621 8.85207C20.8252 9.00458 20.8578 9.16805 20.8578 9.33313C20.8578 10.0285 20.2954 10.5908 19.6013 10.5908Z" fill="#111111"/>
<path d="M13.9932 18.4297C15.9282 18.4297 17.4967 16.8612 17.4967 14.9262C17.4967 12.9913 15.9282 11.4227 13.9932 11.4227C12.0583 11.4227 10.4897 12.9913 10.4897 14.9262C10.4897 16.8612 12.0583 18.4297 13.9932 18.4297Z" fill="#111111"/>
</svg>
