<svg width="24" height="24" viewBox="0 0 24 24" fill="none" xmlns="http://www.w3.org/2000/svg">
<path fill-rule="evenodd" clip-rule="evenodd" d="M11 2H12C13.9775 2.00042 15.9105 2.58714 17.5546 3.68598C19.1987 4.78483 20.4801 6.34646 21.2368 8.17345C21.9935 10.0005 22.1915 12.0108 21.8058 13.9503C21.4202 15.8898 20.4681 17.6715 19.07 19.07C17.6715 20.4681 15.8898 21.4202 13.9503 21.8058C12.0108 22.1915 10.0005 21.9935 8.17345 21.2368C6.34646 20.4801 4.78483 19.1987 3.68598 17.5546C2.58714 15.9105 2.00042 13.9775 2 12V11H6.08296C6.0284 11.3252 6 11.6593 6 12C6 15.3137 8.68629 18 12 18C15.3137 18 18 15.3137 18 12C18 8.68629 15.3137 6 12 6C11.6593 6 11.3252 6.0284 11 6.08296V2Z" fill="#018C3F"/>
</svg>
