<svg width="372" height="298" viewBox="0 0 372 298" fill="none" xmlns="http://www.w3.org/2000/svg">
<g filter="url(#filter0_i_192_603)">
<path d="M355.747 299.604C308.849 170.697 268.639 96.2189 233.762 99.3525C206.149 116.069 208.62 161.994 227.242 194.792C256.605 238.688 318.202 252.206 331.273 329.973L355.747 299.604Z" fill="#D9D9D9"/>
</g>
<path d="M355.747 299.604C308.849 170.697 268.639 96.2189 233.762 99.3525C206.149 116.069 208.62 161.994 227.242 194.792C256.605 238.688 318.202 252.206 331.273 329.973L355.747 299.604Z" stroke="black"/>
<g filter="url(#filter1_i_192_603)">
<path d="M351.901 298.994C170.17 148.033 105.689 109.629 28.8485 88.2761C166.544 143.512 250.651 275.187 308.691 338.161L351.901 298.994Z" fill="#D9D9D9"/>
<path d="M28.8485 88.2761C-13.1518 93.2854 14.9787 168.349 30.5853 186.612C106.316 301.116 210.663 258.88 282.972 363.988L308.691 338.161C250.651 275.187 166.544 143.512 28.8485 88.2761Z" fill="#D9D9D9"/>
<path d="M28.8485 88.2761C-13.1518 93.2854 14.9787 168.349 30.5853 186.612C106.316 301.116 210.663 258.88 282.972 363.988L308.691 338.161C250.651 275.187 166.544 143.512 28.8485 88.2761Z" fill="url(#paint0_linear_192_603)"/>
</g>
<defs>
<filter id="filter0_i_192_603" x="212.63" y="95.7573" width="146.683" height="235.396" filterUnits="userSpaceOnUse" color-interpolation-filters="sRGB">
<feFlood flood-opacity="0" result="BackgroundImageFix"/>
<feBlend mode="normal" in="SourceGraphic" in2="BackgroundImageFix" result="shape"/>
<feColorMatrix in="SourceAlpha" type="matrix" values="0 0 0 0 0 0 0 0 0 0 0 0 0 0 0 0 0 0 127 0" result="hardAlpha"/>
<feOffset dx="3" dy="-3"/>
<feGaussianBlur stdDeviation="8"/>
<feComposite in2="hardAlpha" operator="arithmetic" k2="-1" k3="1"/>
<feColorMatrix type="matrix" values="0 0 0 0 0 0 0 0 0 0 0 0 0 0 0 0 0 0 0.16 0"/>
<feBlend mode="normal" in2="shape" result="effect1_innerShadow_192_603"/>
</filter>
<filter id="filter1_i_192_603" x="6.80566" y="88.2761" width="353.095" height="280.712" filterUnits="userSpaceOnUse" color-interpolation-filters="sRGB">
<feFlood flood-opacity="0" result="BackgroundImageFix"/>
<feBlend mode="normal" in="SourceGraphic" in2="BackgroundImageFix" result="shape"/>
<feColorMatrix in="SourceAlpha" type="matrix" values="0 0 0 0 0 0 0 0 0 0 0 0 0 0 0 0 0 0 127 0" result="hardAlpha"/>
<feOffset dx="8" dy="5"/>
<feGaussianBlur stdDeviation="8"/>
<feComposite in2="hardAlpha" operator="arithmetic" k2="-1" k3="1"/>
<feColorMatrix type="matrix" values="0 0 0 0 1 0 0 0 0 1 0 0 0 0 1 0 0 0 0.25 0"/>
<feBlend mode="normal" in2="shape" result="effect1_innerShadow_192_603"/>
</filter>
<linearGradient id="paint0_linear_192_603" x1="18.3389" y1="91.5649" x2="301.984" y2="344.957" gradientUnits="userSpaceOnUse">
<stop stop-color="#E95950" stop-opacity="0"/>
<stop offset="1" stop-color="#E95950" stop-opacity="0.9"/>
</linearGradient>
</defs>
</svg>
