<svg width="28" height="29" viewBox="0 0 28 29" fill="none" xmlns="http://www.w3.org/2000/svg">
<path d="M25.1917 9.35423C25.0588 8.8612 24.7992 8.41157 24.4385 8.05009C24.0778 7.68862 23.6288 7.4279 23.1361 7.2939C21.3091 6.79223 13.9999 6.78407 13.9999 6.78407C13.9999 6.78407 6.6919 6.7759 4.86373 7.2554C4.37131 7.39557 3.92319 7.65997 3.56239 8.02322C3.20159 8.38647 2.94023 8.83637 2.8034 9.32973C2.32156 11.1567 2.3169 14.9461 2.3169 14.9461C2.3169 14.9461 2.31223 18.7541 2.79056 20.5624C3.0589 21.5622 3.8464 22.3521 4.8474 22.6216C6.69306 23.1232 13.9824 23.1314 13.9824 23.1314C13.9824 23.1314 21.2916 23.1396 23.1186 22.6612C23.6115 22.5275 24.0609 22.2673 24.4225 21.9066C24.784 21.5459 25.0452 21.097 25.1801 20.6044C25.6631 18.7786 25.6666 14.9904 25.6666 14.9904C25.6666 14.9904 25.6899 11.1812 25.1917 9.35423ZM11.6619 18.4566L11.6677 11.4566L17.7426 14.9624L11.6619 18.4566Z" fill="#111111"/>
</svg>
