<svg width="222" height="257" viewBox="0 0 222 257" fill="none" xmlns="http://www.w3.org/2000/svg">
<g clip-path="url(#clip0_153_1230)">
<rect width="42.3383" height="42.3383" transform="matrix(0.866025 0.5 -0.866025 0.5 111.002 86.0039)" fill="#111111"/>
<rect width="42.3383" height="42.3383" transform="matrix(0.866025 0.5 -0.866025 0.5 111.002 86.0039)" fill="white" fill-opacity="0.08"/>
</g>
<rect width="42.3383" height="42.3383" transform="matrix(0.866025 0.5 -0.866025 0.5 111.002 86.0039)" stroke="black" stroke-opacity="0.16"/>
<g clip-path="url(#clip1_153_1230)">
<rect width="42.3383" height="42.3383" transform="matrix(2.20305e-08 1 -0.866025 0.5 147.668 107.173)" fill="#111111"/>
<rect width="42.3383" height="42.3383" transform="matrix(2.20305e-08 1 -0.866025 0.5 147.668 107.173)" fill="#373737" fill-opacity="0.36" style="mix-blend-mode:overlay"/>
<rect width="42.3383" height="42.3383" transform="matrix(2.20305e-08 1 -0.866025 0.5 147.668 107.173)" fill="black" fill-opacity="0.16" style="mix-blend-mode:darken"/>
</g>
<rect width="42.3383" height="42.3383" transform="matrix(2.20305e-08 1 -0.866025 0.5 147.668 107.173)" stroke="black" stroke-opacity="0.16"/>
<g clip-path="url(#clip2_153_1230)">
<rect width="42.3383" height="42.3383" transform="matrix(0.866025 0.5 -2.20305e-08 1 74.3368 107.173)" fill="#111111"/>
<rect width="42.3383" height="42.3383" transform="matrix(0.866025 0.5 -2.20305e-08 1 74.3368 107.173)" fill="black" fill-opacity="0.16" style="mix-blend-mode:darken"/>
</g>
<rect width="42.3383" height="42.3383" transform="matrix(0.866025 0.5 -2.20305e-08 1 74.3368 107.173)" stroke="black" stroke-opacity="0.16"/>
<g clip-path="url(#clip3_153_1230)">
<rect width="42.3383" height="42.3383" transform="matrix(0.866025 0.5 -0.866025 0.5 147.667 64.8345)" fill="#F8D835"/>
<rect width="42.3383" height="42.3383" transform="matrix(0.866025 0.5 -0.866025 0.5 147.667 64.8345)" fill="white" fill-opacity="0.08"/>
</g>
<rect width="42.3383" height="42.3383" transform="matrix(0.866025 0.5 -0.866025 0.5 147.667 64.8345)" stroke="black" stroke-opacity="0.16"/>
<g clip-path="url(#clip4_153_1230)">
<rect width="42.3383" height="42.3383" transform="matrix(2.20305e-08 1 -0.866025 0.5 184.334 86.0037)" fill="#111111"/>
<rect width="42.3383" height="42.3383" transform="matrix(2.20305e-08 1 -0.866025 0.5 184.334 86.0037)" fill="#373737" fill-opacity="0.36" style="mix-blend-mode:overlay"/>
<rect width="42.3383" height="42.3383" transform="matrix(2.20305e-08 1 -0.866025 0.5 184.334 86.0037)" fill="black" fill-opacity="0.16" style="mix-blend-mode:darken"/>
</g>
<rect width="42.3383" height="42.3383" transform="matrix(2.20305e-08 1 -0.866025 0.5 184.334 86.0037)" stroke="black" stroke-opacity="0.16"/>
<g clip-path="url(#clip5_153_1230)">
<rect width="42.3383" height="42.3383" transform="matrix(0.866025 0.5 -0.866025 0.5 184.334 43.6653)" fill="#111111"/>
<rect width="42.3383" height="42.3383" transform="matrix(0.866025 0.5 -0.866025 0.5 184.334 43.6653)" fill="white" fill-opacity="0.08"/>
</g>
<rect width="42.3383" height="42.3383" transform="matrix(0.866025 0.5 -0.866025 0.5 184.334 43.6653)" stroke="black" stroke-opacity="0.16"/>
<g clip-path="url(#clip6_153_1230)">
<rect width="42.3383" height="42.3383" transform="matrix(2.20305e-08 1 -0.866025 0.5 221 64.8345)" fill="#111111"/>
<rect width="42.3383" height="42.3383" transform="matrix(2.20305e-08 1 -0.866025 0.5 221 64.8345)" fill="#373737" fill-opacity="0.36" style="mix-blend-mode:overlay"/>
<rect width="42.3383" height="42.3383" transform="matrix(2.20305e-08 1 -0.866025 0.5 221 64.8345)" fill="black" fill-opacity="0.16" style="mix-blend-mode:darken"/>
</g>
<rect width="42.3383" height="42.3383" transform="matrix(2.20305e-08 1 -0.866025 0.5 221 64.8345)" stroke="black" stroke-opacity="0.16"/>
<g clip-path="url(#clip7_153_1230)">
<rect width="42.3383" height="42.3383" transform="matrix(0.866025 0.5 -0.866025 0.5 74.3357 64.8345)" fill="#F8D835"/>
<rect width="42.3383" height="42.3383" transform="matrix(0.866025 0.5 -0.866025 0.5 74.3357 64.8345)" fill="white" fill-opacity="0.08"/>
</g>
<rect width="42.3383" height="42.3383" transform="matrix(0.866025 0.5 -0.866025 0.5 74.3357 64.8345)" stroke="black" stroke-opacity="0.16"/>
<g clip-path="url(#clip8_153_1230)">
<rect width="42.3383" height="42.3383" transform="matrix(0.866025 0.5 -2.20305e-08 1 37.6708 86.0037)" fill="#111111"/>
<rect width="42.3383" height="42.3383" transform="matrix(0.866025 0.5 -2.20305e-08 1 37.6708 86.0037)" fill="black" fill-opacity="0.16" style="mix-blend-mode:darken"/>
</g>
<rect width="42.3383" height="42.3383" transform="matrix(0.866025 0.5 -2.20305e-08 1 37.6708 86.0037)" stroke="black" stroke-opacity="0.16"/>
<g clip-path="url(#clip9_153_1230)">
<rect width="42.3383" height="42.3383" transform="matrix(0.866025 0.5 -0.866025 0.5 37.6698 43.6653)" fill="#111111"/>
<rect width="42.3383" height="42.3383" transform="matrix(0.866025 0.5 -0.866025 0.5 37.6698 43.6653)" fill="white" fill-opacity="0.08"/>
</g>
<rect width="42.3383" height="42.3383" transform="matrix(0.866025 0.5 -0.866025 0.5 37.6698 43.6653)" stroke="black" stroke-opacity="0.16"/>
<g clip-path="url(#clip10_153_1230)">
<rect width="42.3383" height="42.3383" transform="matrix(0.866025 0.5 -2.20305e-08 1 1.00464 64.8345)" fill="#111111"/>
<rect width="42.3383" height="42.3383" transform="matrix(0.866025 0.5 -2.20305e-08 1 1.00464 64.8345)" fill="black" fill-opacity="0.16" style="mix-blend-mode:darken"/>
</g>
<rect width="42.3383" height="42.3383" transform="matrix(0.866025 0.5 -2.20305e-08 1 1.00464 64.8345)" stroke="black" stroke-opacity="0.16"/>
<g clip-path="url(#clip11_153_1230)">
<rect width="42.3383" height="42.3383" transform="matrix(2.20305e-08 1 -0.866025 0.5 147.668 149.512)" fill="#75C37D"/>
<rect width="42.3383" height="42.3383" transform="matrix(2.20305e-08 1 -0.866025 0.5 147.668 149.512)" fill="black" fill-opacity="0.5"/>
<rect width="42.3383" height="42.3383" transform="matrix(2.20305e-08 1 -0.866025 0.5 147.668 149.512)" fill="#373737" fill-opacity="0.36" style="mix-blend-mode:overlay"/>
<rect width="42.3383" height="42.3383" transform="matrix(2.20305e-08 1 -0.866025 0.5 147.668 149.512)" fill="black" fill-opacity="0.16" style="mix-blend-mode:darken"/>
</g>
<rect width="42.3383" height="42.3383" transform="matrix(2.20305e-08 1 -0.866025 0.5 147.668 149.512)" stroke="black" stroke-opacity="0.16"/>
<g clip-path="url(#clip12_153_1230)">
<rect width="42.3383" height="42.3383" transform="matrix(0.866025 0.5 -2.20305e-08 1 74.337 149.512)" fill="#D63B41"/>
<rect width="42.3383" height="42.3383" transform="matrix(0.866025 0.5 -2.20305e-08 1 74.337 149.512)" fill="black" fill-opacity="0.5"/>
<rect width="42.3383" height="42.3383" transform="matrix(0.866025 0.5 -2.20305e-08 1 74.337 149.512)" fill="black" fill-opacity="0.16" style="mix-blend-mode:darken"/>
</g>
<rect width="42.3383" height="42.3383" transform="matrix(0.866025 0.5 -2.20305e-08 1 74.337 149.512)" stroke="black" stroke-opacity="0.16"/>
<g clip-path="url(#clip13_153_1230)">
<rect width="42.3383" height="42.3383" transform="matrix(2.20305e-08 1 -0.866025 0.5 147.667 191.85)" fill="#75C37D"/>
<rect width="42.3383" height="42.3383" transform="matrix(2.20305e-08 1 -0.866025 0.5 147.667 191.85)" fill="black" fill-opacity="0.5"/>
<rect width="42.3383" height="42.3383" transform="matrix(2.20305e-08 1 -0.866025 0.5 147.667 191.85)" fill="#373737" fill-opacity="0.36" style="mix-blend-mode:overlay"/>
<rect width="42.3383" height="42.3383" transform="matrix(2.20305e-08 1 -0.866025 0.5 147.667 191.85)" fill="black" fill-opacity="0.16" style="mix-blend-mode:darken"/>
</g>
<rect width="42.3383" height="42.3383" transform="matrix(2.20305e-08 1 -0.866025 0.5 147.667 191.85)" stroke="black" stroke-opacity="0.16"/>
<g clip-path="url(#clip14_153_1230)">
<rect width="42.3383" height="42.3383" transform="matrix(0.866025 0.5 -2.20305e-08 1 74.3359 191.85)" fill="#D63B41"/>
<rect width="42.3383" height="42.3383" transform="matrix(0.866025 0.5 -2.20305e-08 1 74.3359 191.85)" fill="black" fill-opacity="0.5"/>
<rect width="42.3383" height="42.3383" transform="matrix(0.866025 0.5 -2.20305e-08 1 74.3359 191.85)" fill="black" fill-opacity="0.16" style="mix-blend-mode:darken"/>
</g>
<rect width="42.3383" height="42.3383" transform="matrix(0.866025 0.5 -2.20305e-08 1 74.3359 191.85)" stroke="black" stroke-opacity="0.16"/>
<g clip-path="url(#clip15_153_1230)">
<rect width="42.3383" height="42.3383" transform="matrix(2.20305e-08 1 -0.866025 0.5 184.333 170.681)" fill="#75C37D"/>
<rect width="42.3383" height="42.3383" transform="matrix(2.20305e-08 1 -0.866025 0.5 184.333 170.681)" fill="black" fill-opacity="0.5"/>
<rect width="42.3383" height="42.3383" transform="matrix(2.20305e-08 1 -0.866025 0.5 184.333 170.681)" fill="#373737" fill-opacity="0.36" style="mix-blend-mode:overlay"/>
<rect width="42.3383" height="42.3383" transform="matrix(2.20305e-08 1 -0.866025 0.5 184.333 170.681)" fill="black" fill-opacity="0.16" style="mix-blend-mode:darken"/>
</g>
<rect width="42.3383" height="42.3383" transform="matrix(2.20305e-08 1 -0.866025 0.5 184.333 170.681)" stroke="black" stroke-opacity="0.16"/>
<g clip-path="url(#clip16_153_1230)">
<rect width="42.3383" height="42.3383" transform="matrix(2.20305e-08 1 -0.866025 0.5 184.334 128.343)" fill="#75C37D"/>
<rect width="42.3383" height="42.3383" transform="matrix(2.20305e-08 1 -0.866025 0.5 184.334 128.343)" fill="black" fill-opacity="0.5"/>
<rect width="42.3383" height="42.3383" transform="matrix(2.20305e-08 1 -0.866025 0.5 184.334 128.343)" fill="#373737" fill-opacity="0.36" style="mix-blend-mode:overlay"/>
<rect width="42.3383" height="42.3383" transform="matrix(2.20305e-08 1 -0.866025 0.5 184.334 128.343)" fill="black" fill-opacity="0.16" style="mix-blend-mode:darken"/>
</g>
<rect width="42.3383" height="42.3383" transform="matrix(2.20305e-08 1 -0.866025 0.5 184.334 128.343)" stroke="black" stroke-opacity="0.16"/>
<g clip-path="url(#clip17_153_1230)">
<rect width="42.3383" height="42.3383" transform="matrix(0.866025 0.5 -2.20305e-08 1 37.6698 170.681)" fill="#D63B41"/>
<rect width="42.3383" height="42.3383" transform="matrix(0.866025 0.5 -2.20305e-08 1 37.6698 170.681)" fill="black" fill-opacity="0.5"/>
<rect width="42.3383" height="42.3383" transform="matrix(0.866025 0.5 -2.20305e-08 1 37.6698 170.681)" fill="black" fill-opacity="0.16" style="mix-blend-mode:darken"/>
</g>
<rect width="42.3383" height="42.3383" transform="matrix(0.866025 0.5 -2.20305e-08 1 37.6698 170.681)" stroke="black" stroke-opacity="0.16"/>
<g clip-path="url(#clip18_153_1230)">
<rect width="42.3383" height="42.3383" transform="matrix(0.866025 0.5 -2.20305e-08 1 37.6698 128.343)" fill="#D63B41"/>
<rect width="42.3383" height="42.3383" transform="matrix(0.866025 0.5 -2.20305e-08 1 37.6698 128.343)" fill="black" fill-opacity="0.5"/>
<rect width="42.3383" height="42.3383" transform="matrix(0.866025 0.5 -2.20305e-08 1 37.6698 128.343)" fill="black" fill-opacity="0.16" style="mix-blend-mode:darken"/>
</g>
<rect width="42.3383" height="42.3383" transform="matrix(0.866025 0.5 -2.20305e-08 1 37.6698 128.343)" stroke="black" stroke-opacity="0.16"/>
<g clip-path="url(#clip19_153_1230)">
<rect width="42.3383" height="42.3383" transform="matrix(0.866025 0.5 -0.866025 0.5 74.3357 22.4961)" fill="#F8D835"/>
<rect width="42.3383" height="42.3383" transform="matrix(0.866025 0.5 -0.866025 0.5 74.3357 22.4961)" fill="white" fill-opacity="0.08"/>
</g>
<rect width="42.3383" height="42.3383" transform="matrix(0.866025 0.5 -0.866025 0.5 74.3357 22.4961)" stroke="black" stroke-opacity="0.16"/>
<g clip-path="url(#clip20_153_1230)">
<rect width="42.3383" height="42.3383" transform="matrix(0.866025 0.5 -0.866025 0.5 111.002 1.32666)" fill="#111111"/>
<rect width="42.3383" height="42.3383" transform="matrix(0.866025 0.5 -0.866025 0.5 111.002 1.32666)" fill="white" fill-opacity="0.08"/>
</g>
<rect width="42.3383" height="42.3383" transform="matrix(0.866025 0.5 -0.866025 0.5 111.002 1.32666)" stroke="black" stroke-opacity="0.16"/>
<g clip-path="url(#clip21_153_1230)">
<rect width="42.3383" height="42.3383" transform="matrix(0.866025 0.5 -0.866025 0.5 147.667 22.4961)" fill="#F8D835"/>
<rect width="42.3383" height="42.3383" transform="matrix(0.866025 0.5 -0.866025 0.5 147.667 22.4961)" fill="white" fill-opacity="0.08"/>
</g>
<rect width="42.3383" height="42.3383" transform="matrix(0.866025 0.5 -0.866025 0.5 147.667 22.4961)" stroke="black" stroke-opacity="0.16"/>
<g clip-path="url(#clip22_153_1230)">
<rect width="42.3383" height="42.3383" transform="matrix(0.866025 0.5 -2.20305e-08 1 1.00354 107.173)" fill="#D63B41"/>
<rect width="42.3383" height="42.3383" transform="matrix(0.866025 0.5 -2.20305e-08 1 1.00354 107.173)" fill="black" fill-opacity="0.5"/>
<rect width="42.3383" height="42.3383" transform="matrix(0.866025 0.5 -2.20305e-08 1 1.00354 107.173)" fill="black" fill-opacity="0.16" style="mix-blend-mode:darken"/>
</g>
<rect width="42.3383" height="42.3383" transform="matrix(0.866025 0.5 -2.20305e-08 1 1.00354 107.173)" stroke="black" stroke-opacity="0.16"/>
<g clip-path="url(#clip23_153_1230)">
<rect width="42.3383" height="42.3383" transform="matrix(0.866025 0.5 -2.20305e-08 1 1.00354 149.512)" fill="#D63B41"/>
<rect width="42.3383" height="42.3383" transform="matrix(0.866025 0.5 -2.20305e-08 1 1.00354 149.512)" fill="black" fill-opacity="0.5"/>
<rect width="42.3383" height="42.3383" transform="matrix(0.866025 0.5 -2.20305e-08 1 1.00354 149.512)" fill="black" fill-opacity="0.16" style="mix-blend-mode:darken"/>
</g>
<rect width="42.3383" height="42.3383" transform="matrix(0.866025 0.5 -2.20305e-08 1 1.00354 149.512)" stroke="black" stroke-opacity="0.16"/>
<g clip-path="url(#clip24_153_1230)">
<rect width="42.3383" height="42.3383" transform="matrix(2.20305e-08 1 -0.866025 0.5 221 107.173)" fill="#75C37D"/>
<rect width="42.3383" height="42.3383" transform="matrix(2.20305e-08 1 -0.866025 0.5 221 107.173)" fill="black" fill-opacity="0.5"/>
<rect width="42.3383" height="42.3383" transform="matrix(2.20305e-08 1 -0.866025 0.5 221 107.173)" fill="#373737" fill-opacity="0.36" style="mix-blend-mode:overlay"/>
<rect width="42.3383" height="42.3383" transform="matrix(2.20305e-08 1 -0.866025 0.5 221 107.173)" fill="black" fill-opacity="0.16" style="mix-blend-mode:darken"/>
</g>
<rect width="42.3383" height="42.3383" transform="matrix(2.20305e-08 1 -0.866025 0.5 221 107.173)" stroke="black" stroke-opacity="0.16"/>
<g clip-path="url(#clip25_153_1230)">
<rect width="42.3383" height="42.3383" transform="matrix(2.20305e-08 1 -0.866025 0.5 221 149.512)" fill="#75C37D"/>
<rect width="42.3383" height="42.3383" transform="matrix(2.20305e-08 1 -0.866025 0.5 221 149.512)" fill="black" fill-opacity="0.5"/>
<rect width="42.3383" height="42.3383" transform="matrix(2.20305e-08 1 -0.866025 0.5 221 149.512)" fill="#373737" fill-opacity="0.36" style="mix-blend-mode:overlay"/>
<rect width="42.3383" height="42.3383" transform="matrix(2.20305e-08 1 -0.866025 0.5 221 149.512)" fill="black" fill-opacity="0.16" style="mix-blend-mode:darken"/>
</g>
<rect width="42.3383" height="42.3383" transform="matrix(2.20305e-08 1 -0.866025 0.5 221 149.512)" stroke="black" stroke-opacity="0.16"/>
<g clip-path="url(#clip26_153_1230)">
<rect width="42.3383" height="42.3383" transform="matrix(0.866025 0.5 -0.866025 0.5 111.002 43.6653)" fill="#F8D835"/>
<rect width="42.3383" height="42.3383" transform="matrix(0.866025 0.5 -0.866025 0.5 111.002 43.6653)" fill="white" fill-opacity="0.08"/>
</g>
<rect width="42.3383" height="42.3383" transform="matrix(0.866025 0.5 -0.866025 0.5 111.002 43.6653)" stroke="black" stroke-opacity="0.16"/>
<defs>
<clipPath id="clip0_153_1230">
<rect width="42.3383" height="42.3383" transform="matrix(0.866025 0.5 -0.866025 0.5 111.002 86.0039)" fill="white"/>
</clipPath>
<clipPath id="clip1_153_1230">
<rect width="42.3383" height="42.3383" transform="matrix(2.20305e-08 1 -0.866025 0.5 147.668 107.173)" fill="white"/>
</clipPath>
<clipPath id="clip2_153_1230">
<rect width="42.3383" height="42.3383" transform="matrix(0.866025 0.5 -2.20305e-08 1 74.3368 107.173)" fill="white"/>
</clipPath>
<clipPath id="clip3_153_1230">
<rect width="42.3383" height="42.3383" transform="matrix(0.866025 0.5 -0.866025 0.5 147.667 64.8345)" fill="white"/>
</clipPath>
<clipPath id="clip4_153_1230">
<rect width="42.3383" height="42.3383" transform="matrix(2.20305e-08 1 -0.866025 0.5 184.334 86.0037)" fill="white"/>
</clipPath>
<clipPath id="clip5_153_1230">
<rect width="42.3383" height="42.3383" transform="matrix(0.866025 0.5 -0.866025 0.5 184.334 43.6653)" fill="white"/>
</clipPath>
<clipPath id="clip6_153_1230">
<rect width="42.3383" height="42.3383" transform="matrix(2.20305e-08 1 -0.866025 0.5 221 64.8345)" fill="white"/>
</clipPath>
<clipPath id="clip7_153_1230">
<rect width="42.3383" height="42.3383" transform="matrix(0.866025 0.5 -0.866025 0.5 74.3357 64.8345)" fill="white"/>
</clipPath>
<clipPath id="clip8_153_1230">
<rect width="42.3383" height="42.3383" transform="matrix(0.866025 0.5 -2.20305e-08 1 37.6708 86.0037)" fill="white"/>
</clipPath>
<clipPath id="clip9_153_1230">
<rect width="42.3383" height="42.3383" transform="matrix(0.866025 0.5 -0.866025 0.5 37.6698 43.6653)" fill="white"/>
</clipPath>
<clipPath id="clip10_153_1230">
<rect width="42.3383" height="42.3383" transform="matrix(0.866025 0.5 -2.20305e-08 1 1.00464 64.8345)" fill="white"/>
</clipPath>
<clipPath id="clip11_153_1230">
<rect width="42.3383" height="42.3383" transform="matrix(2.20305e-08 1 -0.866025 0.5 147.668 149.512)" fill="white"/>
</clipPath>
<clipPath id="clip12_153_1230">
<rect width="42.3383" height="42.3383" transform="matrix(0.866025 0.5 -2.20305e-08 1 74.337 149.512)" fill="white"/>
</clipPath>
<clipPath id="clip13_153_1230">
<rect width="42.3383" height="42.3383" transform="matrix(2.20305e-08 1 -0.866025 0.5 147.667 191.85)" fill="white"/>
</clipPath>
<clipPath id="clip14_153_1230">
<rect width="42.3383" height="42.3383" transform="matrix(0.866025 0.5 -2.20305e-08 1 74.3359 191.85)" fill="white"/>
</clipPath>
<clipPath id="clip15_153_1230">
<rect width="42.3383" height="42.3383" transform="matrix(2.20305e-08 1 -0.866025 0.5 184.333 170.681)" fill="white"/>
</clipPath>
<clipPath id="clip16_153_1230">
<rect width="42.3383" height="42.3383" transform="matrix(2.20305e-08 1 -0.866025 0.5 184.334 128.343)" fill="white"/>
</clipPath>
<clipPath id="clip17_153_1230">
<rect width="42.3383" height="42.3383" transform="matrix(0.866025 0.5 -2.20305e-08 1 37.6698 170.681)" fill="white"/>
</clipPath>
<clipPath id="clip18_153_1230">
<rect width="42.3383" height="42.3383" transform="matrix(0.866025 0.5 -2.20305e-08 1 37.6698 128.343)" fill="white"/>
</clipPath>
<clipPath id="clip19_153_1230">
<rect width="42.3383" height="42.3383" transform="matrix(0.866025 0.5 -0.866025 0.5 74.3357 22.4961)" fill="white"/>
</clipPath>
<clipPath id="clip20_153_1230">
<rect width="42.3383" height="42.3383" transform="matrix(0.866025 0.5 -0.866025 0.5 111.002 1.32666)" fill="white"/>
</clipPath>
<clipPath id="clip21_153_1230">
<rect width="42.3383" height="42.3383" transform="matrix(0.866025 0.5 -0.866025 0.5 147.667 22.4961)" fill="white"/>
</clipPath>
<clipPath id="clip22_153_1230">
<rect width="42.3383" height="42.3383" transform="matrix(0.866025 0.5 -2.20305e-08 1 1.00354 107.173)" fill="white"/>
</clipPath>
<clipPath id="clip23_153_1230">
<rect width="42.3383" height="42.3383" transform="matrix(0.866025 0.5 -2.20305e-08 1 1.00354 149.512)" fill="white"/>
</clipPath>
<clipPath id="clip24_153_1230">
<rect width="42.3383" height="42.3383" transform="matrix(2.20305e-08 1 -0.866025 0.5 221 107.173)" fill="white"/>
</clipPath>
<clipPath id="clip25_153_1230">
<rect width="42.3383" height="42.3383" transform="matrix(2.20305e-08 1 -0.866025 0.5 221 149.512)" fill="white"/>
</clipPath>
<clipPath id="clip26_153_1230">
<rect width="42.3383" height="42.3383" transform="matrix(0.866025 0.5 -0.866025 0.5 111.002 43.6653)" fill="white"/>
</clipPath>
</defs>
</svg>
