<svg width="222" height="256" viewBox="0 0 222 256" fill="none" xmlns="http://www.w3.org/2000/svg">
<g clip-path="url(#clip0_153_1378)">
<rect width="42.3383" height="42.3383" transform="matrix(0.866025 0.5 -0.866025 0.5 110.998 85.564)" fill="#F8D835"/>
<rect width="42.3383" height="42.3383" transform="matrix(0.866025 0.5 -0.866025 0.5 110.998 85.564)" fill="white" fill-opacity="0.08"/>
</g>
<rect width="42.3383" height="42.3383" transform="matrix(0.866025 0.5 -0.866025 0.5 110.998 85.564)" stroke="black" stroke-opacity="0.16"/>
<g clip-path="url(#clip1_153_1378)">
<rect width="42.3383" height="42.3383" transform="matrix(2.20305e-08 1 -0.866025 0.5 147.664 106.733)" fill="#111111"/>
<rect width="42.3383" height="42.3383" transform="matrix(2.20305e-08 1 -0.866025 0.5 147.664 106.733)" fill="#373737" fill-opacity="0.36" style="mix-blend-mode:overlay"/>
<rect width="42.3383" height="42.3383" transform="matrix(2.20305e-08 1 -0.866025 0.5 147.664 106.733)" fill="black" fill-opacity="0.16" style="mix-blend-mode:darken"/>
</g>
<rect width="42.3383" height="42.3383" transform="matrix(2.20305e-08 1 -0.866025 0.5 147.664 106.733)" stroke="black" stroke-opacity="0.16"/>
<g clip-path="url(#clip2_153_1378)">
<rect width="42.3383" height="42.3383" transform="matrix(0.866025 0.5 -2.20305e-08 1 74.3332 106.733)" fill="#111111"/>
<rect width="42.3383" height="42.3383" transform="matrix(0.866025 0.5 -2.20305e-08 1 74.3332 106.733)" fill="black" fill-opacity="0.16" style="mix-blend-mode:darken"/>
</g>
<rect width="42.3383" height="42.3383" transform="matrix(0.866025 0.5 -2.20305e-08 1 74.3332 106.733)" stroke="black" stroke-opacity="0.16"/>
<g clip-path="url(#clip3_153_1378)">
<rect width="42.3383" height="42.3383" transform="matrix(0.866025 0.5 -0.866025 0.5 147.664 64.3945)" fill="#F8D835"/>
<rect width="42.3383" height="42.3383" transform="matrix(0.866025 0.5 -0.866025 0.5 147.664 64.3945)" fill="black" fill-opacity="0.5"/>
<rect width="42.3383" height="42.3383" transform="matrix(0.866025 0.5 -0.866025 0.5 147.664 64.3945)" fill="white" fill-opacity="0.08"/>
</g>
<rect width="42.3383" height="42.3383" transform="matrix(0.866025 0.5 -0.866025 0.5 147.664 64.3945)" stroke="black" stroke-opacity="0.16"/>
<g clip-path="url(#clip4_153_1378)">
<rect width="42.3383" height="42.3383" transform="matrix(2.20305e-08 1 -0.866025 0.5 184.33 85.5635)" fill="#111111"/>
<rect width="42.3383" height="42.3383" transform="matrix(2.20305e-08 1 -0.866025 0.5 184.33 85.5635)" fill="#373737" fill-opacity="0.36" style="mix-blend-mode:overlay"/>
<rect width="42.3383" height="42.3383" transform="matrix(2.20305e-08 1 -0.866025 0.5 184.33 85.5635)" fill="black" fill-opacity="0.16" style="mix-blend-mode:darken"/>
</g>
<rect width="42.3383" height="42.3383" transform="matrix(2.20305e-08 1 -0.866025 0.5 184.33 85.5635)" stroke="black" stroke-opacity="0.16"/>
<g clip-path="url(#clip5_153_1378)">
<rect width="42.3383" height="42.3383" transform="matrix(0.866025 0.5 -0.866025 0.5 184.33 43.2256)" fill="#F8D835"/>
<rect width="42.3383" height="42.3383" transform="matrix(0.866025 0.5 -0.866025 0.5 184.33 43.2256)" fill="white" fill-opacity="0.08"/>
</g>
<rect width="42.3383" height="42.3383" transform="matrix(0.866025 0.5 -0.866025 0.5 184.33 43.2256)" stroke="black" stroke-opacity="0.16"/>
<g clip-path="url(#clip6_153_1378)">
<rect width="42.3383" height="42.3383" transform="matrix(2.20305e-08 1 -0.866025 0.5 220.996 64.3945)" fill="#111111"/>
<rect width="42.3383" height="42.3383" transform="matrix(2.20305e-08 1 -0.866025 0.5 220.996 64.3945)" fill="#373737" fill-opacity="0.36" style="mix-blend-mode:overlay"/>
<rect width="42.3383" height="42.3383" transform="matrix(2.20305e-08 1 -0.866025 0.5 220.996 64.3945)" fill="black" fill-opacity="0.16" style="mix-blend-mode:darken"/>
</g>
<rect width="42.3383" height="42.3383" transform="matrix(2.20305e-08 1 -0.866025 0.5 220.996 64.3945)" stroke="black" stroke-opacity="0.16"/>
<g clip-path="url(#clip7_153_1378)">
<rect width="42.3383" height="42.3383" transform="matrix(0.866025 0.5 -0.866025 0.5 74.3321 64.3945)" fill="#F8D835"/>
<rect width="42.3383" height="42.3383" transform="matrix(0.866025 0.5 -0.866025 0.5 74.3321 64.3945)" fill="black" fill-opacity="0.5"/>
<rect width="42.3383" height="42.3383" transform="matrix(0.866025 0.5 -0.866025 0.5 74.3321 64.3945)" fill="white" fill-opacity="0.08"/>
</g>
<rect width="42.3383" height="42.3383" transform="matrix(0.866025 0.5 -0.866025 0.5 74.3321 64.3945)" stroke="black" stroke-opacity="0.16"/>
<g clip-path="url(#clip8_153_1378)">
<rect width="42.3383" height="42.3383" transform="matrix(0.866025 0.5 -2.20305e-08 1 37.6673 85.5635)" fill="#111111"/>
<rect width="42.3383" height="42.3383" transform="matrix(0.866025 0.5 -2.20305e-08 1 37.6673 85.5635)" fill="black" fill-opacity="0.16" style="mix-blend-mode:darken"/>
</g>
<rect width="42.3383" height="42.3383" transform="matrix(0.866025 0.5 -2.20305e-08 1 37.6673 85.5635)" stroke="black" stroke-opacity="0.16"/>
<g clip-path="url(#clip9_153_1378)">
<rect width="42.3383" height="42.3383" transform="matrix(0.866025 0.5 -0.866025 0.5 37.6663 43.2251)" fill="#F8D835"/>
<rect width="42.3383" height="42.3383" transform="matrix(0.866025 0.5 -0.866025 0.5 37.6663 43.2251)" fill="white" fill-opacity="0.08"/>
</g>
<rect width="42.3383" height="42.3383" transform="matrix(0.866025 0.5 -0.866025 0.5 37.6663 43.2251)" stroke="black" stroke-opacity="0.16"/>
<g clip-path="url(#clip10_153_1378)">
<rect width="42.3383" height="42.3383" transform="matrix(0.866025 0.5 -2.20305e-08 1 1.00104 64.3945)" fill="#111111"/>
<rect width="42.3383" height="42.3383" transform="matrix(0.866025 0.5 -2.20305e-08 1 1.00104 64.3945)" fill="black" fill-opacity="0.16" style="mix-blend-mode:darken"/>
</g>
<rect width="42.3383" height="42.3383" transform="matrix(0.866025 0.5 -2.20305e-08 1 1.00104 64.3945)" stroke="black" stroke-opacity="0.16"/>
<g clip-path="url(#clip11_153_1378)">
<rect width="42.3383" height="42.3383" transform="matrix(2.20305e-08 1 -0.866025 0.5 147.664 148.072)" fill="#75C37D"/>
<rect width="42.3383" height="42.3383" transform="matrix(2.20305e-08 1 -0.866025 0.5 147.664 148.072)" fill="black" fill-opacity="0.5"/>
<rect width="42.3383" height="42.3383" transform="matrix(2.20305e-08 1 -0.866025 0.5 147.664 148.072)" fill="#373737" fill-opacity="0.36" style="mix-blend-mode:overlay"/>
<rect width="42.3383" height="42.3383" transform="matrix(2.20305e-08 1 -0.866025 0.5 147.664 148.072)" fill="black" fill-opacity="0.16" style="mix-blend-mode:darken"/>
</g>
<rect width="42.3383" height="42.3383" transform="matrix(2.20305e-08 1 -0.866025 0.5 147.664 148.072)" stroke="black" stroke-opacity="0.16"/>
<g clip-path="url(#clip12_153_1378)">
<rect width="42.3383" height="42.3383" transform="matrix(0.866025 0.5 -2.20305e-08 1 74.3334 149.072)" fill="#D63B41"/>
<rect width="42.3383" height="42.3383" transform="matrix(0.866025 0.5 -2.20305e-08 1 74.3334 149.072)" fill="black" fill-opacity="0.5"/>
<rect width="42.3383" height="42.3383" transform="matrix(0.866025 0.5 -2.20305e-08 1 74.3334 149.072)" fill="black" fill-opacity="0.16" style="mix-blend-mode:darken"/>
</g>
<rect width="42.3383" height="42.3383" transform="matrix(0.866025 0.5 -2.20305e-08 1 74.3334 149.072)" stroke="black" stroke-opacity="0.16"/>
<g clip-path="url(#clip13_153_1378)">
<rect width="42.3383" height="42.3383" transform="matrix(2.20305e-08 1 -0.866025 0.5 147.664 190.411)" fill="#75C37D"/>
<rect width="42.3383" height="42.3383" transform="matrix(2.20305e-08 1 -0.866025 0.5 147.664 190.411)" fill="black" fill-opacity="0.5"/>
<rect width="42.3383" height="42.3383" transform="matrix(2.20305e-08 1 -0.866025 0.5 147.664 190.411)" fill="#373737" fill-opacity="0.36" style="mix-blend-mode:overlay"/>
<rect width="42.3383" height="42.3383" transform="matrix(2.20305e-08 1 -0.866025 0.5 147.664 190.411)" fill="black" fill-opacity="0.16" style="mix-blend-mode:darken"/>
</g>
<rect width="42.3383" height="42.3383" transform="matrix(2.20305e-08 1 -0.866025 0.5 147.664 190.411)" stroke="black" stroke-opacity="0.16"/>
<g clip-path="url(#clip14_153_1378)">
<rect width="42.3383" height="42.3383" transform="matrix(0.866025 0.5 -2.20305e-08 1 74.3324 191.411)" fill="#D63B41"/>
<rect width="42.3383" height="42.3383" transform="matrix(0.866025 0.5 -2.20305e-08 1 74.3324 191.411)" fill="black" fill-opacity="0.5"/>
<rect width="42.3383" height="42.3383" transform="matrix(0.866025 0.5 -2.20305e-08 1 74.3324 191.411)" fill="black" fill-opacity="0.16" style="mix-blend-mode:darken"/>
</g>
<rect width="42.3383" height="42.3383" transform="matrix(0.866025 0.5 -2.20305e-08 1 74.3324 191.411)" stroke="black" stroke-opacity="0.16"/>
<g clip-path="url(#clip15_153_1378)">
<rect width="42.3383" height="42.3383" transform="matrix(2.20305e-08 1 -0.866025 0.5 184.329 169.241)" fill="#75C37D"/>
<rect width="42.3383" height="42.3383" transform="matrix(2.20305e-08 1 -0.866025 0.5 184.329 169.241)" fill="black" fill-opacity="0.5"/>
<rect width="42.3383" height="42.3383" transform="matrix(2.20305e-08 1 -0.866025 0.5 184.329 169.241)" fill="#373737" fill-opacity="0.36" style="mix-blend-mode:overlay"/>
<rect width="42.3383" height="42.3383" transform="matrix(2.20305e-08 1 -0.866025 0.5 184.329 169.241)" fill="black" fill-opacity="0.16" style="mix-blend-mode:darken"/>
</g>
<rect width="42.3383" height="42.3383" transform="matrix(2.20305e-08 1 -0.866025 0.5 184.329 169.241)" stroke="black" stroke-opacity="0.16"/>
<g clip-path="url(#clip16_153_1378)">
<rect width="42.3383" height="42.3383" transform="matrix(2.20305e-08 1 -0.866025 0.5 184.33 126.902)" fill="#75C37D"/>
<rect width="42.3383" height="42.3383" transform="matrix(2.20305e-08 1 -0.866025 0.5 184.33 126.902)" fill="black" fill-opacity="0.5"/>
<rect width="42.3383" height="42.3383" transform="matrix(2.20305e-08 1 -0.866025 0.5 184.33 126.902)" fill="#373737" fill-opacity="0.36" style="mix-blend-mode:overlay"/>
<rect width="42.3383" height="42.3383" transform="matrix(2.20305e-08 1 -0.866025 0.5 184.33 126.902)" fill="black" fill-opacity="0.16" style="mix-blend-mode:darken"/>
</g>
<rect width="42.3383" height="42.3383" transform="matrix(2.20305e-08 1 -0.866025 0.5 184.33 126.902)" stroke="black" stroke-opacity="0.16"/>
<g clip-path="url(#clip17_153_1378)">
<rect width="42.3383" height="42.3383" transform="matrix(0.866025 0.5 -2.20305e-08 1 37.6663 170.241)" fill="#D63B41"/>
<rect width="42.3383" height="42.3383" transform="matrix(0.866025 0.5 -2.20305e-08 1 37.6663 170.241)" fill="black" fill-opacity="0.5"/>
<rect width="42.3383" height="42.3383" transform="matrix(0.866025 0.5 -2.20305e-08 1 37.6663 170.241)" fill="black" fill-opacity="0.16" style="mix-blend-mode:darken"/>
</g>
<rect width="42.3383" height="42.3383" transform="matrix(0.866025 0.5 -2.20305e-08 1 37.6663 170.241)" stroke="black" stroke-opacity="0.16"/>
<g clip-path="url(#clip18_153_1378)">
<rect width="42.3383" height="42.3383" transform="matrix(0.866025 0.5 -2.20305e-08 1 37.6663 127.902)" fill="#D63B41"/>
<rect width="42.3383" height="42.3383" transform="matrix(0.866025 0.5 -2.20305e-08 1 37.6663 127.902)" fill="black" fill-opacity="0.5"/>
<rect width="42.3383" height="42.3383" transform="matrix(0.866025 0.5 -2.20305e-08 1 37.6663 127.902)" fill="black" fill-opacity="0.16" style="mix-blend-mode:darken"/>
</g>
<rect width="42.3383" height="42.3383" transform="matrix(0.866025 0.5 -2.20305e-08 1 37.6663 127.902)" stroke="black" stroke-opacity="0.16"/>
<g clip-path="url(#clip19_153_1378)">
<rect width="42.3383" height="42.3383" transform="matrix(0.866025 0.5 -0.866025 0.5 74.3321 22.0562)" fill="#F8D835"/>
<rect width="42.3383" height="42.3383" transform="matrix(0.866025 0.5 -0.866025 0.5 74.3321 22.0562)" fill="black" fill-opacity="0.5"/>
<rect width="42.3383" height="42.3383" transform="matrix(0.866025 0.5 -0.866025 0.5 74.3321 22.0562)" fill="white" fill-opacity="0.08"/>
</g>
<rect width="42.3383" height="42.3383" transform="matrix(0.866025 0.5 -0.866025 0.5 74.3321 22.0562)" stroke="black" stroke-opacity="0.16"/>
<g clip-path="url(#clip20_153_1378)">
<rect width="42.3383" height="42.3383" transform="matrix(0.866025 0.5 -0.866025 0.5 110.998 0.886719)" fill="#F8D835"/>
<rect width="42.3383" height="42.3383" transform="matrix(0.866025 0.5 -0.866025 0.5 110.998 0.886719)" fill="white" fill-opacity="0.08"/>
</g>
<rect width="42.3383" height="42.3383" transform="matrix(0.866025 0.5 -0.866025 0.5 110.998 0.886719)" stroke="black" stroke-opacity="0.16"/>
<g clip-path="url(#clip21_153_1378)">
<rect width="42.3383" height="42.3383" transform="matrix(0.866025 0.5 -0.866025 0.5 147.664 22.0562)" fill="#F8D835"/>
<rect width="42.3383" height="42.3383" transform="matrix(0.866025 0.5 -0.866025 0.5 147.664 22.0562)" fill="black" fill-opacity="0.5"/>
<rect width="42.3383" height="42.3383" transform="matrix(0.866025 0.5 -0.866025 0.5 147.664 22.0562)" fill="white" fill-opacity="0.08"/>
</g>
<rect width="42.3383" height="42.3383" transform="matrix(0.866025 0.5 -0.866025 0.5 147.664 22.0562)" stroke="black" stroke-opacity="0.16"/>
<g clip-path="url(#clip22_153_1378)">
<rect width="42.3383" height="42.3383" transform="matrix(0.866025 0.5 -2.20305e-08 1 1 106.733)" fill="#D63B41"/>
<rect width="42.3383" height="42.3383" transform="matrix(0.866025 0.5 -2.20305e-08 1 1 106.733)" fill="black" fill-opacity="0.5"/>
<rect width="42.3383" height="42.3383" transform="matrix(0.866025 0.5 -2.20305e-08 1 1 106.733)" fill="black" fill-opacity="0.16" style="mix-blend-mode:darken"/>
</g>
<rect width="42.3383" height="42.3383" transform="matrix(0.866025 0.5 -2.20305e-08 1 1 106.733)" stroke="black" stroke-opacity="0.16"/>
<g clip-path="url(#clip23_153_1378)">
<rect width="42.3383" height="42.3383" transform="matrix(0.866025 0.5 -2.20305e-08 1 1 149.072)" fill="#D63B41"/>
<rect width="42.3383" height="42.3383" transform="matrix(0.866025 0.5 -2.20305e-08 1 1 149.072)" fill="black" fill-opacity="0.5"/>
<rect width="42.3383" height="42.3383" transform="matrix(0.866025 0.5 -2.20305e-08 1 1 149.072)" fill="black" fill-opacity="0.16" style="mix-blend-mode:darken"/>
</g>
<rect width="42.3383" height="42.3383" transform="matrix(0.866025 0.5 -2.20305e-08 1 1 149.072)" stroke="black" stroke-opacity="0.16"/>
<g clip-path="url(#clip24_153_1378)">
<rect width="42.3383" height="42.3383" transform="matrix(2.20305e-08 1 -0.866025 0.5 220.996 105.733)" fill="#75C37D"/>
<rect width="42.3383" height="42.3383" transform="matrix(2.20305e-08 1 -0.866025 0.5 220.996 105.733)" fill="black" fill-opacity="0.5"/>
<rect width="42.3383" height="42.3383" transform="matrix(2.20305e-08 1 -0.866025 0.5 220.996 105.733)" fill="#373737" fill-opacity="0.36" style="mix-blend-mode:overlay"/>
<rect width="42.3383" height="42.3383" transform="matrix(2.20305e-08 1 -0.866025 0.5 220.996 105.733)" fill="black" fill-opacity="0.16" style="mix-blend-mode:darken"/>
</g>
<rect width="42.3383" height="42.3383" transform="matrix(2.20305e-08 1 -0.866025 0.5 220.996 105.733)" stroke="black" stroke-opacity="0.16"/>
<g clip-path="url(#clip25_153_1378)">
<rect width="42.3383" height="42.3383" transform="matrix(2.20305e-08 1 -0.866025 0.5 220.996 148.072)" fill="#75C37D"/>
<rect width="42.3383" height="42.3383" transform="matrix(2.20305e-08 1 -0.866025 0.5 220.996 148.072)" fill="black" fill-opacity="0.5"/>
<rect width="42.3383" height="42.3383" transform="matrix(2.20305e-08 1 -0.866025 0.5 220.996 148.072)" fill="#373737" fill-opacity="0.36" style="mix-blend-mode:overlay"/>
<rect width="42.3383" height="42.3383" transform="matrix(2.20305e-08 1 -0.866025 0.5 220.996 148.072)" fill="black" fill-opacity="0.16" style="mix-blend-mode:darken"/>
</g>
<rect width="42.3383" height="42.3383" transform="matrix(2.20305e-08 1 -0.866025 0.5 220.996 148.072)" stroke="black" stroke-opacity="0.16"/>
<g clip-path="url(#clip26_153_1378)">
<rect width="42.3383" height="42.3383" transform="matrix(0.866025 0.5 -0.866025 0.5 110.998 43.2256)" fill="#F8D835"/>
<rect width="42.3383" height="42.3383" transform="matrix(0.866025 0.5 -0.866025 0.5 110.998 43.2256)" fill="black" fill-opacity="0.5"/>
<rect width="42.3383" height="42.3383" transform="matrix(0.866025 0.5 -0.866025 0.5 110.998 43.2256)" fill="white" fill-opacity="0.08"/>
</g>
<rect width="42.3383" height="42.3383" transform="matrix(0.866025 0.5 -0.866025 0.5 110.998 43.2256)" stroke="black" stroke-opacity="0.16"/>
<defs>
<clipPath id="clip0_153_1378">
<rect width="42.3383" height="42.3383" transform="matrix(0.866025 0.5 -0.866025 0.5 110.998 85.564)" fill="white"/>
</clipPath>
<clipPath id="clip1_153_1378">
<rect width="42.3383" height="42.3383" transform="matrix(2.20305e-08 1 -0.866025 0.5 147.664 106.733)" fill="white"/>
</clipPath>
<clipPath id="clip2_153_1378">
<rect width="42.3383" height="42.3383" transform="matrix(0.866025 0.5 -2.20305e-08 1 74.3332 106.733)" fill="white"/>
</clipPath>
<clipPath id="clip3_153_1378">
<rect width="42.3383" height="42.3383" transform="matrix(0.866025 0.5 -0.866025 0.5 147.664 64.3945)" fill="white"/>
</clipPath>
<clipPath id="clip4_153_1378">
<rect width="42.3383" height="42.3383" transform="matrix(2.20305e-08 1 -0.866025 0.5 184.33 85.5635)" fill="white"/>
</clipPath>
<clipPath id="clip5_153_1378">
<rect width="42.3383" height="42.3383" transform="matrix(0.866025 0.5 -0.866025 0.5 184.33 43.2256)" fill="white"/>
</clipPath>
<clipPath id="clip6_153_1378">
<rect width="42.3383" height="42.3383" transform="matrix(2.20305e-08 1 -0.866025 0.5 220.996 64.3945)" fill="white"/>
</clipPath>
<clipPath id="clip7_153_1378">
<rect width="42.3383" height="42.3383" transform="matrix(0.866025 0.5 -0.866025 0.5 74.3321 64.3945)" fill="white"/>
</clipPath>
<clipPath id="clip8_153_1378">
<rect width="42.3383" height="42.3383" transform="matrix(0.866025 0.5 -2.20305e-08 1 37.6673 85.5635)" fill="white"/>
</clipPath>
<clipPath id="clip9_153_1378">
<rect width="42.3383" height="42.3383" transform="matrix(0.866025 0.5 -0.866025 0.5 37.6663 43.2251)" fill="white"/>
</clipPath>
<clipPath id="clip10_153_1378">
<rect width="42.3383" height="42.3383" transform="matrix(0.866025 0.5 -2.20305e-08 1 1.00104 64.3945)" fill="white"/>
</clipPath>
<clipPath id="clip11_153_1378">
<rect width="42.3383" height="42.3383" transform="matrix(2.20305e-08 1 -0.866025 0.5 147.664 148.072)" fill="white"/>
</clipPath>
<clipPath id="clip12_153_1378">
<rect width="42.3383" height="42.3383" transform="matrix(0.866025 0.5 -2.20305e-08 1 74.3334 149.072)" fill="white"/>
</clipPath>
<clipPath id="clip13_153_1378">
<rect width="42.3383" height="42.3383" transform="matrix(2.20305e-08 1 -0.866025 0.5 147.664 190.411)" fill="white"/>
</clipPath>
<clipPath id="clip14_153_1378">
<rect width="42.3383" height="42.3383" transform="matrix(0.866025 0.5 -2.20305e-08 1 74.3324 191.411)" fill="white"/>
</clipPath>
<clipPath id="clip15_153_1378">
<rect width="42.3383" height="42.3383" transform="matrix(2.20305e-08 1 -0.866025 0.5 184.329 169.241)" fill="white"/>
</clipPath>
<clipPath id="clip16_153_1378">
<rect width="42.3383" height="42.3383" transform="matrix(2.20305e-08 1 -0.866025 0.5 184.33 126.902)" fill="white"/>
</clipPath>
<clipPath id="clip17_153_1378">
<rect width="42.3383" height="42.3383" transform="matrix(0.866025 0.5 -2.20305e-08 1 37.6663 170.241)" fill="white"/>
</clipPath>
<clipPath id="clip18_153_1378">
<rect width="42.3383" height="42.3383" transform="matrix(0.866025 0.5 -2.20305e-08 1 37.6663 127.902)" fill="white"/>
</clipPath>
<clipPath id="clip19_153_1378">
<rect width="42.3383" height="42.3383" transform="matrix(0.866025 0.5 -0.866025 0.5 74.3321 22.0562)" fill="white"/>
</clipPath>
<clipPath id="clip20_153_1378">
<rect width="42.3383" height="42.3383" transform="matrix(0.866025 0.5 -0.866025 0.5 110.998 0.886719)" fill="white"/>
</clipPath>
<clipPath id="clip21_153_1378">
<rect width="42.3383" height="42.3383" transform="matrix(0.866025 0.5 -0.866025 0.5 147.664 22.0562)" fill="white"/>
</clipPath>
<clipPath id="clip22_153_1378">
<rect width="42.3383" height="42.3383" transform="matrix(0.866025 0.5 -2.20305e-08 1 1 106.733)" fill="white"/>
</clipPath>
<clipPath id="clip23_153_1378">
<rect width="42.3383" height="42.3383" transform="matrix(0.866025 0.5 -2.20305e-08 1 1 149.072)" fill="white"/>
</clipPath>
<clipPath id="clip24_153_1378">
<rect width="42.3383" height="42.3383" transform="matrix(2.20305e-08 1 -0.866025 0.5 220.996 105.733)" fill="white"/>
</clipPath>
<clipPath id="clip25_153_1378">
<rect width="42.3383" height="42.3383" transform="matrix(2.20305e-08 1 -0.866025 0.5 220.996 148.072)" fill="white"/>
</clipPath>
<clipPath id="clip26_153_1378">
<rect width="42.3383" height="42.3383" transform="matrix(0.866025 0.5 -0.866025 0.5 110.998 43.2256)" fill="white"/>
</clipPath>
</defs>
</svg>
