<svg width="222" height="256" viewBox="0 0 222 256" fill="none" xmlns="http://www.w3.org/2000/svg">
<g clip-path="url(#clip0_153_1601)">
<rect width="42.3383" height="42.3383" transform="matrix(0.866025 0.5 -0.866025 0.5 110.998 85.6836)" fill="#F7D835"/>
<rect width="42.3383" height="42.3383" transform="matrix(0.866025 0.5 -0.866025 0.5 110.998 85.6836)" fill="black" fill-opacity="0.5"/>
<rect width="42.3383" height="42.3383" transform="matrix(0.866025 0.5 -0.866025 0.5 110.998 85.6836)" fill="white" fill-opacity="0.08"/>
</g>
<rect width="42.3383" height="42.3383" transform="matrix(0.866025 0.5 -0.866025 0.5 110.998 85.6836)" stroke="black" stroke-opacity="0.16"/>
<g clip-path="url(#clip1_153_1601)">
<rect width="42.3383" height="42.3383" transform="matrix(2.20305e-08 1 -0.866025 0.5 147.664 106.853)" fill="#75C37D"/>
<rect width="42.3383" height="42.3383" transform="matrix(2.20305e-08 1 -0.866025 0.5 147.664 106.853)" fill="black" fill-opacity="0.5"/>
<rect width="42.3383" height="42.3383" transform="matrix(2.20305e-08 1 -0.866025 0.5 147.664 106.853)" fill="#373737" fill-opacity="0.36" style="mix-blend-mode:overlay"/>
<rect width="42.3383" height="42.3383" transform="matrix(2.20305e-08 1 -0.866025 0.5 147.664 106.853)" fill="black" fill-opacity="0.16" style="mix-blend-mode:darken"/>
</g>
<rect width="42.3383" height="42.3383" transform="matrix(2.20305e-08 1 -0.866025 0.5 147.664 106.853)" stroke="black" stroke-opacity="0.16"/>
<g clip-path="url(#clip2_153_1601)">
<rect width="42.3383" height="42.3383" transform="matrix(0.866025 0.5 -2.20305e-08 1 74.3332 106.853)" fill="#D63B41"/>
<rect width="42.3383" height="42.3383" transform="matrix(0.866025 0.5 -2.20305e-08 1 74.3332 106.853)" fill="black" fill-opacity="0.5"/>
<rect width="42.3383" height="42.3383" transform="matrix(0.866025 0.5 -2.20305e-08 1 74.3332 106.853)" fill="black" fill-opacity="0.16" style="mix-blend-mode:darken"/>
</g>
<rect width="42.3383" height="42.3383" transform="matrix(0.866025 0.5 -2.20305e-08 1 74.3332 106.853)" stroke="black" stroke-opacity="0.16"/>
<g clip-path="url(#clip3_153_1601)">
<rect width="42.3383" height="42.3383" transform="matrix(0.866025 0.5 -0.866025 0.5 147.664 64.5142)" fill="#F7D835"/>
<rect width="42.3383" height="42.3383" transform="matrix(0.866025 0.5 -0.866025 0.5 147.664 64.5142)" fill="black" fill-opacity="0.5"/>
<rect width="42.3383" height="42.3383" transform="matrix(0.866025 0.5 -0.866025 0.5 147.664 64.5142)" fill="white" fill-opacity="0.08"/>
</g>
<rect width="42.3383" height="42.3383" transform="matrix(0.866025 0.5 -0.866025 0.5 147.664 64.5142)" stroke="black" stroke-opacity="0.16"/>
<g clip-path="url(#clip4_153_1601)">
<rect width="42.3383" height="42.3383" transform="matrix(2.20305e-08 1 -0.866025 0.5 184.33 85.6831)" fill="#75C37D"/>
<rect width="42.3383" height="42.3383" transform="matrix(2.20305e-08 1 -0.866025 0.5 184.33 85.6831)" fill="#373737" fill-opacity="0.36" style="mix-blend-mode:overlay"/>
<rect width="42.3383" height="42.3383" transform="matrix(2.20305e-08 1 -0.866025 0.5 184.33 85.6831)" fill="black" fill-opacity="0.16" style="mix-blend-mode:darken"/>
</g>
<rect width="42.3383" height="42.3383" transform="matrix(2.20305e-08 1 -0.866025 0.5 184.33 85.6831)" stroke="black" stroke-opacity="0.16"/>
<g clip-path="url(#clip5_153_1601)">
<rect width="42.3383" height="42.3383" transform="matrix(0.866025 0.5 -0.866025 0.5 184.33 43.3447)" fill="#F7D835"/>
<rect width="42.3383" height="42.3383" transform="matrix(0.866025 0.5 -0.866025 0.5 184.33 43.3447)" fill="black" fill-opacity="0.5"/>
<rect width="42.3383" height="42.3383" transform="matrix(0.866025 0.5 -0.866025 0.5 184.33 43.3447)" fill="white" fill-opacity="0.08"/>
</g>
<rect width="42.3383" height="42.3383" transform="matrix(0.866025 0.5 -0.866025 0.5 184.33 43.3447)" stroke="black" stroke-opacity="0.16"/>
<g clip-path="url(#clip6_153_1601)">
<rect width="42.3383" height="42.3383" transform="matrix(2.20305e-08 1 -0.866025 0.5 220.996 64.5137)" fill="#75C37D"/>
<rect width="42.3383" height="42.3383" transform="matrix(2.20305e-08 1 -0.866025 0.5 220.996 64.5137)" fill="black" fill-opacity="0.5"/>
<rect width="42.3383" height="42.3383" transform="matrix(2.20305e-08 1 -0.866025 0.5 220.996 64.5137)" fill="#373737" fill-opacity="0.36" style="mix-blend-mode:overlay"/>
<rect width="42.3383" height="42.3383" transform="matrix(2.20305e-08 1 -0.866025 0.5 220.996 64.5137)" fill="black" fill-opacity="0.16" style="mix-blend-mode:darken"/>
</g>
<rect width="42.3383" height="42.3383" transform="matrix(2.20305e-08 1 -0.866025 0.5 220.996 64.5137)" stroke="black" stroke-opacity="0.16"/>
<g clip-path="url(#clip7_153_1601)">
<rect width="42.3383" height="42.3383" transform="matrix(0.866025 0.5 -0.866025 0.5 74.3321 64.5142)" fill="#F7D835"/>
<rect width="42.3383" height="42.3383" transform="matrix(0.866025 0.5 -0.866025 0.5 74.3321 64.5142)" fill="black" fill-opacity="0.5"/>
<rect width="42.3383" height="42.3383" transform="matrix(0.866025 0.5 -0.866025 0.5 74.3321 64.5142)" fill="white" fill-opacity="0.08"/>
</g>
<rect width="42.3383" height="42.3383" transform="matrix(0.866025 0.5 -0.866025 0.5 74.3321 64.5142)" stroke="black" stroke-opacity="0.16"/>
<g clip-path="url(#clip8_153_1601)">
<rect width="42.3383" height="42.3383" transform="matrix(0.866025 0.5 -2.20305e-08 1 37.6673 85.6831)" fill="#D63B41"/>
<rect width="42.3383" height="42.3383" transform="matrix(0.866025 0.5 -2.20305e-08 1 37.6673 85.6831)" fill="black" fill-opacity="0.16" style="mix-blend-mode:darken"/>
</g>
<rect width="42.3383" height="42.3383" transform="matrix(0.866025 0.5 -2.20305e-08 1 37.6673 85.6831)" stroke="black" stroke-opacity="0.16"/>
<g clip-path="url(#clip9_153_1601)">
<rect width="42.3383" height="42.3383" transform="matrix(0.866025 0.5 -0.866025 0.5 37.6663 43.3447)" fill="#F7D835"/>
<rect width="42.3383" height="42.3383" transform="matrix(0.866025 0.5 -0.866025 0.5 37.6663 43.3447)" fill="black" fill-opacity="0.5"/>
<rect width="42.3383" height="42.3383" transform="matrix(0.866025 0.5 -0.866025 0.5 37.6663 43.3447)" fill="white" fill-opacity="0.08"/>
</g>
<rect width="42.3383" height="42.3383" transform="matrix(0.866025 0.5 -0.866025 0.5 37.6663 43.3447)" stroke="black" stroke-opacity="0.16"/>
<g clip-path="url(#clip10_153_1601)">
<rect width="42.3383" height="42.3383" transform="matrix(0.866025 0.5 -2.20305e-08 1 1.00104 64.5142)" fill="#D63B41"/>
<rect width="42.3383" height="42.3383" transform="matrix(0.866025 0.5 -2.20305e-08 1 1.00104 64.5142)" fill="black" fill-opacity="0.5"/>
<rect width="42.3383" height="42.3383" transform="matrix(0.866025 0.5 -2.20305e-08 1 1.00104 64.5142)" fill="black" fill-opacity="0.16" style="mix-blend-mode:darken"/>
</g>
<rect width="42.3383" height="42.3383" transform="matrix(0.866025 0.5 -2.20305e-08 1 1.00104 64.5142)" stroke="black" stroke-opacity="0.16"/>
<g clip-path="url(#clip11_153_1601)">
<rect width="42.3383" height="42.3383" transform="matrix(2.20305e-08 1 -0.866025 0.5 147.664 149.191)" fill="#75C37D"/>
<rect width="42.3383" height="42.3383" transform="matrix(2.20305e-08 1 -0.866025 0.5 147.664 149.191)" fill="black" fill-opacity="0.5"/>
<rect width="42.3383" height="42.3383" transform="matrix(2.20305e-08 1 -0.866025 0.5 147.664 149.191)" fill="#373737" fill-opacity="0.36" style="mix-blend-mode:overlay"/>
<rect width="42.3383" height="42.3383" transform="matrix(2.20305e-08 1 -0.866025 0.5 147.664 149.191)" fill="black" fill-opacity="0.16" style="mix-blend-mode:darken"/>
</g>
<rect width="42.3383" height="42.3383" transform="matrix(2.20305e-08 1 -0.866025 0.5 147.664 149.191)" stroke="black" stroke-opacity="0.16"/>
<g clip-path="url(#clip12_153_1601)">
<rect width="42.3383" height="42.3383" transform="matrix(0.866025 0.5 -2.20305e-08 1 74.3334 149.191)" fill="#D63B41"/>
<rect width="42.3383" height="42.3383" transform="matrix(0.866025 0.5 -2.20305e-08 1 74.3334 149.191)" fill="black" fill-opacity="0.5"/>
<rect width="42.3383" height="42.3383" transform="matrix(0.866025 0.5 -2.20305e-08 1 74.3334 149.191)" fill="black" fill-opacity="0.16" style="mix-blend-mode:darken"/>
</g>
<rect width="42.3383" height="42.3383" transform="matrix(0.866025 0.5 -2.20305e-08 1 74.3334 149.191)" stroke="black" stroke-opacity="0.16"/>
<g clip-path="url(#clip13_153_1601)">
<rect width="42.3383" height="42.3383" transform="matrix(2.20305e-08 1 -0.866025 0.5 147.664 191.53)" fill="#75C37D"/>
<rect width="42.3383" height="42.3383" transform="matrix(2.20305e-08 1 -0.866025 0.5 147.664 191.53)" fill="black" fill-opacity="0.5"/>
<rect width="42.3383" height="42.3383" transform="matrix(2.20305e-08 1 -0.866025 0.5 147.664 191.53)" fill="#373737" fill-opacity="0.36" style="mix-blend-mode:overlay"/>
<rect width="42.3383" height="42.3383" transform="matrix(2.20305e-08 1 -0.866025 0.5 147.664 191.53)" fill="black" fill-opacity="0.16" style="mix-blend-mode:darken"/>
</g>
<rect width="42.3383" height="42.3383" transform="matrix(2.20305e-08 1 -0.866025 0.5 147.664 191.53)" stroke="black" stroke-opacity="0.16"/>
<g clip-path="url(#clip14_153_1601)">
<rect width="42.3383" height="42.3383" transform="matrix(0.866025 0.5 -2.20305e-08 1 74.3324 191.53)" fill="#D63B41"/>
<rect width="42.3383" height="42.3383" transform="matrix(0.866025 0.5 -2.20305e-08 1 74.3324 191.53)" fill="black" fill-opacity="0.5"/>
<rect width="42.3383" height="42.3383" transform="matrix(0.866025 0.5 -2.20305e-08 1 74.3324 191.53)" fill="black" fill-opacity="0.16" style="mix-blend-mode:darken"/>
</g>
<rect width="42.3383" height="42.3383" transform="matrix(0.866025 0.5 -2.20305e-08 1 74.3324 191.53)" stroke="black" stroke-opacity="0.16"/>
<g clip-path="url(#clip15_153_1601)">
<rect width="42.3383" height="42.3383" transform="matrix(2.20305e-08 1 -0.866025 0.5 184.329 170.361)" fill="#75C37D"/>
<rect width="42.3383" height="42.3383" transform="matrix(2.20305e-08 1 -0.866025 0.5 184.329 170.361)" fill="black" fill-opacity="0.5"/>
<rect width="42.3383" height="42.3383" transform="matrix(2.20305e-08 1 -0.866025 0.5 184.329 170.361)" fill="#373737" fill-opacity="0.36" style="mix-blend-mode:overlay"/>
<rect width="42.3383" height="42.3383" transform="matrix(2.20305e-08 1 -0.866025 0.5 184.329 170.361)" fill="black" fill-opacity="0.16" style="mix-blend-mode:darken"/>
</g>
<rect width="42.3383" height="42.3383" transform="matrix(2.20305e-08 1 -0.866025 0.5 184.329 170.361)" stroke="black" stroke-opacity="0.16"/>
<g clip-path="url(#clip16_153_1601)">
<rect width="42.3383" height="42.3383" transform="matrix(2.20305e-08 1 -0.866025 0.5 184.33 128.022)" fill="#75C37D"/>
<rect width="42.3383" height="42.3383" transform="matrix(2.20305e-08 1 -0.866025 0.5 184.33 128.022)" fill="black" fill-opacity="0.5"/>
<rect width="42.3383" height="42.3383" transform="matrix(2.20305e-08 1 -0.866025 0.5 184.33 128.022)" fill="#373737" fill-opacity="0.36" style="mix-blend-mode:overlay"/>
<rect width="42.3383" height="42.3383" transform="matrix(2.20305e-08 1 -0.866025 0.5 184.33 128.022)" fill="black" fill-opacity="0.16" style="mix-blend-mode:darken"/>
</g>
<rect width="42.3383" height="42.3383" transform="matrix(2.20305e-08 1 -0.866025 0.5 184.33 128.022)" stroke="black" stroke-opacity="0.16"/>
<g clip-path="url(#clip17_153_1601)">
<rect width="42.3383" height="42.3383" transform="matrix(0.866025 0.5 -2.20305e-08 1 37.6663 170.361)" fill="#D63B41"/>
<rect width="42.3383" height="42.3383" transform="matrix(0.866025 0.5 -2.20305e-08 1 37.6663 170.361)" fill="black" fill-opacity="0.5"/>
<rect width="42.3383" height="42.3383" transform="matrix(0.866025 0.5 -2.20305e-08 1 37.6663 170.361)" fill="black" fill-opacity="0.16" style="mix-blend-mode:darken"/>
</g>
<rect width="42.3383" height="42.3383" transform="matrix(0.866025 0.5 -2.20305e-08 1 37.6663 170.361)" stroke="black" stroke-opacity="0.16"/>
<g clip-path="url(#clip18_153_1601)">
<rect width="42.3383" height="42.3383" transform="matrix(0.866025 0.5 -2.20305e-08 1 37.6663 128.022)" fill="#D63B41"/>
<rect width="42.3383" height="42.3383" transform="matrix(0.866025 0.5 -2.20305e-08 1 37.6663 128.022)" fill="black" fill-opacity="0.5"/>
<rect width="42.3383" height="42.3383" transform="matrix(0.866025 0.5 -2.20305e-08 1 37.6663 128.022)" fill="black" fill-opacity="0.16" style="mix-blend-mode:darken"/>
</g>
<rect width="42.3383" height="42.3383" transform="matrix(0.866025 0.5 -2.20305e-08 1 37.6663 128.022)" stroke="black" stroke-opacity="0.16"/>
<g clip-path="url(#clip19_153_1601)">
<rect width="42.3383" height="42.3383" transform="matrix(0.866025 0.5 -0.866025 0.5 74.3321 22.1758)" fill="#F7D835"/>
<rect width="42.3383" height="42.3383" transform="matrix(0.866025 0.5 -0.866025 0.5 74.3321 22.1758)" fill="black" fill-opacity="0.5"/>
<rect width="42.3383" height="42.3383" transform="matrix(0.866025 0.5 -0.866025 0.5 74.3321 22.1758)" fill="white" fill-opacity="0.08"/>
</g>
<rect width="42.3383" height="42.3383" transform="matrix(0.866025 0.5 -0.866025 0.5 74.3321 22.1758)" stroke="black" stroke-opacity="0.16"/>
<g clip-path="url(#clip20_153_1601)">
<rect width="42.3383" height="42.3383" transform="matrix(0.866025 0.5 -0.866025 0.5 110.998 1.00635)" fill="#F7D835"/>
<rect width="42.3383" height="42.3383" transform="matrix(0.866025 0.5 -0.866025 0.5 110.998 1.00635)" fill="black" fill-opacity="0.5"/>
<rect width="42.3383" height="42.3383" transform="matrix(0.866025 0.5 -0.866025 0.5 110.998 1.00635)" fill="white" fill-opacity="0.08"/>
</g>
<rect width="42.3383" height="42.3383" transform="matrix(0.866025 0.5 -0.866025 0.5 110.998 1.00635)" stroke="black" stroke-opacity="0.16"/>
<g clip-path="url(#clip21_153_1601)">
<rect width="42.3383" height="42.3383" transform="matrix(0.866025 0.5 -0.866025 0.5 147.664 22.1758)" fill="#F7D835"/>
<rect width="42.3383" height="42.3383" transform="matrix(0.866025 0.5 -0.866025 0.5 147.664 22.1758)" fill="black" fill-opacity="0.5"/>
<rect width="42.3383" height="42.3383" transform="matrix(0.866025 0.5 -0.866025 0.5 147.664 22.1758)" fill="white" fill-opacity="0.08"/>
</g>
<rect width="42.3383" height="42.3383" transform="matrix(0.866025 0.5 -0.866025 0.5 147.664 22.1758)" stroke="black" stroke-opacity="0.16"/>
<g clip-path="url(#clip22_153_1601)">
<rect width="42.3383" height="42.3383" transform="matrix(0.866025 0.5 -2.20305e-08 1 1 106.853)" fill="#D63B41"/>
<rect width="42.3383" height="42.3383" transform="matrix(0.866025 0.5 -2.20305e-08 1 1 106.853)" fill="black" fill-opacity="0.5"/>
<rect width="42.3383" height="42.3383" transform="matrix(0.866025 0.5 -2.20305e-08 1 1 106.853)" fill="black" fill-opacity="0.16" style="mix-blend-mode:darken"/>
</g>
<rect width="42.3383" height="42.3383" transform="matrix(0.866025 0.5 -2.20305e-08 1 1 106.853)" stroke="black" stroke-opacity="0.16"/>
<g clip-path="url(#clip23_153_1601)">
<rect width="42.3383" height="42.3383" transform="matrix(0.866025 0.5 -2.20305e-08 1 1 149.191)" fill="#D63B41"/>
<rect width="42.3383" height="42.3383" transform="matrix(0.866025 0.5 -2.20305e-08 1 1 149.191)" fill="black" fill-opacity="0.5"/>
<rect width="42.3383" height="42.3383" transform="matrix(0.866025 0.5 -2.20305e-08 1 1 149.191)" fill="black" fill-opacity="0.16" style="mix-blend-mode:darken"/>
</g>
<rect width="42.3383" height="42.3383" transform="matrix(0.866025 0.5 -2.20305e-08 1 1 149.191)" stroke="black" stroke-opacity="0.16"/>
<g clip-path="url(#clip24_153_1601)">
<rect width="42.3383" height="42.3383" transform="matrix(2.20305e-08 1 -0.866025 0.5 220.996 106.853)" fill="#75C37D"/>
<rect width="42.3383" height="42.3383" transform="matrix(2.20305e-08 1 -0.866025 0.5 220.996 106.853)" fill="black" fill-opacity="0.5"/>
<rect width="42.3383" height="42.3383" transform="matrix(2.20305e-08 1 -0.866025 0.5 220.996 106.853)" fill="#373737" fill-opacity="0.36" style="mix-blend-mode:overlay"/>
<rect width="42.3383" height="42.3383" transform="matrix(2.20305e-08 1 -0.866025 0.5 220.996 106.853)" fill="black" fill-opacity="0.16" style="mix-blend-mode:darken"/>
</g>
<rect width="42.3383" height="42.3383" transform="matrix(2.20305e-08 1 -0.866025 0.5 220.996 106.853)" stroke="black" stroke-opacity="0.16"/>
<g clip-path="url(#clip25_153_1601)">
<rect width="42.3383" height="42.3383" transform="matrix(2.20305e-08 1 -0.866025 0.5 220.996 149.191)" fill="#75C37D"/>
<rect width="42.3383" height="42.3383" transform="matrix(2.20305e-08 1 -0.866025 0.5 220.996 149.191)" fill="black" fill-opacity="0.5"/>
<rect width="42.3383" height="42.3383" transform="matrix(2.20305e-08 1 -0.866025 0.5 220.996 149.191)" fill="#373737" fill-opacity="0.36" style="mix-blend-mode:overlay"/>
<rect width="42.3383" height="42.3383" transform="matrix(2.20305e-08 1 -0.866025 0.5 220.996 149.191)" fill="black" fill-opacity="0.16" style="mix-blend-mode:darken"/>
</g>
<rect width="42.3383" height="42.3383" transform="matrix(2.20305e-08 1 -0.866025 0.5 220.996 149.191)" stroke="black" stroke-opacity="0.16"/>
<g clip-path="url(#clip26_153_1601)">
<rect width="42.3383" height="42.3383" transform="matrix(0.866025 0.5 -0.866025 0.5 110.998 43.3447)" fill="#F7D835"/>
<rect width="42.3383" height="42.3383" transform="matrix(0.866025 0.5 -0.866025 0.5 110.998 43.3447)" fill="black" fill-opacity="0.5"/>
<rect width="42.3383" height="42.3383" transform="matrix(0.866025 0.5 -0.866025 0.5 110.998 43.3447)" fill="white" fill-opacity="0.08"/>
</g>
<rect width="42.3383" height="42.3383" transform="matrix(0.866025 0.5 -0.866025 0.5 110.998 43.3447)" stroke="black" stroke-opacity="0.16"/>
<defs>
<clipPath id="clip0_153_1601">
<rect width="42.3383" height="42.3383" transform="matrix(0.866025 0.5 -0.866025 0.5 110.998 85.6836)" fill="white"/>
</clipPath>
<clipPath id="clip1_153_1601">
<rect width="42.3383" height="42.3383" transform="matrix(2.20305e-08 1 -0.866025 0.5 147.664 106.853)" fill="white"/>
</clipPath>
<clipPath id="clip2_153_1601">
<rect width="42.3383" height="42.3383" transform="matrix(0.866025 0.5 -2.20305e-08 1 74.3332 106.853)" fill="white"/>
</clipPath>
<clipPath id="clip3_153_1601">
<rect width="42.3383" height="42.3383" transform="matrix(0.866025 0.5 -0.866025 0.5 147.664 64.5142)" fill="white"/>
</clipPath>
<clipPath id="clip4_153_1601">
<rect width="42.3383" height="42.3383" transform="matrix(2.20305e-08 1 -0.866025 0.5 184.33 85.6831)" fill="white"/>
</clipPath>
<clipPath id="clip5_153_1601">
<rect width="42.3383" height="42.3383" transform="matrix(0.866025 0.5 -0.866025 0.5 184.33 43.3447)" fill="white"/>
</clipPath>
<clipPath id="clip6_153_1601">
<rect width="42.3383" height="42.3383" transform="matrix(2.20305e-08 1 -0.866025 0.5 220.996 64.5137)" fill="white"/>
</clipPath>
<clipPath id="clip7_153_1601">
<rect width="42.3383" height="42.3383" transform="matrix(0.866025 0.5 -0.866025 0.5 74.3321 64.5142)" fill="white"/>
</clipPath>
<clipPath id="clip8_153_1601">
<rect width="42.3383" height="42.3383" transform="matrix(0.866025 0.5 -2.20305e-08 1 37.6673 85.6831)" fill="white"/>
</clipPath>
<clipPath id="clip9_153_1601">
<rect width="42.3383" height="42.3383" transform="matrix(0.866025 0.5 -0.866025 0.5 37.6663 43.3447)" fill="white"/>
</clipPath>
<clipPath id="clip10_153_1601">
<rect width="42.3383" height="42.3383" transform="matrix(0.866025 0.5 -2.20305e-08 1 1.00104 64.5142)" fill="white"/>
</clipPath>
<clipPath id="clip11_153_1601">
<rect width="42.3383" height="42.3383" transform="matrix(2.20305e-08 1 -0.866025 0.5 147.664 149.191)" fill="white"/>
</clipPath>
<clipPath id="clip12_153_1601">
<rect width="42.3383" height="42.3383" transform="matrix(0.866025 0.5 -2.20305e-08 1 74.3334 149.191)" fill="white"/>
</clipPath>
<clipPath id="clip13_153_1601">
<rect width="42.3383" height="42.3383" transform="matrix(2.20305e-08 1 -0.866025 0.5 147.664 191.53)" fill="white"/>
</clipPath>
<clipPath id="clip14_153_1601">
<rect width="42.3383" height="42.3383" transform="matrix(0.866025 0.5 -2.20305e-08 1 74.3324 191.53)" fill="white"/>
</clipPath>
<clipPath id="clip15_153_1601">
<rect width="42.3383" height="42.3383" transform="matrix(2.20305e-08 1 -0.866025 0.5 184.329 170.361)" fill="white"/>
</clipPath>
<clipPath id="clip16_153_1601">
<rect width="42.3383" height="42.3383" transform="matrix(2.20305e-08 1 -0.866025 0.5 184.33 128.022)" fill="white"/>
</clipPath>
<clipPath id="clip17_153_1601">
<rect width="42.3383" height="42.3383" transform="matrix(0.866025 0.5 -2.20305e-08 1 37.6663 170.361)" fill="white"/>
</clipPath>
<clipPath id="clip18_153_1601">
<rect width="42.3383" height="42.3383" transform="matrix(0.866025 0.5 -2.20305e-08 1 37.6663 128.022)" fill="white"/>
</clipPath>
<clipPath id="clip19_153_1601">
<rect width="42.3383" height="42.3383" transform="matrix(0.866025 0.5 -0.866025 0.5 74.3321 22.1758)" fill="white"/>
</clipPath>
<clipPath id="clip20_153_1601">
<rect width="42.3383" height="42.3383" transform="matrix(0.866025 0.5 -0.866025 0.5 110.998 1.00635)" fill="white"/>
</clipPath>
<clipPath id="clip21_153_1601">
<rect width="42.3383" height="42.3383" transform="matrix(0.866025 0.5 -0.866025 0.5 147.664 22.1758)" fill="white"/>
</clipPath>
<clipPath id="clip22_153_1601">
<rect width="42.3383" height="42.3383" transform="matrix(0.866025 0.5 -2.20305e-08 1 1 106.853)" fill="white"/>
</clipPath>
<clipPath id="clip23_153_1601">
<rect width="42.3383" height="42.3383" transform="matrix(0.866025 0.5 -2.20305e-08 1 1 149.191)" fill="white"/>
</clipPath>
<clipPath id="clip24_153_1601">
<rect width="42.3383" height="42.3383" transform="matrix(2.20305e-08 1 -0.866025 0.5 220.996 106.853)" fill="white"/>
</clipPath>
<clipPath id="clip25_153_1601">
<rect width="42.3383" height="42.3383" transform="matrix(2.20305e-08 1 -0.866025 0.5 220.996 149.191)" fill="white"/>
</clipPath>
<clipPath id="clip26_153_1601">
<rect width="42.3383" height="42.3383" transform="matrix(0.866025 0.5 -0.866025 0.5 110.998 43.3447)" fill="white"/>
</clipPath>
</defs>
</svg>
