<svg width="16" height="16" viewBox="0 0 16 16" fill="none" xmlns="http://www.w3.org/2000/svg">
<path fill-rule="evenodd" clip-rule="evenodd" d="M0 0.752808H4V4.75281H0V0.752808ZM0 6.00281H4V10.0028H0V6.00281ZM4 11.2528H0V15.2528H4V11.2528Z" fill="white" fill-opacity="0.5"/>
<path d="M7.47374 2.83793C7.73724 1.17826 9.20495 0.000697153 10.8854 0.0011587V0.0011587C13.3603 0.00183847 15.0729 2.47408 14.2036 4.79134L13.5268 6.59555C13.1872 7.50106 13.1871 8.49898 13.5265 9.40456L14.2062 11.2174C15.0742 13.5329 13.3625 16.0026 10.8897 16.0026V16.0026C9.20765 16.0026 7.74026 14.8213 7.47763 13.1599C6.88898 9.43595 6.88246 6.56201 7.47374 2.83793Z" fill="white" fill-opacity="0.5"/>
</svg>
