<svg width="16" height="16" viewBox="0 0 16 16" fill="none" xmlns="http://www.w3.org/2000/svg">
<path fill-rule="evenodd" clip-rule="evenodd" d="M0.11888 0C1.52903 3.72412 1.69794 8.13223 0.301806 12.1943C-0.604914 14.8323 0.636576 16 2.62343 16C2.62343 16 5.49066 15.4793 5.99301 15.4793C8.26011 15.4793 8.94662 15.5791 9.73354 15.6935C10.5159 15.8072 11.3976 15.9354 14.0306 15.9943C16.2234 16.0433 17.2059 13.629 13.6369 13.629L8.33215 10.8561C6.00481 8.26558 6.35255 2.34779 7.03123 0H0.11888ZM8.56256 0H10.7501V2.18749H8.56256V0ZM11.1875 2.18749V0H13.375V2.18749H11.1875ZM13.8125 2.18749V0H16V2.18749H13.8125ZM13.8125 2.62499H16V4.81248H13.8125V2.62499ZM13.8125 5.24998H16V7.43747H13.8125V5.24998ZM13.375 5.24998V7.43747H11.1875V5.24998H13.375ZM10.7501 5.24998V7.43747H8.56256V5.24998H10.7501ZM10.7501 4.81248H8.56256V2.62499H10.7501V4.81248ZM13.375 2.62499V4.81248H11.1875V2.62499H13.375Z" fill="white" fill-opacity="0.5"/>
</svg>
