<svg width="16" height="16" viewBox="0 0 16 16" fill="none" xmlns="http://www.w3.org/2000/svg">
<path fill-rule="evenodd" clip-rule="evenodd" d="M0 0.750244H4V4.75024H0V0.750244ZM0 6.00024H4V10.0002H0V6.00024ZM4 11.2502H0V15.2502H4V11.2502Z" fill="white" fill-opacity="0.5"/>
<path fill-rule="evenodd" clip-rule="evenodd" d="M15.691 2.22426C14.8273 0.740992 13.9775 0.354261 12.2917 0.677407L12.189 0.903145L11.8807 1.58056L7.25719 11.741L6.84621 12.6441C6.84623 12.6442 6.84626 12.6442 6.84628 12.6443L6.84627 12.6443C6.84628 12.6443 6.84629 12.6443 6.84629 12.6443C7.27943 13.5754 7.42448 14.1137 7.64453 14.9304C7.66981 15.0242 7.69607 15.1217 7.72388 15.2238C7.81871 15.1776 7.90893 15.1334 7.99574 15.0908C8.74499 14.7233 9.23975 14.4806 10.2454 14.191C10.2454 14.191 10.2455 14.1911 10.2455 14.1911L10.7488 13.0852C10.7488 13.0852 10.7487 13.0852 10.7487 13.0851L14.4952 4.85196C14.4953 4.85199 14.4953 4.85202 14.4953 4.85205L14.9986 3.74614C14.9986 3.74611 14.9985 3.74608 14.9985 3.74604L15.28 3.12741L15.5883 2.45L15.691 2.22426ZM14.9985 3.74604C13.9143 2.61877 13.1644 2.28108 11.5993 2.19929L11.0961 3.30519C12.6193 3.4794 13.363 3.82133 14.4952 4.85196L14.9985 3.74604ZM10.7487 13.0851C9.66452 11.9579 8.91465 11.6202 7.34952 11.5384L6.84628 12.6443C6.84629 12.6443 6.84629 12.6443 6.84629 12.6443C8.36952 12.8185 9.11317 13.1604 10.2454 14.191C10.2454 14.191 10.2455 14.191 10.2455 14.191L10.6565 13.2878L10.7487 13.0851Z" fill="white" fill-opacity="0.5"/>
</svg>
