<svg width="16" height="16" viewBox="0 0 16 16" fill="none" xmlns="http://www.w3.org/2000/svg">
<path fill-rule="evenodd" clip-rule="evenodd" d="M0.969152 3.23605L0 4.2052L0.969152 5.17435L1.9383 4.2052L0.969152 3.23605ZM1.16298 3.04222L2.13213 4.01137L3.10129 3.04222L2.13213 2.07307L1.16298 3.04222ZM2.32597 1.87923L3.29512 2.84839L4.26427 1.87924L3.29512 0.910083L2.32597 1.87923ZM4.4581 2.07307L3.48895 3.04222L4.4581 4.01137L5.42725 3.04222L4.4581 2.07307ZM5.62108 3.23605L4.65193 4.2052L5.62108 5.17435L6.59023 4.2052L5.62108 3.23605ZM5.42725 5.36818L4.4581 4.39903L3.48895 5.36818L4.4581 6.33733L5.42725 5.36818ZM4.26427 6.53117L3.29512 5.56201L2.32597 6.53117L3.29512 7.50032L4.26427 6.53117ZM2.13213 6.33734L3.10129 5.36818L2.13213 4.39903L1.16298 5.36818L2.13213 6.33734ZM4.26427 4.2052L3.29512 3.23605L2.32597 4.2052L3.29512 5.17435L4.26427 4.2052Z" fill="white" fill-opacity="0.5"/>
<path fill-rule="evenodd" clip-rule="evenodd" d="M0.969152 10.8263L0 11.7954L0.969152 12.7646L1.9383 11.7954L0.969152 10.8263ZM1.16298 10.6324L2.13213 11.6016L3.10129 10.6324L2.13213 9.66328L1.16298 10.6324ZM2.32597 9.46944L3.29512 10.4386L4.26427 9.46944L3.29512 8.50029L2.32597 9.46944ZM4.4581 9.66328L3.48895 10.6324L4.4581 11.6016L5.42725 10.6324L4.4581 9.66328ZM5.62108 10.8263L4.65193 11.7954L5.62108 12.7646L6.59023 11.7954L5.62108 10.8263ZM5.42725 12.9584L4.4581 11.9892L3.48895 12.9584L4.4581 13.9275L5.42725 12.9584ZM4.26427 14.1214L3.29512 13.1522L2.32597 14.1214L3.29512 15.0905L4.26427 14.1214ZM2.13213 13.9275L3.10129 12.9584L2.13213 11.9892L1.16298 12.9584L2.13213 13.9275ZM4.26427 11.7954L3.29512 10.8263L2.32597 11.7954L3.29512 12.7646L4.26427 11.7954Z" fill="white" fill-opacity="0.5"/>
<path d="M7.47374 2.83756C7.73724 1.17789 9.20495 0.000330942 10.8854 0.000792493V0.000792493C13.3603 0.00147225 15.0729 2.47371 14.2036 4.79097L13.5268 6.59519C13.1872 7.5007 13.1871 8.49861 13.5265 9.40419L14.2062 11.2171C15.0742 13.5325 13.3625 16.0022 10.8897 16.0022V16.0022C9.20765 16.0022 7.74026 14.8209 7.47763 13.1595C6.88898 9.43558 6.88246 6.56165 7.47374 2.83756Z" fill="white" fill-opacity="0.5"/>
</svg>
