<svg width="16" height="16" viewBox="0 0 16 16" fill="none" xmlns="http://www.w3.org/2000/svg">
<path fill-rule="evenodd" clip-rule="evenodd" d="M8.99954 0H11.0583V2.05878H8.99954V0ZM11.4701 2.05878V0H13.5288V2.05878H11.4701ZM13.9406 2.05878V0H15.9994V2.05878H13.9406ZM13.9406 2.47053H15.9994V4.52931H13.9406V2.47053ZM13.9406 4.94106H15.9994V6.99984H13.9406V4.94106ZM13.5288 4.94106V6.99984H11.4701V4.94106H13.5288ZM11.0583 4.94106V6.99984H8.99954V4.94106H11.0583ZM11.0583 4.52931H8.99954V2.47053H11.0583V4.52931ZM13.5288 2.47053V4.52931H11.4701V2.47053H13.5288ZM14.3463 11.8329C14.8213 11.8329 15.2296 11.9996 15.5546 12.3329C15.8796 12.6663 16.008 13.058 15.9996 13.4997C15.9996 13.4997 10.4797 15.4997 9.28811 15.4996C8.09647 15.4995 3.51325 14.3329 3.51325 14.3329V6.83307H5.13821L11.1964 9.07468C11.6297 9.24967 11.8464 9.558 11.8464 10.008C11.8464 10.2663 11.7547 10.4996 11.5631 10.6913C11.3714 10.883 11.1381 10.9996 10.8464 10.9996H8.51313L7.05483 10.4413L6.77984 11.2246L8.51313 11.8329H14.3463ZM0 6.83307H2.49994V15.9996H0V6.83307Z" fill="white" fill-opacity="0.5"/>
</svg>
