<svg width="16" height="16" viewBox="0 0 16 16" fill="none" xmlns="http://www.w3.org/2000/svg">
<path fill-rule="evenodd" clip-rule="evenodd" d="M3.36842 0H0V3.36842H3.36842V0ZM4.21053 0V3.36842H7.57895V0H4.21053ZM8.42105 0V3.36842H11.7895V0H8.42105ZM12.6316 0V3.36842H16V0H12.6316ZM16 4.21053H12.6316V7.57895H16V4.21053ZM16 8.42105H12.6316V11.7895H16V8.42105ZM16 12.6316H12.6316V16H16V12.6316ZM11.7895 16V12.6316H8.42105V16H11.7895ZM7.57895 16V12.6316H4.21053V16H7.57895ZM3.36842 16V12.6316H0V16H3.36842ZM0 11.7895H3.36842V8.42105H0V11.7895ZM0 7.57895H3.36842V4.21053H0V7.57895ZM11.7895 7.57895V4.21053H8.42105V7.57895H11.7895ZM7.57895 7.57895V4.21053H4.21053V7.57895H7.57895ZM4.21053 8.42105H7.57895V11.7895H4.21053V8.42105ZM8.42105 8.42105H11.7895V11.7895H8.42105V8.42105Z" fill="white" fill-opacity="0.5"/>
</svg>
