<svg width="16" height="16" viewBox="0 0 16 16" fill="none" xmlns="http://www.w3.org/2000/svg">
<path fill-rule="evenodd" clip-rule="evenodd" d="M3.5 0.25H0V3.75H3.5V0.25ZM3.5 4.25H0V7.75H3.5V4.25ZM0 12.25H3.5V15.75H0V12.25ZM3.5 8.25H0V11.75H3.5V8.25Z" fill="white" fill-opacity="0.5"/>
<path d="M7.47374 2.83756C7.73724 1.17789 9.20495 0.000330942 10.8854 0.000792493V0.000792493C13.3603 0.00147225 15.0729 2.47371 14.2036 4.79097L13.5268 6.59519C13.1872 7.5007 13.1871 8.49861 13.5265 9.40419L14.2062 11.2171C15.0742 13.5325 13.3625 16.0022 10.8897 16.0022V16.0022C9.20765 16.0022 7.74026 14.8209 7.47763 13.1595C6.88898 9.43558 6.88246 6.56165 7.47374 2.83756Z" fill="white" fill-opacity="0.5"/>
</svg>
