<svg width="16" height="16" viewBox="0 0 16 16" fill="none" xmlns="http://www.w3.org/2000/svg">
<path fill-rule="evenodd" clip-rule="evenodd" d="M2.66667 0H0V2.66667H2.66667V0ZM3.33333 0V2.66667H6V0H3.33333ZM6.66667 0V2.66667H9.33333V0H6.66667ZM10 0V2.66667H12.6667V0H10ZM13.3333 0V2.66667H16V0H13.3333ZM16 3.33333H13.3333V6H16V3.33333ZM16 6.66667H13.3333V9.33333H16V6.66667ZM16 10H13.3333V12.6667H16V10ZM16 13.3333H13.3333V16H16V13.3333ZM12.6667 16V13.3333H10V16H12.6667ZM9.33333 16V13.3333H6.66667V16H9.33333ZM6 16V13.3333H3.33333V16H6ZM2.66667 16V13.3333H0V16H2.66667ZM0 12.6667H2.66667V10H0V12.6667ZM0 9.33333H2.66667V6.66667H0V9.33333ZM0 6H2.66667V3.33333H0V6ZM12.6667 6V3.33333H10V6H12.6667ZM9.33333 6V3.33333H6.66667V6H9.33333ZM6.66667 6.66667H9.33333V9.33333H6.66667V6.66667ZM6 6V3.33333H3.33333V6H6ZM3.33333 6.66667H6V9.33333H3.33333V6.66667ZM10 6.66667H12.6667V9.33333H10V6.66667ZM3.33333 12.6667V10H6V12.6667H3.33333ZM6.66667 12.6667V10H9.33333V12.6667H6.66667ZM10 12.6667V10H12.6667V12.6667H10Z" fill="white" fill-opacity="0.5"/>
</svg>
