<svg width="16" height="16" viewBox="0 0 16 16" fill="none" xmlns="http://www.w3.org/2000/svg">
<path fill-rule="evenodd" clip-rule="evenodd" d="M2.08696 0H0V2.08696H2.08696V0ZM2.78261 0V2.08696H4.86957V0H2.78261ZM5.56522 0V2.08696H7.65217V0H5.56522ZM8.34783 0V2.08696H10.4348V0H8.34783ZM11.1304 0V2.08696H13.2174V0H11.1304ZM13.913 0V2.08696H16V0H13.913ZM16 2.78261H13.913V4.86957H16V2.78261ZM16 5.56522H13.913V7.65217H16V5.56522ZM16 8.34783H13.913V10.4348H16V8.34783ZM16 11.1304H13.913V13.2174H16V11.1304ZM16 13.913H13.913V16H16V13.913ZM13.2174 16V13.913H11.1304V16H13.2174ZM10.4348 16V13.913H8.34783V16H10.4348ZM7.65217 16V13.913H5.56522V16H7.65217ZM4.86957 16V13.913H2.78261V16H4.86957ZM2.08696 16V13.913H0V16H2.08696ZM0 13.2174H2.08696V11.1304H0V13.2174ZM0 10.4348H2.08696V8.34783H0V10.4348ZM0 7.65217H2.08696V5.56522H0V7.65217ZM0 4.86957H2.08696V2.78261H0V4.86957ZM13.2174 13.2174V11.1304H11.1304V13.2174H13.2174ZM10.4348 13.2174V11.1304H8.34783V13.2174H10.4348ZM7.65217 13.2174V11.1304H5.56522V13.2174H7.65217ZM4.86957 13.2174V11.1304H2.78261V13.2174H4.86957ZM4.86957 10.4348H2.78261V8.34783H4.86957V10.4348ZM7.65217 10.4348H5.56522V8.34783H7.65217V10.4348ZM10.4348 10.4348H8.34783V8.34783H10.4348V10.4348ZM13.2174 10.4348H11.1304V8.34783H13.2174V10.4348ZM13.2174 7.65217V5.56522H11.1304V7.65217H13.2174ZM10.4348 7.65217V5.56522H8.34783V7.65217H10.4348ZM7.65217 7.65217V5.56522H5.56522V7.65217H7.65217ZM4.86957 7.65217V5.56522H2.78261V7.65217H4.86957ZM4.86957 4.86957H2.78261V2.78261H4.86957V4.86957ZM7.65217 4.86957H5.56522V2.78261H7.65217V4.86957ZM10.4348 4.86957H8.34783V2.78261H10.4348V4.86957ZM13.2174 4.86957H11.1304V2.78261H13.2174V4.86957Z" fill="white" fill-opacity="0.5"/>
</svg>
