<svg width="16" height="16" viewBox="0 0 16 16" fill="none" xmlns="http://www.w3.org/2000/svg">
<path fill-rule="evenodd" clip-rule="evenodd" d="M1.77778 0H0V1.77778H1.77778V0ZM2.37037 0V1.77778H4.14815V0H2.37037ZM4.74074 0V1.77778H6.51852V0H4.74074ZM7.11111 0V1.77778H8.88889V0H7.11111ZM9.48148 0V1.77778H11.2593V0H9.48148ZM11.8519 0V1.77778H13.6296V0H11.8519ZM14.2222 0V1.77778H16V0H14.2222ZM16 2.37037H14.2222V4.14815H16V2.37037ZM16 4.74074H14.2222V6.51852H16V4.74074ZM16 7.11111H14.2222V8.88889H16V7.11111ZM16 9.48148H14.2222V11.2593H16V9.48148ZM16 11.8519H14.2222V13.6296H16V11.8519ZM16 14.2222H14.2222V16H16V14.2222ZM13.6296 16V14.2222H11.8519V16H13.6296ZM11.2593 16V14.2222H9.48148V16H11.2593ZM8.88889 16V14.2222H7.11111V16H8.88889ZM6.51852 16V14.2222H4.74074V16H6.51852ZM4.14815 16V14.2222H2.37037V16H4.14815ZM1.77778 16V14.2222H0V16H1.77778ZM0 13.6296H1.77778V11.8519H0V13.6296ZM0 11.2593H1.77778V9.48148H0V11.2593ZM0 8.88889H1.77778V7.11111H0V8.88889ZM0 6.51852H1.77778V4.74074H0V6.51852ZM0 4.14815H1.77778V2.37037H0V4.14815ZM13.6296 13.6296V11.8519H11.8519V13.6296H13.6296ZM11.2593 13.6296V11.8519H9.48148V13.6296H11.2593ZM8.88889 13.6296V11.8519H7.11111V13.6296H8.88889ZM6.51852 13.6296V11.8519H4.74074V13.6296H6.51852ZM4.14815 13.6296V11.8519H2.37037V13.6296H4.14815ZM4.14815 11.2593H2.37037V9.48148H4.14815V11.2593ZM6.51852 11.2593H4.74074V9.48148H6.51852V11.2593ZM8.88889 11.2593H7.11111V9.48148H8.88889V11.2593ZM11.2593 11.2593H9.48148V9.48148H11.2593V11.2593ZM13.6296 11.2593H11.8519V9.48148H13.6296V11.2593ZM13.6296 8.88889V7.11111H11.8519V8.88889H13.6296ZM11.2593 8.88889V7.11111H9.48148V8.88889H11.2593ZM8.88889 8.88889V7.11111H7.11111V8.88889H8.88889ZM6.51852 8.88889V7.11111H4.74074V8.88889H6.51852ZM4.14815 8.88889V7.11111H2.37037V8.88889H4.14815ZM4.14815 6.51852H2.37037V4.74074H4.14815V6.51852ZM6.51852 6.51852H4.74074V4.74074H6.51852V6.51852ZM8.88889 6.51852H7.11111V4.74074H8.88889V6.51852ZM11.2593 6.51852H9.48148V4.74074H11.2593V6.51852ZM13.6296 6.51852H11.8519V4.74074H13.6296V6.51852ZM13.6296 4.14815V2.37037H11.8519V4.14815H13.6296ZM11.2593 4.14815V2.37037H9.48148V4.14815H11.2593ZM8.88889 4.14815V2.37037H7.11111V4.14815H8.88889ZM6.51852 4.14815V2.37037H4.74074V4.14815H6.51852ZM4.14815 4.14815V2.37037H2.37037V4.14815H4.14815Z" fill="white" fill-opacity="0.5"/>
</svg>
