<svg width="16" height="16" viewBox="0 0 16 16" fill="none" xmlns="http://www.w3.org/2000/svg">
<path fill-rule="evenodd" clip-rule="evenodd" d="M8 16C12.4183 16 16 12.4183 16 8C16 3.58172 12.4183 0 8 0C3.58172 0 0 3.58172 0 8C0 12.4183 3.58172 16 8 16ZM8 0L6.26794 8.25H6.27002C6.27134 8.70569 6.45293 9.14244 6.77526 9.46476C7.09876 9.78826 7.53752 9.97 7.99501 9.97C8.45251 9.97 8.89127 9.78826 9.21477 9.46476C9.5371 9.14244 9.71869 8.70569 9.72001 8.25H9.73205L8 0Z" fill="white" fill-opacity="0.5"/>
</svg>
