<svg width="16" height="16" viewBox="0 0 16 16" fill="none" xmlns="http://www.w3.org/2000/svg">
<path fill-rule="evenodd" clip-rule="evenodd" d="M9.28421 15.6069H12.9443L14.0753 12.126H10.4152L9.28421 15.6069ZM14.609 10.4833L14.3352 11.326H10.6752L11.648 8.33195L14.609 10.4833ZM14.869 9.68328L16 6.20236L13.0389 4.05102L11.9079 7.53195L14.869 9.68328ZM11.6416 3.03577L12.3584 3.5566L11.2274 7.03752L8.68052 5.18711L11.6416 3.03577ZM10.9611 2.54135L8 0.390015L5.03895 2.54135L8 4.69268L10.9611 2.54135ZM3.64158 3.55659L4.35843 3.03577L7.31948 5.18711L4.7726 7.03753L3.64158 3.55659ZM2.96106 4.05102L0 6.20236L1.13102 9.68328L4.09208 7.53195L2.96106 4.05102ZM1.66477 11.326L1.39096 10.4833L4.35201 8.33195L5.32484 11.326H1.66477ZM1.92471 12.126L3.05573 15.6069H6.7158L5.58477 12.126H1.92471ZM8.44304 15.6069H7.55697L6.42594 12.126H9.57406L8.44304 15.6069ZM9.834 11.326L10.9675 7.83753L8 5.68153L5.03254 7.83753L6.16601 11.326H9.834Z" fill="white" fill-opacity="0.5"/>
</svg>
