<svg width="16" height="16" viewBox="0 0 16 16" fill="none" xmlns="http://www.w3.org/2000/svg">
<path fill-rule="evenodd" clip-rule="evenodd" d="M10.1698 4.82825L7.99998 1.06995L5.83012 4.82825H10.1698ZM10.8978 6.08907L13.1028 9.90824H8.69278L10.8978 6.08907ZM13.8307 11.1691L16 14.9263H11.6615L13.8307 11.1691ZM10.2043 14.9263H5.79559L7.99996 11.1082L10.2043 14.9263ZM4.33846 14.9263H0L2.16923 11.1691L4.33846 14.9263ZM2.89719 9.90824H7.30714L5.10216 6.08911L2.89719 9.90824ZM7.99996 9.50824L5.75985 5.62825H10.2401L7.99996 9.50824ZM10.9329 14.5882L8.69278 10.7082H13.173L10.9329 14.5882ZM7.30714 10.7082L5.06703 14.5882L2.82692 10.7082H7.30714Z" fill="white" fill-opacity="0.5"/>
</svg>
