<svg width="16" height="16" viewBox="0 0 16 16" fill="none" xmlns="http://www.w3.org/2000/svg">
<path fill-rule="evenodd" clip-rule="evenodd" d="M4.5359 0H0V4.5359L6.37669 6.37669L4.5359 0ZM11.4641 0L9.62331 6.37669L16 4.5359V0H11.4641ZM16 11.4641L9.62331 9.62331L11.4641 16H16V11.4641ZM4.5359 16L6.37669 9.62331L0 11.4641V16H4.5359Z" fill="white" fill-opacity="0.5"/>
<path fill-rule="evenodd" clip-rule="evenodd" d="M5.97928 0L8 7L10.0207 0H5.97928ZM16 5.97928L9 8L16 10.0207V5.97928ZM10.0207 16L8 9L5.97928 16H10.0207ZM0 10.0207L7 8L0 5.97928V10.0207Z" fill="white" fill-opacity="0.5"/>
</svg>
