<svg width="16" height="16" viewBox="0 0 16 16" fill="none" xmlns="http://www.w3.org/2000/svg">
<g clip-path="url(#clip0_255_854)">
<path d="M6.70356 0.836167C6.09556 1.03926 5.59124 1.32769 5.13343 1.73387C5.0498 1.80811 4.86079 1.99969 4.78356 2.08843C4.38634 2.54454 4.09066 3.05953 3.90975 3.60993C3.79242 3.96705 3.72799 4.30667 3.70111 4.70859C3.69471 4.81014 3.69471 5.11777 3.70154 5.22273C3.72842 5.65025 3.79967 6.02273 3.92383 6.3871C3.94303 6.44299 3.95796 6.48907 3.95711 6.48993C3.95626 6.49078 3.91658 6.49931 3.86836 6.50913C3.06154 6.67254 2.38698 6.99766 1.8097 7.50113C1.72522 7.57537 1.50719 7.79126 1.4338 7.87446C1.07455 8.28065 0.80703 8.71286 0.615883 9.19499C0.43967 9.64001 0.34879 10.0756 0.322336 10.6051C0.31679 10.7173 0.31935 11.0373 0.326603 11.1278C0.335563 11.2353 0.34495 11.3249 0.357323 11.4094C0.369696 11.496 0.399563 11.656 0.402976 11.653C0.40383 11.6517 0.402123 11.6159 0.399136 11.5728C0.391456 11.4708 0.391456 11.1478 0.39871 11.0553C0.434976 10.6064 0.540363 10.2173 0.728096 9.83755C0.861216 9.56833 1.02122 9.32769 1.21706 9.10241C1.28618 9.02262 1.48074 8.83105 1.56223 8.76235C2.04351 8.35617 2.62676 8.09334 3.25823 7.99862C3.75231 7.92438 4.30527 7.97601 4.80276 8.14283C5.5537 8.39499 6.18687 8.90913 6.60372 9.60545C6.65706 9.69419 6.74751 9.86827 6.78463 9.95446C6.91903 10.2625 7.01119 10.6017 7.0466 10.9187C7.06111 11.0489 7.06452 11.1013 7.06708 11.2494C7.07263 11.5656 7.04234 11.8335 6.9681 12.1219C6.81194 12.7308 6.51114 13.2552 6.06954 13.6878C5.33908 14.4037 4.39359 14.7336 3.36703 14.6307C2.76244 14.5697 2.21844 14.3461 1.67402 13.934C1.64159 13.9097 1.61386 13.8909 1.61258 13.8922C1.60916 13.8956 1.6369 13.922 1.7265 14.001C2.221 14.4362 2.7266 14.7387 3.2689 14.923C3.63455 15.0472 3.99935 15.1163 4.4209 15.141C4.53012 15.1474 4.82623 15.1474 4.9393 15.141C5.49994 15.109 5.9953 14.9836 6.5137 14.7421C7.04916 14.4925 7.51423 14.1448 7.949 13.6694C7.98186 13.634 8.00959 13.6046 8.0113 13.6046C8.01258 13.6046 8.0258 13.6195 8.04116 13.6374C8.09535 13.7027 8.18538 13.8 8.2673 13.8819C8.7793 14.3939 9.42783 14.7792 10.1105 14.9763C10.4151 15.0642 10.7228 15.1167 11.0748 15.1414C11.1776 15.1483 11.5262 15.1487 11.623 15.1414C12.0147 15.1129 12.3599 15.0459 12.7025 14.9324C13.2495 14.751 13.7811 14.4477 14.2065 14.0748C14.2748 14.015 14.4011 13.8952 14.4262 13.8661L14.4518 13.8371L14.4262 13.8576C14.1916 14.0449 14.0013 14.1691 13.7713 14.2851C13.1697 14.5876 12.5382 14.696 11.8556 14.6137C11.3009 14.5467 10.7778 14.3393 10.3366 14.0116C10.0977 13.8341 9.85663 13.6037 9.67231 13.3755C9.2849 12.8968 9.04554 12.3267 8.97386 11.7123C8.95466 11.5493 8.9521 11.4998 8.9521 11.2899C8.9521 11.1308 8.9538 11.0723 8.95978 11.0062C9.0178 10.3781 9.2337 9.82006 9.61556 9.31019C10.0559 8.7231 10.6528 8.30881 11.3564 8.10273C11.8027 7.97174 12.2827 7.93931 12.758 8.00715C13.2401 8.07585 13.7017 8.25035 14.1075 8.51702C14.5184 8.78753 14.8636 9.14763 15.1268 9.58113C15.5061 10.2062 15.6674 10.911 15.5991 11.6496C15.5957 11.6901 15.5932 11.7256 15.594 11.7281C15.5966 11.7349 15.62 11.6223 15.6358 11.531C15.6764 11.2929 15.6943 11.0361 15.69 10.7502C15.6832 10.2988 15.6299 9.93611 15.5125 9.54486C15.437 9.2927 15.3525 9.07851 15.2348 8.84086C15.0628 8.49398 14.867 8.20171 14.6054 7.90219C14.5316 7.81771 14.3191 7.60353 14.2385 7.53227C13.9501 7.27755 13.6642 7.08427 13.3233 6.91275C12.9726 6.73611 12.5997 6.60598 12.179 6.51339C12.1542 6.50785 12.1372 6.50187 12.1372 6.49889C12.1372 6.49633 12.147 6.46689 12.1589 6.43446C12.3292 5.96385 12.4183 5.38145 12.4017 4.85025C12.3774 4.08395 12.1628 3.35393 11.7732 2.70966C11.5185 2.28854 11.1853 1.90838 10.8017 1.60033C10.3362 1.22699 9.83444 0.9599 9.32799 0.81526C9.25972 0.79606 9.23924 0.792647 9.27722 0.806727C9.35402 0.835314 9.56138 0.9343 9.66676 0.992327C10.1502 1.25899 10.5444 1.62422 10.8465 2.08417C11.0163 2.34315 11.1507 2.62859 11.2429 2.92769C11.3154 3.16363 11.3521 3.35051 11.3764 3.60779C11.3858 3.70806 11.3871 4.07329 11.3785 4.17099C11.3623 4.35361 11.341 4.49483 11.3077 4.64545C11.1503 5.35201 10.7932 5.94678 10.2342 6.43446C9.90442 6.72203 9.52042 6.94433 9.11636 7.08129C8.84671 7.17302 8.589 7.22422 8.27583 7.24811C8.1858 7.25494 7.91103 7.25494 7.8193 7.24811C7.06196 7.19094 6.4241 6.92129 5.8417 6.41142C5.72138 6.30603 5.53066 6.10678 5.4274 5.97793C5.13002 5.60801 4.9218 5.18433 4.80703 4.71585C4.73962 4.43894 4.71146 4.20385 4.71146 3.90859C4.71146 3.52289 4.76138 3.2063 4.877 2.85899C5.04212 2.36363 5.31263 1.92587 5.6817 1.55595C5.97652 1.26027 6.34218 1.01281 6.74324 0.836167C6.86228 0.784114 6.8593 0.784114 6.70356 0.836167ZM8.14015 8.21366C8.28692 8.23286 8.40212 8.29174 8.5169 8.40566C8.61375 8.50166 8.6769 8.61686 8.70548 8.74955C8.71743 8.80545 8.71615 8.94881 8.70292 9.00939C8.67476 9.14166 8.62058 9.24107 8.52543 9.33579C8.42943 9.43179 8.31807 9.49153 8.1777 9.52225C8.1393 9.53035 8.12052 9.53163 8.0433 9.53163C7.96692 9.53163 7.94772 9.53035 7.91231 9.52267C7.77919 9.49281 7.6802 9.43819 7.58463 9.34219C7.5057 9.26326 7.45706 9.18987 7.42292 9.09814C7.36234 8.93686 7.37044 8.74827 7.44468 8.59254C7.4993 8.47691 7.61407 8.35574 7.72884 8.29089C7.85258 8.22134 7.99508 8.19446 8.14015 8.21366Z" fill="#01F26D"/>
<path d="M7.89597 4.75959C7.52989 4.7805 7.20349 4.83383 6.88819 4.92386C6.43677 5.05314 5.9828 5.27458 5.63549 5.53612C5.56168 5.59159 5.45117 5.68375 5.45117 5.6893C5.45117 5.69484 5.55016 5.82583 5.60947 5.89879C5.74045 6.06092 5.90131 6.2222 6.03016 6.32162L6.05192 6.33868L6.10696 6.29858C6.55368 5.97175 7.00296 5.77591 7.49533 5.69228C7.66387 5.6637 7.79613 5.65175 7.98984 5.64834C8.72413 5.63554 9.34408 5.83479 9.97939 6.28791L10.0511 6.33911L10.0997 6.29772C10.299 6.13004 10.485 5.92396 10.619 5.72428C10.6437 5.68802 10.648 5.67948 10.6429 5.67479C10.6288 5.66156 10.5294 5.58434 10.476 5.54551C10.1829 5.33047 9.85779 5.15554 9.50408 5.02199C9.12435 4.87863 8.75571 4.79543 8.35464 4.76343C8.27997 4.75746 7.97832 4.7549 7.89597 4.75959Z" fill="#01F26D"/>
<path d="M12.0177 8.16922C11.8057 8.19056 11.6154 8.22426 11.443 8.27162C11.3875 8.28698 11.2369 8.33392 11.2335 8.33733C11.2326 8.33818 11.2369 8.36933 11.2429 8.40645C11.3146 8.85104 11.2668 9.40186 11.117 9.86096C11.0402 10.0965 10.9455 10.303 10.8094 10.5317C10.4553 11.126 9.94198 11.5685 9.28065 11.8501C9.24779 11.8637 9.21366 11.8778 9.2047 11.8812C9.18849 11.8868 9.18806 11.8872 9.19062 11.9043C9.1983 11.9512 9.23457 12.1039 9.25889 12.1889C9.30667 12.3548 9.36129 12.4978 9.4351 12.6501C9.45771 12.6962 9.47691 12.7341 9.47777 12.7341C9.48203 12.7341 9.64161 12.668 9.70091 12.642C9.78625 12.6044 9.95009 12.5234 10.0316 12.4781C10.6682 12.1257 11.1716 11.6466 11.5556 11.0275C11.6371 10.8961 11.7374 10.7083 11.7997 10.5688C11.9226 10.2953 12.0228 9.98725 12.0796 9.70608C12.1764 9.22821 12.1926 8.65349 12.1201 8.25626C12.1154 8.23024 12.1116 8.20293 12.1116 8.19525C12.1116 8.16965 12.1056 8.16453 12.0783 8.16496C12.0651 8.16538 12.0378 8.16709 12.0177 8.16922Z" fill="#01F26D"/>
<path d="M3.98858 8.20172C3.95274 8.40823 3.93652 8.61089 3.93652 8.8558C3.93652 9.22743 3.9762 9.55383 4.06111 9.88236C4.16394 10.28 4.32095 10.6533 4.53727 11.0147C4.93492 11.6786 5.49642 12.1932 6.21492 12.5524C6.34932 12.6194 6.54815 12.7065 6.5537 12.7009C6.5554 12.6992 6.57204 12.6642 6.59039 12.6233C6.67444 12.4368 6.73802 12.2533 6.78708 12.0579C6.80458 11.9875 6.83188 11.8591 6.82932 11.8578C6.82847 11.8574 6.80202 11.8455 6.77044 11.8318C6.47263 11.7012 6.17567 11.5127 5.92906 11.2976C5.85695 11.2349 5.72255 11.1022 5.65599 11.0275C5.16916 10.484 4.87946 9.79831 4.82911 9.07127C4.82186 8.97057 4.82314 8.74999 4.83124 8.6446C4.83764 8.56097 4.85556 8.40396 4.86154 8.38007C4.86452 8.36727 4.86623 8.36812 4.76511 8.33313C4.53514 8.25463 4.30687 8.203 4.08159 8.17953C3.98687 8.16972 3.99455 8.16801 3.98858 8.20172Z" fill="#01F26D"/>
<path d="M0.403404 11.6659C0.403404 11.6706 0.404684 11.6719 0.405964 11.6685C0.407244 11.6655 0.406817 11.6617 0.405537 11.6604C0.404257 11.6587 0.402977 11.6612 0.403404 11.6659Z" fill="#01F26D"/>
<path d="M15.5898 11.7445C15.5898 11.7505 15.5907 11.7526 15.592 11.7496C15.5928 11.7471 15.5928 11.742 15.592 11.739C15.5907 11.7364 15.5898 11.7385 15.5898 11.7445Z" fill="#01F26D"/>
</g>
<defs>
<clipPath id="clip0_255_854">
<rect width="16" height="16" fill="white"/>
</clipPath>
</defs>
</svg>
