<svg width="28" height="29" viewBox="0 0 28 29" fill="none" xmlns="http://www.w3.org/2000/svg">
<path d="M15.3997 5L4.3335 7.39989V21.2659L15.3997 18.5994V5Z" fill="#111111"/>
<path d="M15.3997 5L4.3335 7.39989V21.2659L15.3997 18.5994V5Z" fill="black" fill-opacity="0.2"/>
<path d="M24.3328 8.33318L15.3999 5V18.5994L24.3328 22.0659V8.33318Z" fill="#111111"/>
<path d="M24.3328 8.33318L15.3999 5V18.5994L24.3328 22.0659V8.33318Z" fill="black" fill-opacity="0.6"/>
<path d="M4.3335 7.39905V21.2651L7.26669 22.3317V8.46566L4.3335 7.39905Z" fill="#111111"/>
<path d="M4.3335 7.39905V21.2651L7.26669 22.3317V8.46566L4.3335 7.39905Z" fill="white" fill-opacity="0.03"/>
<path d="M10.1997 9.5332V23.3992L13.1329 24.4658V10.5998L10.1997 9.5332Z" fill="#111111"/>
<path d="M10.1997 9.5332V23.3992L13.1329 24.4658V10.5998L10.1997 9.5332Z" fill="white" fill-opacity="0.03"/>
<path d="M13.1338 24.4645V10.5985L24.3333 8.33191V13.1317L17.0003 14.6344V19.1314L24.3333 17.5315V22.0646L13.1338 24.4645Z" fill="#111111"/>
<path d="M13.1338 24.4645V10.5985L24.3333 8.33191V13.1317L17.0003 14.6344V19.1314L24.3333 17.5315V22.0646L13.1338 24.4645Z" fill="white" fill-opacity="0.05"/>
</svg>
